<?xml version="1.0" standalone="no"?>
<!DOCTYPE svg PUBLIC "-//W3C//DTD SVG 1.1//EN" "http://www.w3.org/Graphics/SVG/1.1/DTD/svg11.dtd" >
<svg xmlns="http://www.w3.org/2000/svg">
<metadata>
This is a custom SVG webfont generated by Font Squirrel.
Designer    : Tobias FrereJones
Foundry     : Hoefler  FrereJones
Foundry URL : wwwtypographycom
</metadata>
<defs>
<font id="webfontai68deR1" horiz-adv-x="500" >
<font-face units-per-em="1000" ascent="800" descent="-200" />
<missing-glyph horiz-adv-x="300" />
<glyph unicode=" "  horiz-adv-x="300" />
<glyph unicode="&#x09;" horiz-adv-x="300" />
<glyph unicode="&#xa0;" horiz-adv-x="300" />
<glyph unicode="!" horiz-adv-x="271" d="M290 669l-144 -455q-7 -20 -24 -20q-21 0 -21 19q0 4 1 9l100 451q5 30 35 30h30q15 0 21 -9q4 -6 4 -13q0 -5 -2 -12zM90 110q21 0 34 -14q8 -9 8 -22q0 -6 -2 -12l-7 -25q-5 -19 -19 -30.5t-34 -11.5q-21 0 -33 14q-8 10 -8 23q0 5 1 11l7 25q11 42 53 42z" />
<glyph unicode="&#x22;" horiz-adv-x="442" d="M151 444q-10 -20 -27 -20q-18 0 -18 15q0 5 2 12l73 218q12 34 45 34h17q19 0 25 -13q1 -5 1 -11q0 -9 -6 -21zM348 444q-10 -20 -27 -20q-18 0 -18 15q0 5 2 12l73 218q10 34 45 34h16q20 0 25 -13q2 -5 2 -10q0 -10 -7 -22z" />
<glyph unicode="#" horiz-adv-x="682" d="M235 246h187l75 212h-188zM381 666l-48 -139h187l52 148q12 30 40 30q17 0 25 -11.5t3 -27.5l-49 -139h73q14 0 24 -10t10 -24t-10 -24.5t-24 -10.5h-97l-74 -212h84q14 0 24.5 -10t10.5 -24t-10.5 -24.5t-24.5 -10.5h-108l-53 -152q-10 -30 -39 -30q-17 0 -25.5 11.5 t-2.5 27.5l49 143h-187l-53 -152q-11 -30 -39 -30q-17 0 -25.5 11.5t-3.5 27.5l50 143h-72q-14 0 -24.5 10t-10.5 24t10.5 24.5t24.5 10.5h96l74 212h-84q-14 0 -24.5 10t-10.5 24t10.5 24.5t24.5 10.5h108l52 148q12 30 39 30q17 0 25.5 -11.5t2.5 -27.5z" />
<glyph unicode="$" horiz-adv-x="623" d="M192 -64l20 70q-115 21 -190 92q-16 14 -16 34q0 16 11 26.5t27 10.5q14 0 28 -12q65 -66 164 -82l68 252q-93 36 -134 74.5t-41 102.5q0 84 70 140t174 56q6 0 17.5 -0.5t16.5 -0.5l9 33q10 31 36 31q15 0 22.5 -11t3.5 -28l-9 -34q81 -18 143 -69q18 -13 18 -32 q0 -16 -11 -27t-27 -11q-13 0 -29 11q-49 44 -118 59l-65 -238q88 -32 128.5 -73.5t40.5 -105.5q0 -89 -73.5 -146.5t-188.5 -57.5h-14l-20 -72q-8 -31 -35 -31q-15 0 -22.5 10.5t-3.5 28.5zM292 70h8q73 0 119 33q49 35 49 93q0 36 -25 62t-85 50zM326 403l62 226 q-13 1 -25 1q-60 0 -102 -28q-51 -35 -51 -90q0 -37 26.5 -61t89.5 -48z" />
<glyph unicode="%" horiz-adv-x="837" d="M232 346q-62 0 -101.5 42t-39.5 104q0 85 55.5 150.5t135.5 65.5q63 0 102.5 -42t39.5 -104q0 -85 -56 -150.5t-136 -65.5zM603 -7q-62 0 -101.5 41.5t-39.5 104.5q0 84 56 150t136 66q62 0 101.5 -42t39.5 -104q0 -85 -56 -150.5t-136 -65.5zM237 401q51 0 88 49t37 107 q0 44 -22.5 70t-61.5 26q-51 0 -88 -49t-37 -107q0 -44 22 -70t62 -26zM608 48q51 0 88 49t37 107q0 44 -22.5 70t-61.5 26q-51 0 -88 -49t-37 -108q0 -43 22.5 -69t61.5 -26zM777 653l-622 -641q-17 -17 -31 -17q-11 0 -19 7.5t-8 19.5q0 11 13 26l622 640q15 17 30 17 q27 0 27 -26q0 -14 -12 -26z" />
<glyph unicode="&#x26;" horiz-adv-x="692" d="M332 418q177 49 177 139q0 40 -27.5 65t-73.5 25q-49 0 -83 -34t-34 -82q0 -51 41 -113zM244 58q101 0 197 88l-145 205q-95 -25 -142 -71.5t-47 -104.5q0 -54 37 -85.5t100 -31.5zM542 9l-61 87q-115 -106 -246 -106q-90 0 -148 48t-58 131q0 80 58.5 140t173.5 92 q-44 74 -44 130q0 76 56 128.5t138 52.5q78 0 125 -42t47 -109q0 -131 -216 -193l125 -175q50 57 92 125q14 23 32 23q13 0 22 -8t9 -21t-8 -24q-54 -86 -107 -144l65 -92q12 -17 12 -28q0 -15 -9.5 -24.5t-25.5 -9.5q-18 0 -32 19z" />
<glyph unicode="'" horiz-adv-x="245" d="M151 444q-10 -20 -27 -20q-18 0 -18 15q0 5 2 12l73 218q12 34 45 34h17q19 0 25 -13q1 -5 1 -11q0 -9 -6 -21z" />
<glyph unicode="(" horiz-adv-x="434" d="M296 -78q11 -14 11 -27t-9.5 -22t-23.5 -9q-15 0 -28 11q-158 151 -158 341q0 153 95.5 282t275.5 209q14 6 22 6q13 0 22 -8.5t9 -22.5q0 -21 -21 -32q-157 -72 -240.5 -185.5t-83.5 -246.5q0 -92 34 -160.5t95 -135.5z" />
<glyph unicode=")" horiz-adv-x="434" d="M154 655q-11 14 -11 26q0 14 9.5 23t23.5 9q15 0 28 -11q158 -151 158 -341q0 -153 -95.5 -282.5t-275.5 -209.5q-17 -5 -22 -5q-13 0 -22 9t-9 22q0 21 21 32q157 72 240 185.5t83 246.5q0 92 -34 160.5t-94 135.5z" />
<glyph unicode="*" horiz-adv-x="430" d="M294 519l-18 -99q-3 -23 -25 -23q-14 0 -20.5 10t-1.5 23l35 97l-95 -34q-9 -4 -18 -4t-16 6.5t-7 19.5q0 19 24 24l105 18l-81 67q-13 11 -13 23q0 10 7 17.5t17 7.5q14 0 23 -11l68 -81l18 97q5 26 26 26q14 0 20 -10t1 -25l-35 -96l95 34q8 4 19 4q9 0 15 -7t6 -17 q0 -23 -23 -26l-105 -18l80 -67q14 -11 14 -23q0 -10 -7.5 -17.5t-17.5 -7.5q-13 0 -22 12z" />
<glyph unicode="+" horiz-adv-x="625" d="M366 316l-47 -172q-10 -38 -42 -38q-19 0 -27 14q-5 7 -5 18q0 7 2 15l44 163h-166q-15 0 -25.5 10.5t-10.5 25.5t10.5 25.5t25.5 10.5h185l46 173q11 37 43 37q18 0 27 -13q5 -8 5 -19q0 -7 -2 -14l-44 -164h166q15 0 26 -10.5t11 -24.5q0 -15 -11 -26t-26 -11h-185z " />
<glyph unicode="," horiz-adv-x="255" d="M80 110q23 0 34 -16q8 -11 8 -25q0 -8 -3 -18l-8 -30q-15 -62 -55 -100q-33 -30 -80 -40q-3 -1 -6 -1q-7 0 -12 4q-6 5 -6 14q0 13 17 19q70 24 80 83q-14 3 -22.5 14t-4.5 29l7 26q5 18 18.5 29.5t32.5 11.5z" />
<glyph unicode="-" horiz-adv-x="410" d="M320 260h-208q-16 0 -28 12t-12 29q0 16 12 28t28 12h208q16 0 28 -12t12 -28q0 -17 -12 -29t-28 -12z" />
<glyph unicode="." horiz-adv-x="255" d="M82 110q21 0 34 -14q8 -9 8 -22q0 -6 -2 -12l-7 -25q-5 -19 -19 -30.5t-34 -11.5q-21 0 -33 14q-8 10 -8 23q0 5 1 11l7 25q11 42 53 42z" />
<glyph unicode="/" horiz-adv-x="508" d="M-85 -75l654 857q16 21 36 21q28 0 28 -28q0 -11 -13 -30l-654 -857q-16 -21 -36 -21q-28 0 -28 28q0 11 13 30z" />
<glyph unicode="0" horiz-adv-x="715" d="M322 -12q-115 0 -180 74.5t-65 195.5q0 83 27 164.5t74 145.5t116 104t147 40q115 0 180 -75t65 -195q0 -83 -27 -164.5t-74 -145.5t-116 -104t-147 -40zM327 60q74 0 139 57t101.5 145t36.5 180q0 88 -44.5 143t-124.5 55q-74 0 -138.5 -57t-101 -145t-36.5 -180 q0 -88 44 -143t124 -55z" />
<glyph unicode="1" horiz-adv-x="361" d="M351 665l-170 -632q-9 -38 -43 -38q-19 0 -29 13q-6 9 -6 21q0 7 2 15l155 577l-103 -32q-7 -3 -16 -3q-13 0 -22 9.5t-9 24.5q0 27 28 35l138 44q27 9 45 9h1q18 0 26 -12q5 -7 5 -17q0 -7 -2 -14z" />
<glyph unicode="2" horiz-adv-x="595" d="M453 0h-429q-40 0 -40 34q0 22 19 35l392 297q61 46 89 84t28 81q0 48 -35.5 77.5t-97.5 29.5q-89 0 -172 -77q-16 -14 -30 -14q-15 0 -25.5 10t-10.5 25q0 18 15 31q106 97 226 97q94 0 153 -48.5t59 -125.5q0 -60 -36 -110.5t-114 -108.5l-323 -245h332 q16 0 26.5 -10.5t10.5 -25.5t-10.5 -25.5t-26.5 -10.5z" />
<glyph unicode="3" horiz-adv-x="605" d="M22 94q-12 15 -12 30q0 16 11.5 27t26.5 11t29 -16q60 -86 175 -86q83 0 138 44t55 111q0 59 -48 89t-133 30h-11q-33 0 -33 29q0 15 16 28l269 238h-303q-15 0 -25.5 10t-10.5 25t10.5 25.5t25.5 10.5h392q36 0 36 -30q0 -20 -24 -39l-271 -238q84 -7 138 -51.5 t54 -120.5q0 -100 -81.5 -166.5t-197.5 -66.5q-155 0 -226 106z" />
<glyph unicode="4" horiz-adv-x="649" d="M129 232h288l96 357zM475 166l-35 -133q-11 -38 -43 -38q-18 0 -27 13q-6 9 -6 20q0 7 2 16l33 122h-338q-41 0 -41 32q0 21 21 42l481 445q28 25 55 25q19 0 28 -12q6 -9 6 -19q0 -6 -2 -13l-116 -434h70q14 0 24 -9.5t10 -23.5t-10 -23.5t-24 -9.5h-88z" />
<glyph unicode="5" horiz-adv-x="603" d="M35 81q-16 18 -16 36q0 15 10.5 25.5t26.5 10.5q18 0 31 -15q65 -79 170 -79q89 0 146 51t57 121q0 62 -43 98t-113 36q-54 0 -128 -29q-7 -2 -14 -2q-14 0 -27 9q-15 11 -15 28q0 8 3 17l91 279q12 33 41 33h318q15 0 25.5 -10.5t10.5 -26.5q0 -15 -10.5 -25.5 t-25.5 -10.5h-297l-74 -220q56 27 120 27q100 0 160.5 -53.5t60.5 -143.5q0 -103 -81.5 -176t-210.5 -73q-128 0 -216 93z" />
<glyph unicode="6" horiz-adv-x="641" d="M630 645q18 -13 18 -33q0 -16 -11 -27t-26 -11q-14 0 -27 11q-62 55 -142 55q-95 0 -169 -74q-42 -42 -71.5 -103.5t-36.5 -124.5q32 44 84.5 73t117.5 29q100 0 160.5 -57.5t60.5 -143.5q0 -102 -78.5 -176.5t-193.5 -74.5q-108 0 -170 64q-69 69 -69 194 q0 109 37.5 205t101.5 160q101 101 232 101q108 0 182 -67zM318 57q81 0 135 52t54 124q0 57 -40.5 98t-114.5 41q-84 0 -138.5 -50.5t-54.5 -117.5q0 -64 41 -103q43 -44 118 -44z" />
<glyph unicode="7" horiz-adv-x="586" d="M611 630l-443 -608q-20 -27 -44 -27q-15 0 -24 8.5t-9 22.5q0 16 13 35l418 567h-339q-15 0 -25.5 10t-10.5 26q0 15 10.5 25.5t25.5 10.5h412q34 0 34 -29q0 -19 -18 -41z" />
<glyph unicode="8" horiz-adv-x="647" d="M296 -10q-112 0 -185 53.5t-73 133.5t56.5 130t147.5 66q-45 18 -73 56.5t-28 88.5q0 80 71.5 136t181.5 56q104 0 170 -51t66 -130q0 -69 -48.5 -117t-124.5 -64q50 -18 84.5 -59t34.5 -96q0 -86 -79 -144.5t-201 -58.5zM376 390q81 0 128.5 39t47.5 92t-44 87t-116 34 q-76 0 -124.5 -37.5t-48.5 -93.5q0 -52 44 -86.5t113 -34.5zM301 58q87 0 140.5 38.5t54.5 100.5q0 53 -50.5 90.5t-131.5 37.5q-88 0 -142 -41t-54 -99q-1 -56 49.5 -91.5t133.5 -35.5z" />
<glyph unicode="9" horiz-adv-x="641" d="M243 -13q-108 0 -188 72q-19 16 -19 35q0 16 10.5 26.5t25.5 10.5q14 0 28 -10q64 -62 147 -62q94 0 169 75q42 41 71 101t36 122q-31 -44 -83 -75t-120 -31q-100 0 -160.5 58.5t-60.5 146.5q1 105 79.5 180t194.5 75q105 0 170 -63q69 -71 69 -199q0 -107 -38 -202 t-102 -159q-103 -101 -229 -101zM338 320q82 0 136.5 53t54.5 123q0 62 -40 102q-45 45 -118 45q-82 0 -136 -53.5t-54 -127.5q-1 -59 40 -100.5t117 -41.5z" />
<glyph unicode=":" horiz-adv-x="262" d="M85 110q21 0 33 -14q9 -9 9 -22q0 -6 -2 -12l-7 -25q-5 -19 -19 -30.5t-34 -11.5q-21 0 -33 14q-8 10 -8 23q0 5 1 11l7 25q11 42 53 42zM196 522q21 0 34 -14q8 -9 8 -22q0 -6 -2 -12l-7 -25q-5 -19 -19 -30.5t-34 -11.5q-21 0 -33 14q-8 10 -8 23q0 5 1 11l7 25 q11 42 53 42z" />
<glyph unicode=";" horiz-adv-x="262" d="M196 522q21 0 34 -14q8 -9 8 -22q0 -6 -2 -12l-7 -25q-5 -19 -19 -30.5t-34 -11.5q-21 0 -33 14q-8 10 -8 23q0 5 1 11l7 25q11 42 53 42zM84 110q23 0 34 -16q8 -11 8 -25q0 -8 -3 -18l-8 -30q-15 -62 -55 -100q-33 -30 -80 -40q-3 -1 -6 -1q-7 0 -12 4q-6 5 -6 14 q0 13 17 19q70 24 80 83q-14 3 -22.5 14t-4.5 29l7 26q5 18 18.5 29.5t32.5 11.5z" />
<glyph unicode="&#x3c;" horiz-adv-x="625" d="M122 395l443 198q12 6 27 6q13 0 21.5 -8.5t8.5 -21.5q0 -25 -25 -35l-425 -187l311 -179q22 -12 22 -33q0 -15 -10 -25.5t-25 -10.5q-10 0 -24 7l-330 193q-32 18 -32 44v3q0 34 38 49z" />
<glyph unicode="=" horiz-adv-x="625" d="M110 198q-16 0 -27 10.5t-11 26.5q0 15 11 26t27 11h393q15 0 26 -11t11 -26q0 -16 -11 -26.5t-26 -10.5h-393zM173 432q-16 0 -27 10.5t-11 26.5q0 15 11 26t27 11h393q15 0 26 -11t11 -26q0 -16 -11 -26.5t-26 -10.5h-393z" />
<glyph unicode="&#x3e;" horiz-adv-x="625" d="M552 309l-443 -198q-12 -6 -27 -6q-13 0 -21.5 8.5t-8.5 21.5q0 25 25 35l425 187l-311 179q-22 12 -22 33q0 15 10 25.5t25 10.5q10 0 24 -7l330 -193q32 -19 32 -44v-3q0 -34 -38 -49z" />
<glyph unicode="?" horiz-adv-x="537" d="M164 573q-18 -12 -30 -12q-14 0 -23.5 9.5t-9.5 22.5q0 17 15 30q96 86 219 86q94 0 150.5 -50.5t56.5 -126.5q0 -93 -72 -150t-190 -74l-32 -91q-10 -24 -30 -24h-2q-12 0 -18.5 8.5t-4.5 21.5l20 113q4 27 35 31q96 11 154 52t58 107q0 52 -37 81.5t-96 29.5 q-84 0 -163 -64zM186 110q21 0 34 -14q8 -9 8 -22q0 -6 -2 -12l-7 -25q-5 -19 -19 -30.5t-34 -11.5q-21 0 -33 14q-8 10 -8 23q0 5 1 11l7 25q11 42 53 42z" />
<glyph unicode="@" horiz-adv-x="980" d="M449 131q70 0 129 59.5t59 134.5q0 52 -32 84.5t-85 32.5q-71 0 -122.5 -59t-51.5 -141q0 -52 28.5 -81.5t74.5 -29.5zM692 -116q-98 -43 -210 -43q-189 0 -304 107.5t-115 283.5q0 127 65.5 237.5t178.5 177t246 66.5q181 0 288 -100.5t107 -250.5q0 -136 -66.5 -213.5 t-148.5 -77.5q-52 0 -84 25t-41 69q-79 -96 -179 -96q-68 0 -113.5 45t-45.5 122q0 110 76 189t170 79q107 0 147 -98l19 61q10 31 37 31q16 0 25 -12q6 -8 6 -18q0 -7 -2 -14l-69 -221q-8 -26 -8 -47q0 -23 9 -40q18 -35 65 -35q59 0 112.5 67t53.5 184q0 135 -97.5 226 t-260.5 91q-122 0 -227 -62t-165.5 -165t-60.5 -220q0 -160 105 -258.5t277 -98.5q106 0 194 39q6 3 12 3q16 0 16 -17q0 -10 -12 -16z" />
<glyph unicode="A" horiz-adv-x="747" d="M228 257h322l-65 358zM551 670l116 -615q3 -18 3 -22q0 -15 -11 -26.5t-29 -11.5q-33 0 -40 35l-27 155h-385l-118 -163q-21 -27 -41 -27q-14 0 -23.5 9t-9.5 24q0 14 9 25l450 621q25 34 58 34h2q37 0 46 -38z" />
<glyph unicode="B" horiz-adv-x="717" d="M212 388h199q94 0 149.5 38t55.5 101q0 49 -37 75.5t-106 26.5h-196zM127 71h234q95 0 150 37.5t55 102.5q0 52 -44 79.5t-117 27.5h-212zM352 0h-277q-19 0 -29 13q-6 8 -6 19q0 6 2 14l165 614q5 18 17 29t28 11h228q102 0 159.5 -44t57.5 -119q0 -72 -48.5 -120 t-126.5 -64q124 -38 124 -145q0 -92 -79 -150t-215 -58z" />
<glyph unicode="C" horiz-adv-x="735" d="M635 84q-106 -97 -252 -97q-127 0 -212.5 79t-85.5 211q0 112 56 212t153.5 161.5t210.5 61.5q158 0 239 -114q14 -18 14 -34q-1 -16 -12 -27.5t-28 -10.5q-21 0 -30 14q-33 47 -76.5 73t-113.5 26q-134 0 -232 -109t-98 -250q0 -100 61 -159.5t158 -59.5 q61 0 106.5 19.5t91.5 59.5q15 11 28 11q16 0 26.5 -11t10.5 -26t-15 -30z" />
<glyph unicode="D" horiz-adv-x="773" d="M129 73h148q179 0 289 110q88 88 88 218q0 98 -59 155q-71 71 -213 71h-104zM252 700h135q178 0 273 -93q76 -76 76 -201q0 -161 -110 -273q-133 -133 -359 -133h-192q-19 0 -29 13q-6 8 -6 19q0 6 2 14l165 614q5 18 17 29t28 11z" />
<glyph unicode="E" horiz-adv-x="653" d="M513 0h-438q-19 0 -29 13q-6 8 -6 19q0 6 2 14l165 614q5 18 17 29t28 11h425q15 0 25.5 -10.5t10.5 -25.5t-10.5 -25.5t-25.5 -10.5h-400l-64 -239h335q15 0 25.5 -11t10.5 -25q0 -15 -10.5 -25.5t-25.5 -10.5h-354l-66 -245h385q15 0 25.5 -10.5t10.5 -25.5 t-10.5 -25.5t-25.5 -10.5z" />
<glyph unicode="F" horiz-adv-x="658" d="M252 700h427q15 0 26 -10.5t11 -25.5t-11 -26t-26 -11h-402l-67 -250h337q15 0 26 -10.5t11 -25.5t-11 -25.5t-26 -10.5h-356l-72 -270q-5 -18 -18 -29t-28 -11q-18 0 -28 13q-6 8 -6 19q0 7 2 14l166 619q5 18 17 29t28 11z" />
<glyph unicode="G" horiz-adv-x="784" d="M721 327l-68 -236q-7 -30 -35 -46q-101 -58 -222 -58q-132 0 -221 80.5t-89 217.5q0 108 55.5 206t155.5 159.5t219 61.5q156 0 240 -97q15 -15 15 -33q0 -16 -10.5 -27.5t-27.5 -11.5q-15 0 -28 13q-69 84 -196 84q-94 0 -173 -51t-123 -132t-44 -169q0 -106 64 -167 t168 -61q102 0 181 49l55 194h-175q-15 0 -25.5 10.5t-10.5 24.5q0 15 10.5 25.5t25.5 10.5h225q19 0 29 -14q7 -9 7 -20q0 -6 -2 -13z" />
<glyph unicode="H" horiz-adv-x="756" d="M764 656l-168 -623q-10 -38 -43 -38q-19 0 -29 13q-6 9 -6 21q0 7 2 15l73 271h-399l-76 -282q-11 -38 -44 -38q-19 0 -29 13q-6 9 -6 21q0 7 2 15l168 623q9 38 43 38q19 0 29 -13q6 -9 6 -21q0 -7 -2 -15l-71 -267h399l74 278q11 38 44 38q19 0 29 -13q6 -9 6 -21 q0 -7 -2 -15z" />
<glyph unicode="I" horiz-adv-x="291" d="M292 656l-167 -623q-11 -38 -44 -38q-19 0 -29 13q-6 9 -6 21q0 7 2 15l168 623q10 38 43 38q19 0 29 -13q6 -9 6 -21q0 -7 -2 -15z" />
<glyph unicode="J" horiz-adv-x="548" d="M572 656l-109 -409q-35 -128 -96 -189q-68 -68 -173 -68q-130 0 -190 116q-10 13 -10 29t11 26.5t26 10.5q21 0 33 -20q39 -89 131 -89q69 0 119 48q45 46 73 151l109 405q10 38 44 38q19 0 28 -13q6 -9 6 -20q0 -7 -2 -16z" />
<glyph unicode="K" horiz-adv-x="715" d="M157 179l-39 -146q-11 -38 -44 -38q-19 0 -29 13q-6 9 -6 21q0 7 2 15l168 623q9 38 43 38q19 0 29 -13q6 -9 6 -21q0 -7 -2 -15l-99 -372l496 406q17 15 33 15t26 -10.5t10 -25.5q0 -18 -16 -31l-308 -249l172 -329q8 -18 8 -28q0 -15 -12 -26t-27 -11q-29 0 -41 28 l-166 321z" />
<glyph unicode="L" horiz-adv-x="607" d="M481 0h-406q-19 0 -29 13q-6 8 -6 19q0 6 2 14l167 621q9 38 43 38q19 0 29 -13q6 -9 6 -21q0 -7 -2 -15l-156 -583h352q15 0 25.5 -11t10.5 -26t-10.5 -25.5t-25.5 -10.5z" />
<glyph unicode="M" horiz-adv-x="869" d="M838 703h4q21 0 30 -13q6 -8 6 -19q0 -8 -3 -18l-166 -620q-4 -18 -16.5 -28t-28.5 -10q-19 0 -28 13q-6 9 -6 20q0 7 2 16l137 512l-306 -322q-21 -23 -41 -23q-22 0 -33 26l-132 319l-140 -522q-10 -39 -44 -39q-19 0 -29 13q-5 9 -5 20q0 7 2 16l166 617q11 42 45 42 h3q28 0 41 -31l147 -366l341 369q25 28 54 28z" />
<glyph unicode="N" horiz-adv-x="786" d="M576 132l144 535q10 38 43 38q19 0 29 -13q5 -8 5 -19q0 -8 -3 -17l-167 -624q-10 -35 -40 -35h-2q-28 0 -43 31l-279 553l-147 -548q-11 -38 -43 -38q-19 0 -29 13q-5 9 -5 20q0 7 2 16l167 620q10 39 46 39h4q31 0 49 -35z" />
<glyph unicode="O" horiz-adv-x="842" d="M395 -13q-134 0 -220.5 87t-86.5 217q0 108 53 204.5t148 156.5t207 60q134 0 220.5 -87t86.5 -216q0 -108 -53 -205t-148 -157t-207 -60zM400 60q89 0 163.5 50t115.5 129.5t41 166.5q0 101 -63 167t-166 66q-89 0 -163.5 -50t-115.5 -129.5t-41 -166.5q0 -101 63 -167 t166 -66z" />
<glyph unicode="P" horiz-adv-x="667" d="M176 249l-58 -216q-11 -38 -44 -38q-19 0 -29 13q-6 9 -6 21q0 7 2 15l166 616q5 18 17 29t28 11h185q134 0 200 -65q50 -52 50 -130q0 -120 -94 -188t-251 -68h-166zM195 319h151q124 0 191.5 47.5t67.5 133.5q0 51 -32 83q-44 44 -139 44h-157z" />
<glyph unicode="Q" horiz-adv-x="842" d="M532 262l85 -105q103 105 103 249q0 101 -63 167t-166 66q-89 0 -163.5 -50t-115.5 -129.5t-41 -166.5q0 -101 63 -167t166 -66q89 0 162 51l-83 95q-16 20 -16 34q0 17 10.5 28t26.5 11q20 0 32 -17zM654 -4l-47 57q-98 -66 -212 -66q-134 0 -220.5 87t-86.5 217 q0 108 53 204.5t148 156.5t207 60q134 0 220.5 -87t86.5 -216q0 -88 -37 -170t-102 -143l45 -49q16 -18 16 -33t-10.5 -25.5t-27.5 -10.5q-20 0 -33 18z" />
<glyph unicode="R" horiz-adv-x="717" d="M182 272l-64 -239q-11 -38 -44 -38q-19 0 -29 13q-6 9 -6 21q0 7 2 15l166 616q5 18 17 29t28 11h218q131 0 197 -64q46 -48 46 -121q0 -88 -62 -152q-64 -64 -192 -83l120 -219q10 -17 10 -29q0 -16 -12 -26.5t-28 -10.5q-28 0 -42 26l-135 251h-190zM201 343h190 q135 0 199 64q42 44 42 102q0 47 -29 76q-42 42 -137 42h-188z" />
<glyph unicode="S" horiz-adv-x="637" d="M303 61q76 0 126.5 37t50.5 94q0 40 -31.5 68t-112.5 60q-103 41 -147.5 81.5t-44.5 105.5q0 87 72.5 145t185.5 58q129 0 221 -80q18 -14 18 -33q0 -16 -11.5 -27t-27.5 -11q-15 0 -28 10q-73 70 -179 70q-76 0 -122 -36.5t-46 -86.5q0 -41 34 -68t121 -61 q94 -36 137.5 -78t43.5 -107q0 -92 -76 -152t-189 -60q-165 0 -262 104q-15 15 -15 33q0 17 10.5 28.5t26.5 11.5q18 0 30 -14q84 -92 215 -92z" />
<glyph unicode="T" horiz-adv-x="616" d="M443 627l-159 -594q-11 -38 -44 -38q-19 0 -29 13q-6 9 -6 21q0 7 2 15l157 583h-193q-15 0 -26 10.5t-11 25.5t11 26t26 11h485q15 0 26 -11t11 -26t-11 -25.5t-26 -10.5h-213z" />
<glyph unicode="U" horiz-adv-x="758" d="M775 656l-100 -373q-36 -133 -110 -207q-87 -87 -218 -87q-122 0 -188.5 61.5t-66.5 162.5q0 55 15 109l92 345q9 38 43 38q19 0 29 -13q6 -9 6 -21q0 -7 -2 -15l-94 -355q-10 -42 -10 -79q0 -72 46.5 -116t136.5 -44q91 0 156 64q61 63 89 171l100 370q9 38 43 38 q19 0 29 -13q6 -9 6 -21q0 -7 -2 -15z" />
<glyph unicode="V" horiz-adv-x="717" d="M772 647l-432 -619q-24 -36 -55 -36h-4q-32 0 -39 37l-99 618q-3 9 -3 21q0 16 11.5 26.5t29.5 10.5q37 0 42 -38l84 -569l397 579q17 28 43 28q15 0 25 -8t10 -22q0 -15 -10 -28z" />
<glyph unicode="W" horiz-adv-x="1083" d="M1136 648l-391 -621q-21 -36 -51 -36h-4q-34 0 -36 38l-37 531l-323 -533q-22 -36 -51 -36h-4q-33 0 -36 38l-57 617q0 2 -0.5 10t-0.5 10q0 16 12 27.5t29 11.5q38 0 41 -37l44 -551l332 559q17 29 44 29h3q33 0 35 -32l35 -556l344 559q18 29 45 29q15 0 25 -9t10 -23 q0 -11 -8 -25z" />
<glyph unicode="X" horiz-adv-x="694" d="M422 351l156 -288q10 -17 10 -31q0 -15 -11 -26t-27 -11q-26 0 -39 27l-146 278l-283 -282q-23 -23 -41 -23q-14 0 -24 9.5t-10 24.5q0 19 15 32l304 301l-150 275q-10 17 -10 31q0 15 11 26t27 11q26 0 39 -27l142 -266l269 270q21 23 41 23q14 0 24 -9.5t10 -24.5 q0 -17 -15 -31z" />
<glyph unicode="Y" horiz-adv-x="663" d="M367 267l-62 -234q-11 -38 -44 -38q-19 0 -29 13q-6 9 -6 21q0 7 2 15l63 236l-155 358q-7 16 -7 29q0 16 11.5 27t29.5 11q27 0 40 -33l136 -326l321 337q22 22 43 22q15 0 24.5 -9t9.5 -24q0 -18 -16 -34z" />
<glyph unicode="Z" horiz-adv-x="669" d="M13 70l579 559h-386q-14 0 -24.5 10.5t-10.5 24.5q0 15 10.5 25.5t24.5 10.5h478q32 0 32 -29v-1q0 -19 -21 -40l-579 -559h404q15 0 25.5 -10.5t10.5 -24.5q0 -15 -10.5 -25.5t-25.5 -10.5h-496q-32 0 -32 29v1q0 19 21 40z" />
<glyph unicode="[" horiz-adv-x="439" d="M484 640h-196l-190 -710h180q12 0 21 -9t9 -21t-9 -21t-21 -9h-223q-19 0 -29 12q-7 9 -7 21q0 5 1 10l201 747q10 40 50 40h213q12 0 21 -9t9 -21t-9 -21t-21 -9z" />
<glyph unicode="\" horiz-adv-x="508" d="M211 771l201 -851q3 -21 3 -22q0 -13 -9 -22t-22 -9q-27 0 -33 32l-201 851q-3 21 -3 22q0 13 9 22t22 9q27 0 33 -32z" />
<glyph unicode="]" horiz-adv-x="439" d="M182 -130h-213q-13 0 -21.5 9t-8.5 21t8.5 21t21.5 9h196l190 710h-180q-12 0 -21 9t-9 21t9 21t21 9h223q19 0 29 -12q7 -9 7 -20q0 -5 -2 -11l-200 -747q-10 -40 -50 -40z" />
<glyph unicode="^" d="M151 526l156 155q27 25 48 25h5q26 0 39 -26l75 -157q5 -13 5 -19q0 -15 -21 -15q-17 0 -25.5 5t-17.5 21l-65 132l-138 -133q-26 -25 -52 -25q-20 0 -20 16q0 11 11 21z" />
<glyph unicode="_" horiz-adv-x="600" d="M-105 -160q-13 0 -22.5 9.5t-9.5 22.5t9.5 22t22.5 9h604q13 0 22.5 -9t9.5 -22q0 -14 -9.5 -23t-22.5 -9h-604z" />
<glyph unicode="`" d="M351 609l-57 74q-9 13 -9 20q0 11 17 21t35 10q26 0 34 -24l35 -89q0 -1 1.5 -6t1.5 -8q0 -16 -22 -16t-36 18z" />
<glyph unicode="a" horiz-adv-x="576" d="M207 49q67 0 126 43.5t77 110.5l10 36q-80 23 -168 23q-69 0 -112 -34t-43 -87q0 -41 30 -66.5t80 -25.5zM395 -5q-19 0 -26.5 11t-5.5 28l13 47q-80 -92 -193 -92q-69 0 -116.5 38.5t-47.5 104.5q0 86 64 136.5t166 50.5q84 0 184 -28l3 12q7 26 7 48q0 105 -140 105 q-57 0 -119 -18q-8 -3 -16 -3q-13 0 -22 9t-9 23q0 25 26 33q73 24 152 24q97 0 150 -42.5t53 -117.5q0 -33 -11 -71l-69 -260q-10 -38 -43 -38z" />
<glyph unicode="b" horiz-adv-x="659" d="M319 -12q-139 0 -194 128l-22 -83q-10 -38 -43 -38q-18 0 -27 13q-6 9 -6 21q0 7 2 14l175 654q11 38 43 38q19 0 27 -13q6 -8 6 -20q0 -7 -2 -15l-70 -259q88 100 196 100q89 0 147 -60.5t58 -158.5q0 -135 -87 -228t-203 -93zM312 56q91 0 153.5 73t62.5 173 q0 72 -40 115t-106 43q-87 0 -158.5 -74.5t-71.5 -168.5q0 -68 45 -114.5t115 -46.5z" />
<glyph unicode="c" horiz-adv-x="562" d="M463 59q-84 -71 -186 -71q-95 0 -162 61.5t-67 164.5q0 127 90.5 220.5t213.5 93.5q122 0 186 -91q13 -15 13 -31q0 -14 -10.5 -24.5t-25.5 -10.5q-19 0 -31 15q-50 74 -137 74q-88 0 -154 -73.5t-66 -170.5q0 -73 45 -116.5t109 -43.5q71 0 136 54q12 9 26 9t23 -9.5 t9 -23.5q0 -15 -12 -27z" />
<glyph unicode="d" horiz-adv-x="659" d="M277 56q87 0 158.5 75t71.5 169q0 68 -45 114t-115 46q-91 0 -153.5 -73t-62.5 -173q0 -71 40.5 -114.5t105.5 -43.5zM469 -5q-17 0 -26 10.5t-7 27.5l14 55q-88 -100 -195 -100q-89 0 -147 61t-58 158q0 135 87 228t203 93q141 0 194 -128l79 297q11 38 43 38 q19 0 28 -13q5 -8 5 -20q0 -7 -2 -15l-174 -654q-11 -38 -44 -38z" />
<glyph unicode="e" horiz-adv-x="589" d="M136 290h333q5 15 5 40q0 57 -33 95t-96 38q-74 0 -130.5 -49.5t-78.5 -123.5zM281 55q80 0 140 48q14 8 26 8q13 0 22 -8.5t9 -22.5q0 -16 -15 -28q-80 -64 -186 -64q-103 0 -166 61t-63 159q0 123 87.5 221.5t213.5 98.5q94 0 147 -56.5t53 -141.5q0 -28 -7 -63 q-8 -35 -42 -35h-374q0 -4 -0.5 -12.5t-0.5 -12.5q1 -69 43.5 -110.5t112.5 -41.5z" />
<glyph unicode="f" horiz-adv-x="375" d="M244 449l-112 -416q-10 -38 -43 -38q-18 0 -27 13q-6 9 -6 21q0 7 2 14l109 406h-35q-13 1 -22.5 10.5t-9.5 23.5t10 24t24 10h51l17 62q40 153 177 153q39 0 73 -12q28 -9 28 -34q0 -18 -12.5 -28t-29.5 -4q-28 11 -59 11q-78 0 -104 -98l-13 -50h129q14 0 24 -10 t10 -24t-10 -24t-24 -10h-147z" />
<glyph unicode="g" horiz-adv-x="659" d="M287 106q87 0 154 64t67 144q0 60 -43.5 103t-115.5 43q-85 0 -149 -62t-64 -153q0 -66 44 -102.5t107 -36.5zM535 404l21 80q10 38 43 38q18 0 27 -14q6 -8 6 -20q0 -7 -2 -14l-106 -400q-30 -109 -84 -163q-73 -73 -200 -73t-228 72q-19 13 -19 33q0 14 9.5 24t24.5 10 q13 0 26 -8q86 -65 186 -65q94 0 145 53q41 40 65 124l14 52q-91 -93 -198 -93q-86 0 -148 53t-62 142q0 125 88.5 209t201.5 84q132 0 190 -124z" />
<glyph unicode="h" horiz-adv-x="613" d="M542 288l-68 -255q-10 -38 -42 -38q-19 0 -28 13q-5 9 -5 19q0 8 2 16l66 250q8 27 8 58q0 51 -31 79.5t-85 28.5q-60 0 -113.5 -47t-73.5 -120l-69 -259q-9 -38 -43 -38q-18 0 -27 13q-6 9 -6 21q0 7 2 14l175 654q11 38 43 38q19 0 27 -13q6 -8 6 -20q0 -7 -2 -15 l-68 -254q84 95 180 95q75 0 120 -43.5t45 -116.5q0 -30 -13 -80z" />
<glyph unicode="i" horiz-adv-x="264" d="M286 661q-9 -36 -51 -36q-20 0 -31.5 11.5t-7.5 27.5l5 21q10 35 51 35q20 0 32 -11q8 -8 8 -20q0 -4 -1 -8zM228 474l-118 -441q-11 -38 -43 -38q-19 0 -27 13q-6 8 -6 20q0 7 2 15l118 441q11 38 43 38q19 0 28 -14q5 -8 5 -18q0 -8 -2 -16z" />
<glyph unicode="j" horiz-adv-x="263" d="M228 474l-136 -508q-36 -129 -142 -129q-68 0 -68 36q0 16 10.5 25.5t26.5 7.5q18 -3 29 -3q50 0 69 69l137 512q11 38 43 38q19 0 28 -14q5 -8 5 -18q0 -8 -2 -16zM286 661q-9 -36 -51 -36q-20 0 -31 11q-9 9 -9 20q0 4 1 8l5 21q10 35 51 35q20 0 32 -11q8 -8 8 -20 q0 -4 -1 -8z" />
<glyph unicode="k" horiz-adv-x="568" d="M278 687l-122 -457l348 278q16 14 31 14q14 0 23 -9t9 -23q0 -17 -16 -28l-217 -171l118 -232q9 -18 9 -28q0 -16 -11.5 -26t-27.5 -10q-26 0 -40 28l-113 220l-139 -110l-27 -100q-9 -38 -43 -38q-18 0 -27 13q-6 9 -6 21q0 7 2 14l176 654q9 38 42 38q19 0 28 -13 q5 -9 5 -19q0 -8 -2 -16z" />
<glyph unicode="l" horiz-adv-x="264" d="M285 687l-175 -654q-11 -38 -43 -38q-19 0 -27 13q-6 8 -6 20q0 7 2 15l175 654q11 38 43 38q19 0 28 -13q5 -9 5 -19q0 -8 -2 -16z" />
<glyph unicode="m" horiz-adv-x="950" d="M385 43l66 250q8 27 8 58q0 50 -29 79t-79 29q-57 0 -108.5 -47.5t-70.5 -119.5l-69 -259q-9 -38 -43 -38q-18 0 -27 13q-6 9 -6 21q0 7 2 14l118 441q9 38 43 38q17 0 26 -11t7 -27l-13 -51q41 46 80.5 70.5t91.5 24.5q61 0 98 -33.5t49 -83.5q76 117 208 117 q70 0 114 -44t44 -116q0 -17 -14 -80l-68 -255q-9 -38 -43 -38q-18 0 -27 13q-6 9 -6 21q0 7 2 14l67 250q7 30 7 58q0 50 -28.5 79t-78.5 29q-57 0 -108.5 -47.5t-70.5 -119.5l-69 -259q-10 -38 -42 -38q-19 0 -28 13q-5 9 -5 19q0 8 2 16z" />
<glyph unicode="n" horiz-adv-x="613" d="M190 522q17 0 26 -11t7 -27l-13 -51q84 95 180 95q75 0 120 -43.5t45 -116.5q0 -30 -13 -80l-68 -255q-10 -38 -42 -38q-19 0 -28 13q-5 9 -5 19q0 8 2 16l66 250q8 27 8 58q0 51 -31 79.5t-85 28.5q-60 0 -113.5 -47t-73.5 -120l-69 -259q-9 -38 -43 -38q-18 0 -27 13 q-6 9 -6 21q0 7 2 14l118 441q9 38 43 38z" />
<glyph unicode="o" horiz-adv-x="638" d="M284 -12q-105 0 -170 65t-65 167q0 122 90.5 215t213.5 93q106 0 171 -65t65 -166q0 -124 -91.5 -216.5t-213.5 -92.5zM289 57q87 0 154 72.5t67 164.5q0 78 -44.5 122t-117.5 44q-88 0 -154.5 -73.5t-66.5 -164.5q0 -77 44.5 -121t117.5 -44z" />
<glyph unicode="p" horiz-adv-x="659" d="M382 460q-87 0 -158.5 -74.5t-71.5 -168.5q0 -68 45 -114.5t115 -46.5q91 0 153.5 73t62.5 173q0 72 -40 115t-106 43zM190 522q17 0 26 -10.5t7 -27.5l-15 -56q88 100 196 100q89 0 147 -60.5t58 -158.5q0 -135 -87 -228t-203 -93q-139 0 -194 128l-65 -243 q-10 -38 -43 -38q-18 0 -27 13q-6 9 -6 21q0 7 2 14l161 601q9 38 43 38z" />
<glyph unicode="q" horiz-adv-x="659" d="M340 528q74 0 122.5 -35.5t71.5 -91.5l22 83q10 38 43 38q18 0 27 -14q6 -8 6 -20q0 -7 -2 -14l-160 -601q-11 -38 -43 -38q-19 0 -27 13q-6 8 -6 20q0 7 2 15l55 206q-90 -101 -196 -101q-89 0 -147 61t-58 158q0 135 87 228t203 93zM347 460q-91 0 -153.5 -73 t-62.5 -173q0 -71 40.5 -114.5t105.5 -43.5q87 0 158.5 75t71.5 169q0 68 -45 114t-115 46z" />
<glyph unicode="r" horiz-adv-x="402" d="M221 477l-24 -92q41 64 96 101.5t107 37.5q17 0 27 -9.5t10 -26.5q0 -36 -44 -43q-83 -12 -149.5 -74t-94.5 -167l-46 -171q-11 -38 -43 -38q-19 0 -28 13q-5 8 -5 20q0 7 2 15l118 441q9 38 42 38q19 0 28 -12q6 -9 6 -20q0 -6 -2 -13z" />
<glyph unicode="s" horiz-adv-x="496" d="M224 53q46 0 80 24t34 62q0 26 -21.5 46.5t-76.5 41.5q-76 30 -111 60.5t-35 81.5q0 68 54 113.5t142 45.5q45 0 91 -16t76 -37q19 -11 19 -32q0 -14 -10 -24t-24 -10q-10 0 -22 8q-70 47 -137 47q-52 0 -82 -24t-30 -58q0 -26 21.5 -45.5t81.5 -42.5q74 -30 107.5 -62 t33.5 -80q0 -71 -57 -117t-141 -46q-113 0 -201 70q-16 13 -16 31q0 14 10 24.5t23 10.5q12 0 27 -11q75 -61 164 -61z" />
<glyph unicode="t" horiz-adv-x="401" d="M183 517l33 123q10 38 43 38q18 0 27 -14q6 -8 6 -20q0 -6 -2 -14l-31 -113h124q14 0 23.5 -10t9.5 -24t-9.5 -24t-23.5 -10h-142l-80 -298q-4 -24 -4 -38q0 -53 71 -53q20 0 33 4q16 4 26.5 -4t10.5 -24q0 -22 -25 -34q-31 -11 -70 -11q-58 0 -92.5 26.5t-34.5 75.5 q0 26 7 54l81 302h-35q-13 1 -22.5 10.5t-9.5 23.5t10 24t24 10h52z" />
<glyph unicode="u" horiz-adv-x="613" d="M422 -5q-16 0 -25 11t-7 27l13 51q-84 -95 -181 -95q-75 0 -119.5 43.5t-44.5 116.5q0 30 13 80l67 255q11 38 43 38q19 0 27 -13q6 -8 6 -20q0 -7 -2 -15l-67 -250q-7 -30 -7 -58q0 -51 30.5 -79.5t84.5 -28.5q61 0 114.5 47.5t72.5 120.5l69 258q11 38 43 38 q19 0 28 -14q5 -8 5 -18q0 -8 -2 -16l-117 -441q-10 -38 -44 -38z" />
<glyph unicode="v" horiz-adv-x="566" d="M568 464l-310 -440q-22 -32 -50 -32h-2q-34 0 -39 34l-74 435q-3 9 -3 23q0 16 11.5 27t28.5 11t27 -10t12 -27l58 -397l274 406q17 28 42 28q15 0 24 -9t9 -22q0 -16 -8 -27z" />
<glyph unicode="w" horiz-adv-x="848" d="M135 31l-38 432q0 2 -0.5 9.5t-0.5 10.5q0 16 11.5 27.5t28.5 11.5q36 0 38 -37l27 -380l234 387q19 30 45 30h3q32 0 34 -33l27 -384l239 391q15 26 38 26q32 0 32 -30q0 -13 -8 -25l-276 -443q-21 -32 -48 -32h-2q-35 0 -38 39l-28 373l-232 -380q-19 -32 -48 -32h-2 q-34 0 -36 39z" />
<glyph unicode="x" horiz-adv-x="564" d="M201 494l93 -177l190 183q22 22 40 22q14 0 23 -9t9 -22q0 -19 -18 -35l-210 -194l111 -200q10 -20 10 -32q0 -15 -10.5 -25t-26.5 -10q-25 0 -38 28l-99 190l-203 -196q-24 -22 -41 -22q-13 0 -22 9t-9 22q0 18 18 35l224 207l-106 187q-10 18 -10 32q0 15 10.5 25 t26.5 10q23 0 38 -28z" />
<glyph unicode="y" horiz-adv-x="574" d="M-17 -79q35 -16 65 -16q65 0 133 96l-87 460q-3 11 -3 23q0 16 11 27t27 11t26.5 -10t12.5 -27l71 -400l267 409q16 28 41 28q16 0 25 -9t9 -23q0 -13 -9 -28l-322 -479q-54 -79 -103.5 -112.5t-107.5 -33.5q-46 0 -86 20q-23 11 -23 34q0 15 9.5 25t23.5 10q8 0 20 -5z " />
<glyph unicode="z" horiz-adv-x="549" d="M152 517h367q34 0 34 -28v-1q0 -19 -17 -33l-428 -390h300q13 0 23 -9.5t10 -22.5t-9.5 -23t-23.5 -10h-383q-34 0 -34 28v1q0 18 17 33l427 390h-283q-14 0 -23.5 9.5t-9.5 22.5q0 14 9.5 23.5t23.5 9.5z" />
<glyph unicode="{" horiz-adv-x="483" d="M95 317h10q74 0 107.5 38.5t51.5 136.5q19 106 75.5 159t174.5 63h4q30 0 30 -27q0 -26 -27 -29q-90 -9 -130.5 -51t-55.5 -128q-18 -103 -52.5 -144.5t-103.5 -52.5q73 -18 73 -84q0 -30 -11 -63q-21 -63 -21 -103q0 -85 90 -116q21 -9 21 -27q0 -14 -11 -22 q-6 -5 -16 -5q-5 0 -10 1q-149 38 -149 159q0 37 23 111q10 31 10 59q0 32 -18.5 48t-62.5 17h-1q-35 4 -35 30q0 13 9.5 21.5t24.5 8.5z" />
<glyph unicode="|" horiz-adv-x="303" d="M139 -100v870q0 14 9.5 23.5t22.5 9.5t22.5 -9.5t9.5 -23.5v-870q0 -14 -9.5 -23.5t-22.5 -9.5t-22.5 9.5t-9.5 23.5z" />
<glyph unicode="}" horiz-adv-x="483" d="M403 257h-10q-74 0 -108 -38t-52 -137q-18 -106 -74.5 -159t-174.5 -63h-4q-30 0 -30 27q0 26 27 29q90 9 130.5 51t55.5 128q18 103 52.5 144.5t103.5 52.5q-74 18 -74 84q0 27 12 63q21 70 21 103q0 85 -90 116q-22 9 -22 27q0 14 10 22q7 5 17 5q5 0 11 -1 q148 -38 148 -159q0 -35 -22 -111q-11 -35 -11 -59q0 -31 19 -47t63 -18h1q35 -4 35 -30q0 -13 -9.5 -21.5t-24.5 -8.5z" />
<glyph unicode="~" horiz-adv-x="474" d="M110 237q-10 0 -18 6.5t-8 17.5q0 12 7 23q46 82 105 82q34 0 70 -33q19 -18 28 -23.5t21 -5.5q24 0 53 43q12 18 26 18q11 0 19 -6.5t8 -17.5t-7 -24q-48 -81 -105 -81q-15 0 -27.5 4.5t-20.5 10.5t-22 18q-32 29 -49 29q-24 0 -53 -44q-11 -17 -27 -17z" />
<glyph unicode="&#xa1;" horiz-adv-x="271" d="M30 31l144 455q7 20 24 20q21 0 21 -19q0 -4 -1 -9l-100 -451q-5 -30 -35 -30h-30q-15 0 -21 9q-4 6 -4 13q0 5 2 12zM230 590q-21 0 -34 14q-8 9 -8 22q0 6 2 12l7 25q5 19 19 30.5t34 11.5q21 0 33 -14q8 -10 8 -23q0 -5 -1 -11l-7 -25q-11 -42 -53 -42z" />
<glyph unicode="&#xa2;" horiz-adv-x="566" d="M501 152q-82 -68 -193 -68q-16 0 -46 4l-27 -68q-13 -31 -36 -31q-16 0 -23.5 12.5t-1.5 28.5l29 75q-60 27 -95 80.5t-35 123.5q0 130 90 223t218 93q18 0 27 -1l21 56q13 31 36 31q16 0 24 -12t1 -29l-23 -58q71 -20 111 -80q12 -16 12 -29q0 -15 -10.5 -25.5 t-25.5 -10.5q-19 0 -30 14q-18 26 -36.5 41t-49.5 24l-154 -391q8 -2 26 -2q78 0 148 53q13 8 26 8q14 0 23 -10t9 -24q0 -17 -15 -28zM151 310q0 -47 21.5 -83.5t59.5 -55.5l151 385h-10q-92 -2 -157 -75t-65 -171z" />
<glyph unicode="&#xa3;" horiz-adv-x="629" d="M453 635q-63 0 -107 -44q-41 -41 -62 -120l-29 -107h240q14 0 24.5 -10.5t10.5 -24.5t-10.5 -24t-24.5 -10h-259l-60 -225h314q15 0 25.5 -10.5t10.5 -24.5q0 -15 -10.5 -25t-25.5 -10h-466q-11 0 -18.5 7t-7.5 18q0 20 22 26l77 17l61 227h-44q-14 0 -24.5 10t-10.5 24 t10.5 24.5t24.5 10.5h62l33 121q27 103 80 154q67 69 169 69q106 0 169 -77q16 -18 16 -33q0 -17 -11 -28.5t-28 -11.5q-18 0 -29 14q-49 63 -122 63z" />
<glyph unicode="&#xa5;" horiz-adv-x="703" d="M372 356l314 327q22 22 39 22q15 0 24 -9t9 -24t-15 -34l-306 -310h139q13 0 22 -9t9 -22t-9 -22t-22 -9h-188l-23 -88h171q13 0 22 -9t9 -22t-9 -22t-22 -9h-188l-22 -83q-10 -38 -42 -38q-19 0 -29 13q-6 8 -6 20q0 7 2 15l20 73h-168q-13 0 -22.5 9t-9.5 22t9.5 22 t22.5 9h184l23 88h-168q-12 0 -21.5 9t-9.5 22t9.5 22t21.5 9h159l-136 311q-7 16 -7 28q0 16 11 27t28 11q29 0 40 -30z" />
<glyph unicode="&#xa7;" horiz-adv-x="632" d="M394 257q52 0 88 23t36 55q0 27 -27.5 47t-92.5 41q-64 21 -113 21q-52 0 -88 -23t-36 -55q0 -27 27.5 -47t92.5 -41q60 -21 113 -21zM294 54q46 0 77 18.5t31 48.5q0 27 -29 46.5t-100 43.5q-98 33 -143 64.5t-45 80.5q0 55 50 90t131 39q-66 36 -66 93q0 60 55.5 96.5 t138.5 36.5q112 0 199 -64q17 -12 17 -31q0 -15 -10 -25.5t-25 -10.5q-12 0 -23 9q-77 58 -166 58q-47 0 -78 -18.5t-31 -48.5q0 -27 29.5 -47t99.5 -43q98 -33 143 -64.5t45 -80.5q0 -55 -50 -90t-131 -39q66 -35 66 -93q0 -59 -55.5 -96t-136.5 -37q-121 0 -208 68 q-15 13 -15 30q0 15 10 25.5t24 10.5q12 0 25 -9q76 -61 171 -61z" />
<glyph unicode="&#xa8;" d="M266 697q20 0 32 -13q8 -9 8 -21q0 -5 -1 -10l-7 -25q-10 -39 -52 -39q-20 0 -32 13q-8 9 -8 22q0 4 1 9l7 25q10 39 52 39zM443 697q20 0 32 -13q8 -9 8 -21q0 -5 -1 -10l-7 -25q-10 -39 -52 -39q-20 0 -31 13q-9 9 -9 22q0 4 1 9l7 25q10 39 52 39z" />
<glyph unicode="&#xa9;" horiz-adv-x="830" d="M438 -12q-151 0 -256 106t-105 255t106 256t257 107t256 -106t105 -255t-106 -256t-257 -107zM438 19q140 0 235 97t95 235t-94.5 234t-233.5 96q-140 0 -235 -97t-95 -235t94.5 -234t233.5 -96zM443 163q-79 0 -132.5 56t-53.5 135v2q0 79 54 135t133 56q75 0 130 -47 q11 -9 11 -23q0 -11 -8 -19t-19 -8q-7 0 -19 8q-46 39 -95 39q-56 0 -93.5 -41t-37.5 -99v-2q0 -58 38.5 -99.5t92.5 -41.5t100 40q7 7 18 7t18 -7t7 -17t-9 -21q-58 -53 -135 -53z" />
<glyph unicode="&#xaa;" horiz-adv-x="390" d="M207 446q35 0 67.5 24.5t41.5 58.5l4 13q-40 11 -81 11q-36 0 -58.5 -18t-22.5 -46q0 -19 13.5 -31t35.5 -12zM262 658q-34 0 -59 -9q-12 -3 -16 -3q-20 0 -20 22q0 16 19 22q38 14 86 14q54 0 83.5 -23.5t29.5 -65.5q0 -14 -6 -40l-38 -140q-7 -26 -29 -26 q-12 0 -17.5 8t-3.5 19l6 23q-47 -52 -107 -52q-37 0 -61 21t-24 55q0 49 36.5 78t93.5 29q37 0 93 -15l2 6q4 14 4 24q0 53 -72 53zM79 289q-10 0 -17 6.5t-7 16.5t7 17t17 7h217q9 0 16 -7t7 -17t-7 -16.5t-16 -6.5h-217z" />
<glyph unicode="&#xab;" horiz-adv-x="550" d="M59 272l185 179q20 20 36 20q14 0 22 -8.5t8 -22.5q0 -16 -12 -26l-169 -167l71 -152q6 -13 6 -23q0 -13 -10 -22.5t-24 -9.5q-22 0 -33 22l-82 166q-8 16 -8 23q0 11 10 21zM281 272l185 179q20 20 35 20q31 0 31 -31q0 -14 -12 -26l-169 -167l71 -152q6 -13 6 -23 q0 -13 -10 -22.5t-24 -9.5q-22 0 -33 22l-83 166q-8 16 -8 23q0 10 11 21z" />
<glyph unicode="&#xad;" horiz-adv-x="410" d="M320 260h-208q-16 0 -28 12t-12 29q0 16 12 28t28 12h208q16 0 28 -12t12 -28q0 -17 -12 -29t-28 -12z" />
<glyph unicode="&#xae;" horiz-adv-x="403" d="M277 360q-73 0 -123.5 51t-50.5 123v1q0 72 51 123.5t123 51.5q73 0 123.5 -51t50.5 -123v-1q0 -72 -51 -123.5t-123 -51.5zM277 379q65 0 109.5 46t44.5 110v1q0 64 -44.5 109.5t-109.5 45.5t-109.5 -46t-44.5 -110v-1q0 -64 44.5 -109.5t109.5 -45.5zM209 464v146 q0 7 5 12t12 5h63q30 0 49 -14.5t19 -41.5q0 -40 -39 -55l34 -40q5 -6 5 -13t-4.5 -12t-11.5 -5q-9 0 -16 9l-46 56h-36v-47q0 -7 -5 -12.5t-12 -5.5q-17 0 -17 18zM243 539h43q36 0 36 29t-36 29h-43v-58z" />
<glyph unicode="&#xaf;" d="M487 615h-265q-13 0 -22.5 9.5t-9.5 22.5t9.5 22.5t22.5 9.5h265q13 0 22.5 -9.5t9.5 -22.5t-9.5 -22.5t-22.5 -9.5z" />
<glyph unicode="&#xb0;" horiz-adv-x="387" d="M223 398q-60 0 -97.5 38t-37.5 96q0 70 51 122t122 52q60 0 97.5 -37.5t37.5 -95.5q0 -70 -51 -122.5t-122 -52.5zM228 450q45 0 78 36t33 82q0 39 -23 62.5t-60 23.5q-45 0 -78 -36t-33 -82q0 -39 23 -62.5t60 -23.5z" />
<glyph unicode="&#xb1;" horiz-adv-x="625" d="M378 364l-43 -162q-11 -37 -42 -37q-18 0 -27 13q-4 8 -4 18q0 7 2 15l41 153h-159q-14 0 -24.5 10.5t-10.5 24.5t10.5 24.5t24.5 10.5h178l43 162q10 37 41 37q18 0 26 -13q6 -8 6 -19q0 -6 -2 -13l-41 -154h158q15 0 25 -10t10 -24q0 -15 -10 -25.5t-25 -10.5h-177z M458 0h-409q-14 0 -24.5 10.5t-10.5 24.5t10.5 24t24.5 10h409q14 0 24.5 -10t10.5 -24t-10.5 -24.5t-24.5 -10.5z" />
<glyph unicode="&#xb2;" horiz-adv-x="595" d="M453 0h-429q-40 0 -40 34q0 22 19 35l392 297q61 46 89 84t28 81q0 48 -35.5 77.5t-97.5 29.5q-89 0 -172 -77q-16 -14 -30 -14q-15 0 -25.5 10t-10.5 25q0 18 15 31q106 97 226 97q94 0 153 -48.5t59 -125.5q0 -60 -36 -110.5t-114 -108.5l-323 -245h332 q16 0 26.5 -10.5t10.5 -25.5t-10.5 -25.5t-26.5 -10.5z" />
<glyph unicode="&#xb3;" horiz-adv-x="605" d="M22 94q-12 15 -12 30q0 16 11.5 27t26.5 11t29 -16q60 -86 175 -86q83 0 138 44t55 111q0 59 -48 89t-133 30h-11q-33 0 -33 29q0 15 16 28l269 238h-303q-15 0 -25.5 10t-10.5 25t10.5 25.5t25.5 10.5h392q36 0 36 -30q0 -20 -24 -39l-271 -238q84 -7 138 -51.5 t54 -120.5q0 -100 -81.5 -166.5t-197.5 -66.5q-155 0 -226 106z" />
<glyph unicode="&#xb4;" d="M427 682l-97 -72q-23 -19 -51 -19q-22 0 -22 15q0 7 7 16l85 92q21 21 37 21q18 0 36.5 -10.5t18.5 -20.5q0 -11 -14 -22z" />
<glyph unicode="&#xb6;" horiz-adv-x="517" d="M525 657l-168 -624q-9 -38 -44 -38q-19 0 -29 13q-6 9 -6 21q0 7 2 15l54 205q-107 5 -171.5 51.5t-64.5 139.5q0 120 88 190t245 70h61q19 0 28 -12q6 -8 6 -20q0 -5 -1 -11z" />
<glyph unicode="&#xb7;" horiz-adv-x="255" d="M147 358q21 0 33 -14q9 -9 9 -22q0 -6 -2 -12l-7 -25q-5 -19 -19 -30.5t-34 -11.5q-21 0 -33 14q-8 10 -8 23q0 5 1 11l7 25q11 42 53 42z" />
<glyph unicode="&#xb8;" d="M249 10l-104 -142q-11 -17 -29 -17q-15 0 -26.5 9.5t-11.5 20.5q0 13 11 25l99 104h61z" />
<glyph unicode="&#xb9;" horiz-adv-x="361" d="M351 665l-170 -632q-9 -38 -43 -38q-19 0 -29 13q-6 9 -6 21q0 7 2 15l155 577l-103 -32q-7 -3 -16 -3q-13 0 -22 9.5t-9 24.5q0 27 28 35l138 44q27 9 45 9h1q18 0 26 -12q5 -7 5 -17q0 -7 -2 -14z" />
<glyph unicode="&#xba;" horiz-adv-x="393" d="M245 405q-59 0 -96 36.5t-37 94.5q0 68 49.5 118.5t118.5 50.5q59 0 96 -37t37 -94q0 -68 -49.5 -118.5t-118.5 -50.5zM248 451q46 0 79 37t33 84q0 39 -23 63t-60 24q-46 0 -79 -36.5t-33 -84.5q0 -39 23 -63t60 -24zM81 289q-10 0 -17 6.5t-7 16.5t7 17t17 7h236 q10 0 17 -7t7 -17t-7 -16.5t-17 -6.5h-236z" />
<glyph unicode="&#xbb;" horiz-adv-x="550" d="M489 242l-185 -180q-20 -20 -36 -20q-13 0 -21.5 8.5t-8.5 22.5q0 17 12 27l169 166l-71 152q-6 14 -6 23q0 14 10 23.5t24 9.5q22 0 33 -23l82 -165q8 -13 8 -23q0 -12 -10 -21zM267 242l-185 -180q-20 -20 -35 -20q-14 0 -22.5 8.5t-8.5 22.5q0 15 12 27l169 166 l-71 152q-6 14 -6 23q0 14 10 23.5t24 9.5q22 0 33 -23l83 -165q8 -16 8 -23q0 -12 -11 -21z" />
<glyph unicode="&#xbc;" horiz-adv-x="1552" d="M1032 232h288l96 357zM1378 166l-35 -133q-11 -38 -43 -38q-18 0 -27 13q-6 9 -6 20q0 7 2 16l33 122h-338q-41 0 -41 32q0 21 21 42l481 445q28 25 55 25q19 0 28 -12q6 -9 6 -19q0 -6 -2 -13l-116 -434h70q14 0 24 -9.5t10 -23.5t-10 -23.5t-24 -9.5h-88zM996 705 l-638 -784q-19 -24 -37 -24q-12 0 -20 7.5t-8 20.5q0 15 13 30l638 784q19 24 37 24q12 0 20 -7.5t8 -20.5q0 -15 -13 -30zM351 665l-170 -632q-9 -38 -43 -38q-19 0 -29 13q-6 9 -6 21q0 7 2 15l155 577l-103 -32q-7 -3 -16 -3q-13 0 -22 9.5t-9 24.5q0 27 28 35l138 44 q27 9 45 9h1q18 0 26 -12q5 -7 5 -17q0 -7 -2 -14z" />
<glyph unicode="&#xbd;" horiz-adv-x="1498" d="M1356 0h-429q-40 0 -40 34q0 22 19 35l392 297q61 46 89 84t28 81q0 48 -35.5 77.5t-97.5 29.5q-89 0 -172 -77q-16 -14 -30 -14q-15 0 -25.5 10t-10.5 25q0 18 15 31q106 97 226 97q94 0 153 -48.5t59 -125.5q0 -60 -36 -110.5t-114 -108.5l-323 -245h332 q16 0 26.5 -10.5t10.5 -25.5t-10.5 -25.5t-26.5 -10.5zM996 705l-638 -784q-19 -24 -37 -24q-12 0 -20 7.5t-8 20.5q0 15 13 30l638 784q19 24 37 24q12 0 20 -7.5t8 -20.5q0 -15 -13 -30zM351 665l-170 -632q-9 -38 -43 -38q-19 0 -29 13q-6 9 -6 21q0 7 2 15l155 577 l-103 -32q-7 -3 -16 -3q-13 0 -22 9.5t-9 24.5q0 27 28 35l138 44q27 9 45 9h1q18 0 26 -12q5 -7 5 -17q0 -7 -2 -14z" />
<glyph unicode="&#xbe;" horiz-adv-x="1796" d="M1276 232h288l96 357zM1622 166l-35 -133q-11 -38 -43 -38q-18 0 -27 13q-6 9 -6 20q0 7 2 16l33 122h-338q-41 0 -41 32q0 21 21 42l481 445q28 25 55 25q19 0 28 -12q6 -9 6 -19q0 -6 -2 -13l-116 -434h70q14 0 24 -9.5t10 -23.5t-10 -23.5t-24 -9.5h-88zM1240 705 l-638 -784q-19 -24 -37 -24q-12 0 -20 7.5t-8 20.5q0 15 13 30l638 784q19 24 37 24q12 0 20 -7.5t8 -20.5q0 -15 -13 -30zM22 94q-12 15 -12 30q0 16 11.5 27t26.5 11t29 -16q60 -86 175 -86q83 0 138 44t55 111q0 59 -48 89t-133 30h-11q-33 0 -33 29q0 15 16 28l269 238 h-303q-15 0 -25.5 10t-10.5 25t10.5 25.5t25.5 10.5h392q36 0 36 -30q0 -20 -24 -39l-271 -238q84 -7 138 -51.5t54 -120.5q0 -100 -81.5 -166.5t-197.5 -66.5q-155 0 -226 106z" />
<glyph unicode="&#xbf;" horiz-adv-x="537" d="M422 127q18 12 30 12q14 0 23.5 -9.5t9.5 -22.5q0 -17 -15 -30q-96 -86 -219 -86q-94 0 -150.5 50.5t-56.5 126.5q0 93 72 150t190 74l32 91q10 24 30 24h2q12 0 18.5 -8.5t4.5 -21.5l-20 -113q-4 -27 -35 -31q-96 -11 -154 -52t-58 -107q0 -52 37 -81.5t96 -29.5 q84 0 163 64zM400 590q-21 0 -34 14q-8 9 -8 22q0 6 2 12l7 25q5 19 19 30.5t34 11.5q21 0 33 -14q8 -10 8 -23q0 -5 -1 -11l-7 -25q-11 -42 -53 -42z" />
<glyph unicode="&#xc0;" horiz-adv-x="747" d="M228 257h322l-65 358zM551 670l116 -615q3 -18 3 -22q0 -15 -11 -26.5t-29 -11.5q-33 0 -40 35l-27 155h-385l-118 -163q-21 -27 -41 -27q-14 0 -23.5 9t-9.5 24q0 14 9 25l450 621q25 34 58 34h2q37 0 46 -38zM477 786l-57 74q-9 13 -9 20q0 11 17 21t35 10q26 0 34 -24 l35 -89q0 -1 1.5 -6t1.5 -8q0 -16 -22 -16t-36 18z" />
<glyph unicode="&#xc1;" horiz-adv-x="747" d="M228 257h322l-65 358zM551 670l116 -615q3 -18 3 -22q0 -15 -11 -26.5t-29 -11.5q-33 0 -40 35l-27 155h-385l-118 -163q-21 -27 -41 -27q-14 0 -23.5 9t-9.5 24q0 14 9 25l450 621q25 34 58 34h2q37 0 46 -38zM674 859l-97 -72q-23 -19 -51 -19q-22 0 -22 15q0 7 7 16 l85 92q21 21 37 21q18 0 36.5 -10.5t18.5 -20.5q0 -11 -14 -22z" />
<glyph unicode="&#xc2;" horiz-adv-x="747" d="M228 257h322l-65 358zM551 670l116 -615q3 -18 3 -22q0 -15 -11 -26.5t-29 -11.5q-33 0 -40 35l-27 155h-385l-118 -163q-21 -27 -41 -27q-14 0 -23.5 9t-9.5 24q0 14 9 25l450 621q25 34 58 34h2q37 0 46 -38zM600 884l45 -84q7 -12 7 -18q0 -14 -19 -14q-31 0 -47 19 l-42 52l-75 -52q-28 -19 -50 -19q-19 0 -19 14q0 8 11 19l90 84q24 22 45 22h17q23 0 37 -23z" />
<glyph unicode="&#xc3;" horiz-adv-x="747" d="M228 257h322l-65 358zM551 670l116 -615q3 -18 3 -22q0 -15 -11 -26.5t-29 -11.5q-33 0 -40 35l-27 155h-385l-118 -163q-21 -27 -41 -27q-14 0 -23.5 9t-9.5 24q0 14 9 25l450 621q25 34 58 34h2q37 0 46 -38zM397 768q-11 0 -18.5 6.5t-7.5 16.5q0 11 7 24 q46 81 104 81q22 0 36 -7.5t35 -25.5q30 -26 42 -28q3 -1 7 -1q24 0 53 44q11 17 26 17q11 0 19 -6.5t8 -17.5q0 -12 -7 -23q-47 -82 -105 -82q-32 0 -70 33q-32 29 -50 29q-25 0 -52 -43q-11 -17 -27 -17z" />
<glyph unicode="&#xc4;" horiz-adv-x="747" d="M228 257h322l-65 358zM551 670l116 -615q3 -18 3 -22q0 -15 -11 -26.5t-29 -11.5q-33 0 -40 35l-27 155h-385l-118 -163q-21 -27 -41 -27q-14 0 -23.5 9t-9.5 24q0 14 9 25l450 621q25 34 58 34h2q37 0 46 -38zM459 874q20 0 32 -13q8 -9 8 -21q0 -5 -1 -10l-7 -25 q-10 -39 -52 -39q-20 0 -31 12q-9 10 -9 23q0 4 1 9l7 25q10 39 52 39zM636 874q20 0 32 -13q8 -9 8 -21q0 -5 -1 -10l-7 -25q-10 -39 -52 -39q-20 0 -32 12q-8 10 -8 23q0 4 1 9l7 25q10 39 52 39z" />
<glyph unicode="&#xc5;" horiz-adv-x="747" d="M19 -5q-14 0 -23.5 9t-9.5 24q0 14 9 25l458 631q-41 24 -41 71q0 46 33.5 78.5t80.5 32.5q44 0 72 -25t28 -63q0 -35 -21.5 -63.5t-55.5 -39.5l118 -620q3 -18 3 -22q0 -15 -11 -26.5t-29 -11.5q-33 0 -40 35l-27 155h-385l-118 -163q-21 -27 -41 -27zM228 257h322 l-65 358zM513 705q29 0 49 21t20 51q0 22 -15 36t-42 14q-29 0 -49 -21t-20 -51q0 -22 15 -36t42 -14z" />
<glyph unicode="&#xc6;" horiz-adv-x="1065" d="M268 257h243l100 373h-25zM587 700h490q15 0 25.5 -10.5t10.5 -25.5t-10.5 -25.5t-25.5 -10.5h-387l-64 -239h322q15 0 25.5 -11t10.5 -25q0 -15 -10.5 -25.5t-25.5 -10.5h-341l-66 -245h373q14 0 25 -10.5t11 -25.5t-11 -25.5t-25 -10.5h-427q-18 0 -28 13q-6 8 -6 19 q0 6 2 14l38 139h-284l-139 -163q-24 -27 -44 -27q-14 0 -22.5 8.5t-8.5 22.5q0 15 13 31l523 610q29 33 56 33z" />
<glyph unicode="&#xc7;" horiz-adv-x="735" d="M635 84q-106 -97 -252 -97h-7l-87 -119q-11 -17 -29 -17q-15 0 -26.5 9.5t-11.5 20.5q0 13 11 25l83 88q-102 19 -166.5 94.5t-64.5 188.5q0 112 56 212t153.5 161.5t210.5 61.5q158 0 239 -114q14 -18 14 -34q-1 -16 -12 -27.5t-28 -10.5q-21 0 -30 14q-33 47 -76.5 73 t-113.5 26q-134 0 -232 -109t-98 -250q0 -100 61 -159.5t158 -59.5q61 0 106.5 19.5t91.5 59.5q15 11 28 11q16 0 26.5 -11t10.5 -26t-15 -30z" />
<glyph unicode="&#xc8;" horiz-adv-x="653" d="M513 0h-438q-19 0 -29 13q-6 8 -6 19q0 6 2 14l165 614q5 18 17 29t28 11h425q15 0 25.5 -10.5t10.5 -25.5t-10.5 -25.5t-25.5 -10.5h-400l-64 -239h335q15 0 25.5 -11t10.5 -25q0 -15 -10.5 -25.5t-25.5 -10.5h-354l-66 -245h385q15 0 25.5 -10.5t10.5 -25.5 t-10.5 -25.5t-25.5 -10.5zM432 776l-57 74q-9 13 -9 20q0 11 17 21t35 10q26 0 34 -24l35 -89q0 -1 1.5 -6t1.5 -8q0 -16 -22 -16t-36 18z" />
<glyph unicode="&#xc9;" horiz-adv-x="653" d="M629 849l-97 -72q-23 -19 -51 -19q-22 0 -22 15q0 7 7 16l85 92q21 21 37 21q18 0 36.5 -10.5t18.5 -20.5q0 -11 -14 -22zM513 0h-438q-19 0 -29 13q-6 8 -6 19q0 6 2 14l165 614q5 18 17 29t28 11h425q15 0 25.5 -10.5t10.5 -25.5t-10.5 -25.5t-25.5 -10.5h-400 l-64 -239h335q15 0 25.5 -11t10.5 -25q0 -15 -10.5 -25.5t-25.5 -10.5h-354l-66 -245h385q15 0 25.5 -10.5t10.5 -25.5t-10.5 -25.5t-25.5 -10.5z" />
<glyph unicode="&#xca;" horiz-adv-x="653" d="M555 874l45 -84q7 -12 7 -18q0 -14 -19 -14q-31 0 -47 19l-42 52l-75 -52q-28 -19 -50 -19q-19 0 -19 14q0 8 11 19l90 84q24 22 45 22h17q23 0 37 -23zM513 0h-438q-19 0 -29 13q-6 8 -6 19q0 6 2 14l165 614q5 18 17 29t28 11h425q15 0 25.5 -10.5t10.5 -25.5 t-10.5 -25.5t-25.5 -10.5h-400l-64 -239h335q15 0 25.5 -11t10.5 -25q0 -15 -10.5 -25.5t-25.5 -10.5h-354l-66 -245h385q15 0 25.5 -10.5t10.5 -25.5t-10.5 -25.5t-25.5 -10.5z" />
<glyph unicode="&#xcb;" horiz-adv-x="653" d="M414 864q20 0 32 -13q8 -9 8 -21q0 -5 -1 -10l-7 -25q-10 -39 -52 -39q-20 0 -32 12q-8 10 -8 23q0 4 1 9l7 25q10 39 52 39zM591 864q20 0 32 -13q8 -9 8 -21q0 -5 -1 -10l-7 -25q-10 -39 -52 -39q-20 0 -31 12q-9 10 -9 23q0 4 1 9l7 25q10 39 52 39zM513 0h-438 q-19 0 -29 13q-6 8 -6 19q0 6 2 14l165 614q5 18 17 29t28 11h425q15 0 25.5 -10.5t10.5 -25.5t-10.5 -25.5t-25.5 -10.5h-400l-64 -239h335q15 0 25.5 -11t10.5 -25q0 -15 -10.5 -25.5t-25.5 -10.5h-354l-66 -245h385q15 0 25.5 -10.5t10.5 -25.5t-10.5 -25.5t-25.5 -10.5z " />
<glyph unicode="&#xcc;" horiz-adv-x="291" d="M292 656l-167 -623q-11 -38 -44 -38q-19 0 -29 13q-6 9 -6 21q0 7 2 15l168 623q10 38 43 38q19 0 29 -13q6 -9 6 -21q0 -7 -2 -15zM234 776l-57 74q-9 13 -9 20q0 11 17 21t35 10q26 0 34 -24l35 -89q0 -1 1.5 -6t1.5 -8q0 -16 -22 -16t-36 18z" />
<glyph unicode="&#xcd;" horiz-adv-x="291" d="M292 656l-167 -623q-11 -38 -44 -38q-19 0 -29 13q-6 9 -6 21q0 7 2 15l168 623q10 38 43 38q19 0 29 -13q6 -9 6 -21q0 -7 -2 -15zM430 849l-97 -72q-23 -19 -51 -19q-22 0 -22 15q0 7 7 16l85 92q21 21 37 21q18 0 36.5 -10.5t18.5 -20.5q0 -11 -14 -22z" />
<glyph unicode="&#xce;" horiz-adv-x="291" d="M292 656l-167 -623q-11 -38 -44 -38q-19 0 -29 13q-6 9 -6 21q0 7 2 15l168 623q10 38 43 38q19 0 29 -13q6 -9 6 -21q0 -7 -2 -15zM357 874l45 -84q7 -12 7 -18q0 -14 -19 -14q-31 0 -47 19l-42 52l-75 -52q-28 -19 -50 -19q-19 0 -19 14q0 8 11 19l90 84q24 22 45 22 h17q23 0 37 -23z" />
<glyph unicode="&#xcf;" horiz-adv-x="291" d="M292 656l-167 -623q-11 -38 -44 -38q-19 0 -29 13q-6 9 -6 21q0 7 2 15l168 623q10 38 43 38q19 0 29 -13q6 -9 6 -21q0 -7 -2 -15zM216 864q20 0 32 -13q8 -9 8 -21q0 -5 -1 -10l-7 -25q-10 -39 -52 -39q-20 0 -32 12q-8 10 -8 23q0 4 1 9l7 25q10 39 52 39zM393 864 q20 0 32 -13q8 -9 8 -21q0 -5 -1 -10l-7 -25q-10 -39 -52 -39q-20 0 -31 12q-9 10 -9 23q0 4 1 9l7 25q10 39 52 39z" />
<glyph unicode="&#xd0;" horiz-adv-x="800" d="M279 700h136q179 0 272 -93q77 -77 77 -201q0 -162 -111 -273q-133 -133 -359 -133h-192q-18 0 -28 13q-7 9 -7 20q0 6 2 13l72 270h-35q-15 0 -25.5 10.5t-10.5 25.5t10.5 25.5t25.5 10.5h55l73 272q4 18 16.5 29t28.5 11zM156 73h148q178 0 290 110q87 87 87 218 q0 97 -58 155q-73 71 -214 71h-104l-64 -239h166q14 0 25 -10.5t11 -25.5t-11 -25.5t-25 -10.5h-186z" />
<glyph unicode="&#xd1;" horiz-adv-x="786" d="M576 132l144 535q10 38 43 38q19 0 29 -13q5 -8 5 -19q0 -8 -3 -17l-167 -624q-10 -35 -40 -35h-2q-28 0 -43 31l-279 553l-147 -548q-11 -38 -43 -38q-19 0 -29 13q-5 9 -5 20q0 7 2 16l167 620q10 39 46 39h4q31 0 49 -35zM401 758q-11 0 -18.5 6.5t-7.5 16.5 q0 11 7 24q46 81 104 81q22 0 36 -7.5t35 -25.5q30 -26 42 -28q3 -1 7 -1q24 0 53 44q11 17 26 17q11 0 19 -6.5t8 -17.5q0 -12 -7 -23q-47 -82 -105 -82q-32 0 -70 33q-32 29 -50 29q-25 0 -52 -43q-11 -17 -27 -17z" />
<glyph unicode="&#xd2;" horiz-adv-x="842" d="M395 -13q-134 0 -220.5 87t-86.5 217q0 108 53 204.5t148 156.5t207 60q134 0 220.5 -87t86.5 -216q0 -108 -53 -205t-148 -157t-207 -60zM400 60q89 0 163.5 50t115.5 129.5t41 166.5q0 101 -63 167t-166 66q-89 0 -163.5 -50t-115.5 -129.5t-41 -166.5q0 -101 63 -167 t166 -66zM499 786l-57 74q-9 13 -9 20q0 11 17 21t35 10q26 0 34 -24l35 -89q0 -1 1.5 -6t1.5 -8q0 -16 -22 -16t-36 18z" />
<glyph unicode="&#xd3;" horiz-adv-x="842" d="M696 859l-97 -72q-23 -19 -51 -19q-22 0 -22 15q0 7 7 16l85 92q21 21 37 21q18 0 36.5 -10.5t18.5 -20.5q0 -11 -14 -22zM395 -13q-134 0 -220.5 87t-86.5 217q0 108 53 204.5t148 156.5t207 60q134 0 220.5 -87t86.5 -216q0 -108 -53 -205t-148 -157t-207 -60zM400 60 q89 0 163.5 50t115.5 129.5t41 166.5q0 101 -63 167t-166 66q-89 0 -163.5 -50t-115.5 -129.5t-41 -166.5q0 -101 63 -167t166 -66z" />
<glyph unicode="&#xd4;" horiz-adv-x="842" d="M621 884l45 -84q7 -12 7 -18q0 -14 -19 -14q-31 0 -47 19l-42 52l-75 -52q-28 -19 -50 -19q-19 0 -19 14q0 8 11 19l90 84q24 22 45 22h17q23 0 37 -23zM395 -13q-134 0 -220.5 87t-86.5 217q0 108 53 204.5t148 156.5t207 60q134 0 220.5 -87t86.5 -216q0 -108 -53 -205 t-148 -157t-207 -60zM400 60q89 0 163.5 50t115.5 129.5t41 166.5q0 101 -63 167t-166 66q-89 0 -163.5 -50t-115.5 -129.5t-41 -166.5q0 -101 63 -167t166 -66z" />
<glyph unicode="&#xd5;" horiz-adv-x="842" d="M395 -13q-134 0 -220.5 87t-86.5 217q0 108 53 204.5t148 156.5t207 60q134 0 220.5 -87t86.5 -216q0 -108 -53 -205t-148 -157t-207 -60zM400 60q89 0 163.5 50t115.5 129.5t41 166.5q0 101 -63 167t-166 66q-89 0 -163.5 -50t-115.5 -129.5t-41 -166.5q0 -101 63 -167 t166 -66zM419 768q-11 0 -18.5 6.5t-7.5 16.5q0 11 7 24q46 81 104 81q22 0 36 -7.5t35 -25.5q30 -26 42 -28q3 -1 7 -1q24 0 53 44q11 17 26 17q11 0 19 -6.5t8 -17.5q0 -12 -7 -23q-47 -82 -105 -82q-32 0 -70 33q-32 29 -50 29q-25 0 -52 -43q-11 -17 -27 -17z" />
<glyph unicode="&#xd6;" horiz-adv-x="842" d="M480 874q20 0 32 -13q8 -9 8 -21q0 -5 -1 -10l-7 -25q-10 -39 -52 -39q-20 0 -32 12q-8 10 -8 23q0 4 1 9l7 25q10 39 52 39zM657 874q20 0 32 -13q8 -9 8 -21q0 -5 -1 -10l-7 -25q-10 -39 -52 -39q-20 0 -31 12q-9 10 -9 23q0 4 1 9l7 25q10 39 52 39zM395 -13 q-134 0 -220.5 87t-86.5 217q0 108 53 204.5t148 156.5t207 60q134 0 220.5 -87t86.5 -216q0 -108 -53 -205t-148 -157t-207 -60zM400 60q89 0 163.5 50t115.5 129.5t41 166.5q0 101 -63 167t-166 66q-89 0 -163.5 -50t-115.5 -129.5t-41 -166.5q0 -101 63 -167t166 -66z " />
<glyph unicode="&#xd7;" horiz-adv-x="625" d="M388 347l109 -146q9 -13 9 -26q0 -15 -11 -26t-27 -11q-20 0 -31 17l-107 149l-197 -157q-11 -9 -23 -9q-13 0 -23 10.5t-10 24.5q0 17 15 29l198 155l-109 147q-9 12 -9 25q0 15 11 26.5t27 11.5q19 0 31 -17l107 -149l197 157q10 8 23 8t23 -10.5t10 -24.5 q0 -17 -15 -29z" />
<glyph unicode="&#xd8;" horiz-adv-x="842" d="M169 293q0 -63 26 -115l468 392q-66 71 -172 71q-88 0 -163.5 -50.5t-117 -130.5t-41.5 -167zM400 58q88 0 163.5 50.5t117 130.5t41.5 167q0 64 -28 117l-467 -392q62 -73 173 -73zM168 82l-90 -76q-21 -16 -35 -16q-12 0 -19 7.5t-7 18.5q0 13 16 29l99 83 q-44 74 -44 163q0 108 53 204.5t148 156.5t207 60q138 0 225 -92l88 74q21 16 34 16q12 0 19.5 -7t7.5 -18q0 -15 -17 -30l-96 -81q46 -75 46 -165q0 -108 -53 -205t-148 -157t-207 -60q-139 0 -227 95z" />
<glyph unicode="&#xd9;" horiz-adv-x="758" d="M775 656l-100 -373q-36 -133 -110 -207q-87 -87 -218 -87q-122 0 -188.5 61.5t-66.5 162.5q0 55 15 109l92 345q9 38 43 38q19 0 29 -13q6 -9 6 -21q0 -7 -2 -15l-94 -355q-10 -42 -10 -79q0 -72 46.5 -116t136.5 -44q91 0 156 64q61 63 89 171l100 370q9 38 43 38 q19 0 29 -13q6 -9 6 -21q0 -7 -2 -15zM457 776l-57 74q-9 13 -9 20q0 11 17 21t35 10q26 0 34 -24l35 -89q0 -1 1.5 -6t1.5 -8q0 -16 -22 -16t-36 18z" />
<glyph unicode="&#xda;" horiz-adv-x="758" d="M654 849l-97 -72q-23 -19 -51 -19q-22 0 -22 15q0 7 7 16l85 92q21 21 37 21q18 0 36.5 -10.5t18.5 -20.5q0 -11 -14 -22zM775 656l-100 -373q-36 -133 -110 -207q-87 -87 -218 -87q-122 0 -188.5 61.5t-66.5 162.5q0 55 15 109l92 345q9 38 43 38q19 0 29 -13 q6 -9 6 -21q0 -7 -2 -15l-94 -355q-10 -42 -10 -79q0 -72 46.5 -116t136.5 -44q91 0 156 64q61 63 89 171l100 370q9 38 43 38q19 0 29 -13q6 -9 6 -21q0 -7 -2 -15z" />
<glyph unicode="&#xdb;" horiz-adv-x="758" d="M580 874l45 -84q7 -12 7 -18q0 -14 -19 -14q-31 0 -47 19l-42 52l-75 -52q-28 -19 -50 -19q-19 0 -19 14q0 8 11 19l90 84q24 22 45 22h17q23 0 37 -23zM775 656l-100 -373q-36 -133 -110 -207q-87 -87 -218 -87q-122 0 -188.5 61.5t-66.5 162.5q0 55 15 109l92 345 q9 38 43 38q19 0 29 -13q6 -9 6 -21q0 -7 -2 -15l-94 -355q-10 -42 -10 -79q0 -72 46.5 -116t136.5 -44q91 0 156 64q61 63 89 171l100 370q9 38 43 38q19 0 29 -13q6 -9 6 -21q0 -7 -2 -15z" />
<glyph unicode="&#xdc;" horiz-adv-x="758" d="M439 864q20 0 32 -13q8 -9 8 -21q0 -5 -1 -10l-7 -25q-10 -39 -52 -39q-20 0 -31 12q-9 10 -9 23q0 4 1 9l7 25q10 39 52 39zM616 864q20 0 32 -13q8 -9 8 -21q0 -5 -1 -10l-7 -25q-10 -39 -52 -39q-20 0 -32 12q-8 10 -8 23q0 4 1 9l7 25q10 39 52 39zM775 656 l-100 -373q-36 -133 -110 -207q-87 -87 -218 -87q-122 0 -188.5 61.5t-66.5 162.5q0 55 15 109l92 345q9 38 43 38q19 0 29 -13q6 -9 6 -21q0 -7 -2 -15l-94 -355q-10 -42 -10 -79q0 -72 46.5 -116t136.5 -44q91 0 156 64q61 63 89 171l100 370q9 38 43 38q19 0 29 -13 q6 -9 6 -21q0 -7 -2 -15z" />
<glyph unicode="&#xdd;" horiz-adv-x="663" d="M367 267l-62 -234q-11 -38 -44 -38q-19 0 -29 13q-6 9 -6 21q0 7 2 15l63 236l-155 358q-7 16 -7 29q0 16 11.5 27t29.5 11q27 0 40 -33l136 -326l321 337q22 22 43 22q15 0 24.5 -9t9.5 -24q0 -18 -16 -34zM601 849l-97 -72q-23 -19 -51 -19q-22 0 -22 15q0 7 7 16 l85 92q21 21 37 21q18 0 36.5 -10.5t18.5 -20.5q0 -11 -14 -22z" />
<glyph unicode="&#xde;" horiz-adv-x="674" d="M163 199h151q123 0 191 47.5t68 132.5q0 52 -33 84q-44 44 -138 44h-157zM404 580q135 0 201 -65q49 -51 49 -131q0 -121 -93.5 -188.5t-250.5 -67.5h-166l-26 -95q-11 -38 -44 -38q-19 0 -29 13q-6 9 -6 21q0 7 2 15l168 623q9 38 43 38q19 0 28 -13q6 -9 6 -20 q0 -7 -2 -16l-19 -76h139z" />
<glyph unicode="&#xdf;" horiz-adv-x="623" d="M343 396q184 48 184 167q0 47 -33.5 76.5t-89.5 29.5q-64 0 -110.5 -47.5t-68.5 -133.5l-122 -455q-9 -38 -43 -38q-18 0 -27 13q-6 9 -6 21q0 7 2 14l123 458q28 109 87 166q68 70 170 70q86 0 140.5 -48t54.5 -121q0 -149 -196 -205q144 -42 144 -157 q0 -91 -83.5 -149.5t-208.5 -58.5q-34 0 -34 32q0 29 30 32q111 6 164.5 45.5t53.5 99.5q0 85 -128 118q-31 10 -31 35q0 28 28 36z" />
<glyph unicode="&#xe0;" horiz-adv-x="576" d="M207 49q67 0 126 43.5t77 110.5l10 36q-80 23 -168 23q-69 0 -112 -34t-43 -87q0 -41 30 -66.5t80 -25.5zM395 -5q-19 0 -26.5 11t-5.5 28l13 47q-80 -92 -193 -92q-69 0 -116.5 38.5t-47.5 104.5q0 86 64 136.5t166 50.5q84 0 184 -28l3 12q7 26 7 48q0 105 -140 105 q-57 0 -119 -18q-8 -3 -16 -3q-13 0 -22 9t-9 23q0 25 26 33q73 24 152 24q97 0 150 -42.5t53 -117.5q0 -33 -11 -71l-69 -260q-10 -38 -43 -38zM314 609l-57 74q-9 13 -9 20q0 11 17 21t35 10q26 0 34 -24l35 -89q0 -1 1.5 -6t1.5 -8q0 -16 -22 -16t-36 18z" />
<glyph unicode="&#xe1;" horiz-adv-x="576" d="M207 49q67 0 126 43.5t77 110.5l10 36q-80 23 -168 23q-69 0 -112 -34t-43 -87q0 -41 30 -66.5t80 -25.5zM395 -5q-19 0 -26.5 11t-5.5 28l13 47q-80 -92 -193 -92q-69 0 -116.5 38.5t-47.5 104.5q0 86 64 136.5t166 50.5q84 0 184 -28l3 12q7 26 7 48q0 105 -140 105 q-57 0 -119 -18q-8 -3 -16 -3q-13 0 -22 9t-9 23q0 25 26 33q73 24 152 24q97 0 150 -42.5t53 -117.5q0 -33 -11 -71l-69 -260q-10 -38 -43 -38zM510 682l-97 -72q-23 -19 -51 -19q-22 0 -22 15q0 7 7 16l85 92q21 21 37 21q18 0 36.5 -10.5t18.5 -20.5q0 -11 -14 -22z" />
<glyph unicode="&#xe2;" horiz-adv-x="576" d="M207 49q67 0 126 43.5t77 110.5l10 36q-80 23 -168 23q-69 0 -112 -34t-43 -87q0 -41 30 -66.5t80 -25.5zM395 -5q-19 0 -26.5 11t-5.5 28l13 47q-80 -92 -193 -92q-69 0 -116.5 38.5t-47.5 104.5q0 86 64 136.5t166 50.5q84 0 184 -28l3 12q7 26 7 48q0 105 -140 105 q-57 0 -119 -18q-8 -3 -16 -3q-13 0 -22 9t-9 23q0 25 26 33q73 24 152 24q97 0 150 -42.5t53 -117.5q0 -33 -11 -71l-69 -260q-10 -38 -43 -38zM436 707l45 -84q7 -12 7 -18q0 -14 -19 -14q-31 0 -47 19l-42 52l-75 -52q-28 -19 -50 -19q-19 0 -19 14q0 8 11 19l90 84 q24 22 45 22h17q23 0 37 -23z" />
<glyph unicode="&#xe3;" horiz-adv-x="576" d="M207 49q67 0 126 43.5t77 110.5l10 36q-80 23 -168 23q-69 0 -112 -34t-43 -87q0 -41 30 -66.5t80 -25.5zM395 -5q-19 0 -26.5 11t-5.5 28l13 47q-80 -92 -193 -92q-69 0 -116.5 38.5t-47.5 104.5q0 86 64 136.5t166 50.5q84 0 184 -28l3 12q7 26 7 48q0 105 -140 105 q-57 0 -119 -18q-8 -3 -16 -3q-13 0 -22 9t-9 23q0 25 26 33q73 24 152 24q97 0 150 -42.5t53 -117.5q0 -33 -11 -71l-69 -260q-10 -38 -43 -38zM233 591q-11 0 -18.5 6.5t-7.5 16.5q0 11 7 24q46 81 104 81q22 0 36 -7.5t35 -25.5q30 -26 42 -28q3 -1 7 -1q24 0 53 44 q11 17 26 17q11 0 19 -6.5t8 -17.5q0 -12 -7 -23q-47 -82 -105 -82q-32 0 -70 33q-32 29 -50 29q-25 0 -52 -43q-11 -17 -27 -17z" />
<glyph unicode="&#xe4;" horiz-adv-x="576" d="M207 49q67 0 126 43.5t77 110.5l10 36q-80 23 -168 23q-69 0 -112 -34t-43 -87q0 -41 30 -66.5t80 -25.5zM395 -5q-19 0 -26.5 11t-5.5 28l13 47q-80 -92 -193 -92q-69 0 -116.5 38.5t-47.5 104.5q0 86 64 136.5t166 50.5q84 0 184 -28l3 12q7 26 7 48q0 105 -140 105 q-57 0 -119 -18q-8 -3 -16 -3q-13 0 -22 9t-9 23q0 25 26 33q73 24 152 24q97 0 150 -42.5t53 -117.5q0 -33 -11 -71l-69 -260q-10 -38 -43 -38zM294 697q20 0 32 -13q8 -9 8 -21q0 -5 -1 -10l-7 -25q-10 -39 -52 -39q-20 0 -32 13q-8 9 -8 22q0 4 1 9l7 25q10 39 52 39z M471 697q20 0 32 -13q8 -9 8 -21q0 -5 -1 -10l-7 -25q-10 -39 -52 -39q-20 0 -31 13q-9 9 -9 22q0 4 1 9l7 25q10 39 52 39z" />
<glyph unicode="&#xe5;" horiz-adv-x="576" d="M207 49q67 0 126 43.5t77 110.5l10 36q-80 23 -168 23q-69 0 -112 -34t-43 -87q0 -41 30 -66.5t80 -25.5zM395 -5q-19 0 -26.5 11t-5.5 28l13 47q-80 -92 -193 -92q-69 0 -116.5 38.5t-47.5 104.5q0 86 64 136.5t166 50.5q84 0 184 -28l3 12q7 26 7 48q0 105 -140 105 q-57 0 -119 -18q-8 -3 -16 -3q-13 0 -22 9t-9 23q0 25 26 33q73 24 152 24q97 0 150 -42.5t53 -117.5q0 -33 -11 -71l-69 -260q-10 -38 -43 -38zM378 594q-44 0 -70.5 25t-26.5 63q0 45 34.5 78t80.5 33q44 0 71 -25t27 -63q0 -45 -34.5 -78t-81.5 -33zM380 633 q29 0 49.5 21t20.5 50q0 23 -14 37t-41 14q-29 0 -50 -21.5t-21 -50.5q0 -22 14.5 -36t41.5 -14z" />
<glyph unicode="&#xe6;" horiz-adv-x="958" d="M255 262q-69 0 -113.5 -33t-44.5 -85q0 -43 30.5 -69t85.5 -26q112 0 216 110q-5 25 -5 48q0 11 2 31q-72 24 -171 24zM919 330q0 -37 -7 -63q-8 -35 -41 -35h-374q-2 -16 -2 -25q1 -69 43.5 -110.5t112.5 -41.5q80 0 140 48q16 8 27 8q13 0 21.5 -9t8.5 -22 q0 -16 -15 -28q-78 -64 -185 -64q-73 0 -125.5 31.5t-77.5 87.5q-113 -118 -251 -118q-78 0 -126.5 38.5t-48.5 107.5q0 85 65.5 134.5t167.5 49.5q91 0 181 -28l3 12q7 26 7 48q0 105 -140 105q-60 0 -119 -18q-8 -3 -16 -3q-13 0 -22 9t-9 23q0 25 26 33q75 24 152 24 q76 0 125 -28.5t64 -80.5q41 52 97 82.5t119 30.5q94 0 146.5 -56.5t52.5 -141.5zM507 290h333q4 18 4 40q0 57 -33 95t-96 38q-74 0 -130 -49.5t-78 -123.5z" />
<glyph unicode="&#xe7;" horiz-adv-x="562" d="M463 59q-84 -71 -186 -71h-1l-88 -120q-11 -17 -29 -17q-15 0 -26.5 9.5t-11.5 20.5q0 13 11 25l85 89q-74 18 -121.5 76t-47.5 143q0 127 90.5 220.5t213.5 93.5q122 0 186 -91q13 -15 13 -31q0 -14 -10.5 -24.5t-25.5 -10.5q-19 0 -31 15q-50 74 -137 74 q-88 0 -154 -73.5t-66 -170.5q0 -73 45 -116.5t109 -43.5q71 0 136 54q12 9 26 9t23 -9.5t9 -23.5q0 -15 -12 -27z" />
<glyph unicode="&#xe8;" horiz-adv-x="589" d="M136 290h333q5 15 5 40q0 57 -33 95t-96 38q-74 0 -130.5 -49.5t-78.5 -123.5zM281 55q80 0 140 48q14 8 26 8q13 0 22 -8.5t9 -22.5q0 -16 -15 -28q-80 -64 -186 -64q-103 0 -166 61t-63 159q0 123 87.5 221.5t213.5 98.5q94 0 147 -56.5t53 -141.5q0 -28 -7 -63 q-8 -35 -42 -35h-374q0 -4 -0.5 -12.5t-0.5 -12.5q1 -69 43.5 -110.5t112.5 -41.5zM333 609l-57 74q-9 13 -9 20q0 11 17 21t35 10q26 0 34 -24l35 -89q0 -1 1.5 -6t1.5 -8q0 -16 -22 -16t-36 18z" />
<glyph unicode="&#xe9;" horiz-adv-x="589" d="M530 682l-97 -72q-23 -19 -51 -19q-22 0 -22 15q0 7 7 16l85 92q21 21 37 21q18 0 36.5 -10.5t18.5 -20.5q0 -11 -14 -22zM136 290h333q5 15 5 40q0 57 -33 95t-96 38q-74 0 -130.5 -49.5t-78.5 -123.5zM281 55q80 0 140 48q14 8 26 8q13 0 22 -8.5t9 -22.5 q0 -16 -15 -28q-80 -64 -186 -64q-103 0 -166 61t-63 159q0 123 87.5 221.5t213.5 98.5q94 0 147 -56.5t53 -141.5q0 -28 -7 -63q-8 -35 -42 -35h-374q0 -4 -0.5 -12.5t-0.5 -12.5q1 -69 43.5 -110.5t112.5 -41.5z" />
<glyph unicode="&#xea;" horiz-adv-x="589" d="M455 707l45 -84q7 -12 7 -18q0 -14 -19 -14q-31 0 -47 19l-42 52l-75 -52q-28 -19 -50 -19q-19 0 -19 14q0 8 11 19l90 84q24 22 45 22h17q23 0 37 -23zM136 290h333q5 15 5 40q0 57 -33 95t-96 38q-74 0 -130.5 -49.5t-78.5 -123.5zM281 55q80 0 140 48q14 8 26 8 q13 0 22 -8.5t9 -22.5q0 -16 -15 -28q-80 -64 -186 -64q-103 0 -166 61t-63 159q0 123 87.5 221.5t213.5 98.5q94 0 147 -56.5t53 -141.5q0 -28 -7 -63q-8 -35 -42 -35h-374q0 -4 -0.5 -12.5t-0.5 -12.5q1 -69 43.5 -110.5t112.5 -41.5z" />
<glyph unicode="&#xeb;" horiz-adv-x="589" d="M314 697q20 0 32 -13q8 -9 8 -21q0 -5 -1 -10l-7 -25q-10 -39 -52 -39q-20 0 -32 13q-8 9 -8 22q0 4 1 9l7 25q10 39 52 39zM491 697q20 0 32 -13q8 -9 8 -21q0 -5 -1 -10l-7 -25q-10 -39 -52 -39q-20 0 -31 13q-9 9 -9 22q0 4 1 9l7 25q10 39 52 39zM136 290h333 q5 15 5 40q0 57 -33 95t-96 38q-74 0 -130.5 -49.5t-78.5 -123.5zM281 55q80 0 140 48q14 8 26 8q13 0 22 -8.5t9 -22.5q0 -16 -15 -28q-80 -64 -186 -64q-103 0 -166 61t-63 159q0 123 87.5 221.5t213.5 98.5q94 0 147 -56.5t53 -141.5q0 -28 -7 -63q-8 -35 -42 -35h-374 q0 -4 -0.5 -12.5t-0.5 -12.5q1 -69 43.5 -110.5t112.5 -41.5z" />
<glyph unicode="&#xec;" horiz-adv-x="264" d="M228 474l-118 -441q-11 -38 -43 -38q-19 0 -27 13q-6 8 -6 20q0 7 2 15l118 441q11 38 43 38q19 0 28 -14q5 -8 5 -18q0 -8 -2 -16zM175 609l-57 74q-9 13 -9 20q0 11 17 21t35 10q26 0 34 -24l35 -89q0 -1 1.5 -6t1.5 -8q0 -16 -22 -16t-36 18z" />
<glyph unicode="&#xed;" horiz-adv-x="264" d="M372 682l-97 -72q-23 -19 -51 -19q-22 0 -22 15q0 7 7 16l85 92q21 21 37 21q18 0 36.5 -10.5t18.5 -20.5q0 -11 -14 -22zM228 474l-118 -441q-11 -38 -43 -38q-19 0 -27 13q-6 8 -6 20q0 7 2 15l118 441q11 38 43 38q19 0 28 -14q5 -8 5 -18q0 -8 -2 -16z" />
<glyph unicode="&#xee;" horiz-adv-x="264" d="M298 707l45 -84q7 -12 7 -18q0 -14 -19 -14q-31 0 -47 19l-42 52l-75 -52q-28 -19 -50 -19q-19 0 -19 14q0 8 11 19l90 84q24 22 45 22h17q23 0 37 -23zM228 474l-118 -441q-11 -38 -43 -38q-19 0 -27 13q-6 8 -6 20q0 7 2 15l118 441q11 38 43 38q19 0 28 -14 q5 -8 5 -18q0 -8 -2 -16z" />
<glyph unicode="&#xef;" horiz-adv-x="264" d="M158 697q20 0 32 -13q8 -9 8 -21q0 -5 -1 -10l-7 -25q-10 -39 -52 -39q-20 0 -32 13q-8 9 -8 22q0 4 1 9l7 25q10 39 52 39zM335 697q20 0 32 -13q8 -9 8 -21q0 -5 -1 -10l-7 -25q-10 -39 -52 -39q-20 0 -31 13q-9 9 -9 22q0 4 1 9l7 25q10 39 52 39zM228 474l-118 -441 q-11 -38 -43 -38q-19 0 -27 13q-6 8 -6 20q0 7 2 15l118 441q11 38 43 38q19 0 28 -14q5 -8 5 -18q0 -8 -2 -16z" />
<glyph unicode="&#xf0;" horiz-adv-x="622" d="M245 609l128 53l-7 17q-5 10 -5 21q0 14 11.5 24.5t27.5 10.5q26 0 35 -24l8 -20l96 41q6 3 16 3q26 0 26 -27q0 -20 -22 -28l-95 -40l64 -157q46 -114 46 -194q0 -121 -84.5 -210.5t-214.5 -89.5q-100 0 -165 62t-65 157q0 114 82.5 195.5t192.5 81.5q90 0 153 -54 l-78 180l-131 -54q-6 -3 -16 -3q-12 0 -19 7.5t-7 18.5q0 21 23 29zM281 57q88 0 150.5 63t62.5 150q0 66 -45 110t-122 44q-84 0 -144.5 -63t-60.5 -149q0 -71 44.5 -113t114.5 -42z" />
<glyph unicode="&#xf1;" horiz-adv-x="613" d="M190 522q17 0 26 -11t7 -27l-13 -51q84 95 180 95q75 0 120 -43.5t45 -116.5q0 -30 -13 -80l-68 -255q-10 -38 -42 -38q-19 0 -28 13q-5 9 -5 19q0 8 2 16l66 250q8 27 8 58q0 51 -31 79.5t-85 28.5q-60 0 -113.5 -47t-73.5 -120l-69 -259q-9 -38 -43 -38q-18 0 -27 13 q-6 9 -6 21q0 7 2 14l118 441q9 38 43 38zM266 591q-11 0 -18.5 6.5t-7.5 16.5q0 11 7 24q46 81 104 81q22 0 36 -7.5t35 -25.5q30 -26 42 -28q3 -1 7 -1q24 0 53 44q11 17 26 17q11 0 19 -6.5t8 -17.5q0 -12 -7 -23q-47 -82 -105 -82q-32 0 -70 33q-32 29 -50 29 q-25 0 -52 -43q-11 -17 -27 -17z" />
<glyph unicode="&#xf2;" horiz-adv-x="638" d="M284 -12q-105 0 -170 65t-65 167q0 122 90.5 215t213.5 93q106 0 171 -65t65 -166q0 -124 -91.5 -216.5t-213.5 -92.5zM289 57q87 0 154 72.5t67 164.5q0 78 -44.5 122t-117.5 44q-88 0 -154.5 -73.5t-66.5 -164.5q0 -77 44.5 -121t117.5 -44zM355 609l-57 74 q-9 13 -9 20q0 11 17 21t35 10q26 0 34 -24l35 -89q0 -1 1.5 -6t1.5 -8q0 -16 -22 -16t-36 18z" />
<glyph unicode="&#xf3;" horiz-adv-x="638" d="M552 682l-97 -72q-23 -19 -51 -19q-22 0 -22 15q0 7 7 16l85 92q21 21 37 21q18 0 36.5 -10.5t18.5 -20.5q0 -11 -14 -22zM284 -12q-105 0 -170 65t-65 167q0 122 90.5 215t213.5 93q106 0 171 -65t65 -166q0 -124 -91.5 -216.5t-213.5 -92.5zM289 57q87 0 154 72.5 t67 164.5q0 78 -44.5 122t-117.5 44q-88 0 -154.5 -73.5t-66.5 -164.5q0 -77 44.5 -121t117.5 -44z" />
<glyph unicode="&#xf4;" horiz-adv-x="638" d="M478 707l45 -84q7 -12 7 -18q0 -14 -19 -14q-31 0 -47 19l-42 52l-75 -52q-28 -19 -50 -19q-19 0 -19 14q0 8 11 19l90 84q24 22 45 22h17q23 0 37 -23zM284 -12q-105 0 -170 65t-65 167q0 122 90.5 215t213.5 93q106 0 171 -65t65 -166q0 -124 -91.5 -216.5 t-213.5 -92.5zM289 57q87 0 154 72.5t67 164.5q0 78 -44.5 122t-117.5 44q-88 0 -154.5 -73.5t-66.5 -164.5q0 -77 44.5 -121t117.5 -44z" />
<glyph unicode="&#xf5;" horiz-adv-x="638" d="M284 -12q-105 0 -170 65t-65 167q0 122 90.5 215t213.5 93q106 0 171 -65t65 -166q0 -124 -91.5 -216.5t-213.5 -92.5zM289 57q87 0 154 72.5t67 164.5q0 78 -44.5 122t-117.5 44q-88 0 -154.5 -73.5t-66.5 -164.5q0 -77 44.5 -121t117.5 -44zM276 591q-11 0 -18.5 6.5 t-7.5 16.5q0 11 7 24q46 81 104 81q22 0 36 -7.5t35 -25.5q30 -26 42 -28q3 -1 7 -1q24 0 53 44q11 17 26 17q11 0 19 -6.5t8 -17.5q0 -12 -7 -23q-47 -82 -105 -82q-32 0 -70 33q-32 29 -50 29q-25 0 -52 -43q-11 -17 -27 -17z" />
<glyph unicode="&#xf6;" horiz-adv-x="638" d="M337 697q20 0 32 -13q8 -9 8 -21q0 -5 -1 -10l-7 -25q-10 -39 -52 -39q-20 0 -31 13q-9 9 -9 22q0 4 1 9l7 25q10 39 52 39zM514 697q20 0 32 -13q8 -9 8 -21q0 -5 -1 -10l-7 -25q-10 -39 -52 -39q-20 0 -32 13q-8 9 -8 22q0 4 1 9l7 25q10 39 52 39zM284 -12 q-105 0 -170 65t-65 167q0 122 90.5 215t213.5 93q106 0 171 -65t65 -166q0 -124 -91.5 -216.5t-213.5 -92.5zM289 57q87 0 154 72.5t67 164.5q0 78 -44.5 122t-117.5 44q-88 0 -154.5 -73.5t-66.5 -164.5q0 -77 44.5 -121t117.5 -44z" />
<glyph unicode="&#xf7;" horiz-adv-x="625" d="M553 317h-429q-14 0 -24.5 10.5t-10.5 24.5t10.5 24.5t24.5 10.5h429q14 0 24 -10.5t10 -24.5t-10 -24.5t-24 -10.5zM401 607q21 0 34 -13q10 -11 10 -25q0 -4 -1 -9l-5 -22q-10 -44 -58 -44q-21 0 -34 14q-10 10 -10 24q0 4 1 9l5 22q10 44 58 44zM295 210q21 0 34 -14 q10 -10 10 -24q0 -4 -1 -9l-5 -22q-10 -44 -58 -44q-21 0 -34 13q-10 11 -10 25q0 4 1 9l5 22q10 44 58 44z" />
<glyph unicode="&#xf8;" horiz-adv-x="638" d="M289 55q87 0 154.5 72.5t67.5 166.5q0 44 -15 79l-324 -274q42 -44 117 -44zM126 222q0 -40 15 -77l323 273q-43 43 -116 43q-88 0 -155 -73.5t-67 -165.5zM118 51l-57 -48q-17 -13 -30 -13q-11 0 -18.5 7t-7.5 18q0 15 15 27l62 51q-33 54 -33 127q0 122 90.5 215 t213.5 93q101 0 165 -61l58 48q17 13 30 13q11 0 18.5 -7t7.5 -17q0 -13 -15 -28l-62 -51q34 -57 34 -128q0 -124 -91.5 -216.5t-213.5 -92.5q-101 0 -166 63z" />
<glyph unicode="&#xf9;" horiz-adv-x="613" d="M422 -5q-16 0 -25 11t-7 27l13 51q-84 -95 -181 -95q-75 0 -119.5 43.5t-44.5 116.5q0 30 13 80l67 255q11 38 43 38q19 0 27 -13q6 -8 6 -20q0 -7 -2 -15l-67 -250q-7 -30 -7 -58q0 -51 30.5 -79.5t84.5 -28.5q61 0 114.5 47.5t72.5 120.5l69 258q11 38 43 38 q19 0 28 -14q5 -8 5 -18q0 -8 -2 -16l-117 -441q-10 -38 -44 -38zM339 609l-57 74q-9 13 -9 20q0 11 17 21t35 10q26 0 34 -24l35 -89q0 -1 1.5 -6t1.5 -8q0 -16 -22 -16t-36 18z" />
<glyph unicode="&#xfa;" horiz-adv-x="613" d="M535 682l-97 -72q-23 -19 -51 -19q-22 0 -22 15q0 7 7 16l85 92q21 21 37 21q18 0 36.5 -10.5t18.5 -20.5q0 -11 -14 -22zM422 -5q-16 0 -25 11t-7 27l13 51q-84 -95 -181 -95q-75 0 -119.5 43.5t-44.5 116.5q0 30 13 80l67 255q11 38 43 38q19 0 27 -13q6 -8 6 -20 q0 -7 -2 -15l-67 -250q-7 -30 -7 -58q0 -51 30.5 -79.5t84.5 -28.5q61 0 114.5 47.5t72.5 120.5l69 258q11 38 43 38q19 0 28 -14q5 -8 5 -18q0 -8 -2 -16l-117 -441q-10 -38 -44 -38z" />
<glyph unicode="&#xfb;" horiz-adv-x="613" d="M461 707l45 -84q7 -12 7 -18q0 -14 -19 -14q-31 0 -47 19l-42 52l-75 -52q-28 -19 -50 -19q-19 0 -19 14q0 8 11 19l90 84q24 22 45 22h17q23 0 37 -23zM422 -5q-16 0 -25 11t-7 27l13 51q-84 -95 -181 -95q-75 0 -119.5 43.5t-44.5 116.5q0 30 13 80l67 255q11 38 43 38 q19 0 27 -13q6 -8 6 -20q0 -7 -2 -15l-67 -250q-7 -30 -7 -58q0 -51 30.5 -79.5t84.5 -28.5q61 0 114.5 47.5t72.5 120.5l69 258q11 38 43 38q19 0 28 -14q5 -8 5 -18q0 -8 -2 -16l-117 -441q-10 -38 -44 -38z" />
<glyph unicode="&#xfc;" horiz-adv-x="613" d="M320 697q20 0 32 -13q8 -9 8 -21q0 -5 -1 -10l-7 -25q-10 -39 -52 -39q-20 0 -32 13q-8 9 -8 22q0 4 1 9l7 25q10 39 52 39zM497 697q20 0 32 -13q8 -9 8 -21q0 -5 -1 -10l-7 -25q-10 -39 -52 -39q-20 0 -31 13q-9 9 -9 22q0 4 1 9l7 25q10 39 52 39zM422 -5 q-16 0 -25 11t-7 27l13 51q-84 -95 -181 -95q-75 0 -119.5 43.5t-44.5 116.5q0 30 13 80l67 255q11 38 43 38q19 0 27 -13q6 -8 6 -20q0 -7 -2 -15l-67 -250q-7 -30 -7 -58q0 -51 30.5 -79.5t84.5 -28.5q61 0 114.5 47.5t72.5 120.5l69 258q11 38 43 38q19 0 28 -14 q5 -8 5 -18q0 -8 -2 -16l-117 -441q-10 -38 -44 -38z" />
<glyph unicode="&#xfd;" horiz-adv-x="574" d="M-17 -79q35 -16 65 -16q65 0 133 96l-87 460q-3 11 -3 23q0 16 11 27t27 11t26.5 -10t12.5 -27l71 -400l267 409q16 28 41 28q16 0 25 -9t9 -23q0 -13 -9 -28l-322 -479q-54 -79 -103.5 -112.5t-107.5 -33.5q-46 0 -86 20q-23 11 -23 34q0 15 9.5 25t23.5 10q8 0 20 -5z M502 682l-97 -72q-23 -19 -51 -19q-22 0 -22 15q0 7 7 16l85 92q21 21 37 21q18 0 36.5 -10.5t18.5 -20.5q0 -11 -14 -22z" />
<glyph unicode="&#xfe;" horiz-adv-x="659" d="M312 56q91 0 153.5 73t62.5 173q0 72 -40 115t-106 43q-87 0 -158.5 -74.5t-71.5 -168.5q0 -68 45 -114.5t115 -46.5zM-14 -117l218 814q11 38 43 38q19 0 28 -13q5 -9 5 -19q0 -8 -2 -16l-70 -259q88 100 196 100q89 0 147 -60.5t58 -158.5q0 -135 -87 -228t-203 -93 q-139 0 -194 128l-65 -243q-10 -38 -43 -38q-18 0 -27 13q-6 9 -6 21q0 7 2 14z" />
<glyph unicode="&#xff;" horiz-adv-x="574" d="M-17 -79q35 -16 65 -16q65 0 133 96l-87 460q-3 11 -3 23q0 16 11 27t27 11t26.5 -10t12.5 -27l71 -400l267 409q16 28 41 28q16 0 25 -9t9 -23q0 -13 -9 -28l-322 -479q-54 -79 -103.5 -112.5t-107.5 -33.5q-46 0 -86 20q-23 11 -23 34q0 15 9.5 25t23.5 10q8 0 20 -5z M287 697q20 0 32 -13q8 -9 8 -21q0 -5 -1 -10l-7 -25q-10 -39 -52 -39q-20 0 -31 13q-9 9 -9 22q0 4 1 9l7 25q10 39 52 39zM464 697q20 0 32 -13q8 -9 8 -21q0 -5 -1 -10l-7 -25q-10 -39 -52 -39q-20 0 -32 13q-8 9 -8 22q0 4 1 9l7 25q10 39 52 39z" />
<glyph unicode="&#x152;" horiz-adv-x="1132" d="M440 73h89l149 554h-133q-178 0 -290 -110q-87 -87 -87 -218q0 -97 58 -155q73 -71 214 -71zM980 0h-545q-180 0 -274 94q-76 76 -76 200q0 160 111 273q133 133 359 133h588q15 0 26 -10.5t11 -25.5t-11 -25.5t-26 -10.5h-386l-64 -239h322q14 0 25 -11t11 -25 q0 -15 -11 -25.5t-25 -10.5h-341l-66 -245h372q15 0 25.5 -10.5t10.5 -25.5t-10.5 -25.5t-25.5 -10.5z" />
<glyph unicode="&#x153;" horiz-adv-x="1041" d="M590 290h333q4 18 4 40q0 57 -33 95t-96 38q-74 0 -130.5 -49.5t-77.5 -123.5zM289 57q87 0 154 70.5t67 162.5q0 79 -44.5 124.5t-117.5 45.5q-89 0 -155 -72.5t-66 -164.5q0 -77 44.5 -121.5t117.5 -44.5zM734 55q79 0 140 48q14 8 27 8t21.5 -9t8.5 -22q0 -16 -15 -28 q-81 -64 -184 -64q-78 0 -133.5 38t-74.5 102q-41 -63 -102.5 -101.5t-139.5 -38.5q-103 0 -168 65.5t-65 166.5q0 122 90.5 215t213.5 93q81 0 135.5 -41t73.5 -106q89 147 240 147q94 0 147 -56.5t53 -141.5q0 -30 -8 -66q-7 -32 -37 -32h-378q0 -4 -0.5 -12.5t-0.5 -12.5 q1 -69 43.5 -110.5t112.5 -41.5z" />
<glyph unicode="&#x178;" horiz-adv-x="663" d="M367 267l-62 -234q-11 -38 -44 -38q-19 0 -29 13q-6 9 -6 21q0 7 2 15l63 236l-155 358q-7 16 -7 29q0 16 11.5 27t29.5 11q27 0 40 -33l136 -326l321 337q22 22 43 22q15 0 24.5 -9t9.5 -24q0 -18 -16 -34zM386 864q20 0 32 -13q8 -9 8 -21q0 -5 -1 -10l-7 -25 q-10 -39 -52 -39q-20 0 -32 12q-8 10 -8 23q0 4 1 9l7 25q10 39 52 39zM563 864q20 0 32 -13q8 -9 8 -21q0 -5 -1 -10l-7 -25q-10 -39 -52 -39q-20 0 -31 12q-9 10 -9 23q0 4 1 9l7 25q10 39 52 39z" />
<glyph unicode="&#x2c6;" d="M421 707l45 -84q7 -12 7 -18q0 -14 -19 -14q-31 0 -47 19l-42 52l-75 -52q-28 -19 -50 -19q-19 0 -19 14q0 8 11 19l90 84q24 22 45 22h17q23 0 37 -23z" />
<glyph unicode="&#x2dc;" d="M212 591q-11 0 -18.5 6.5t-7.5 16.5q0 11 7 24q46 81 104 81q22 0 36 -7.5t35 -25.5q30 -26 42 -28q3 -1 7 -1q24 0 53 44q11 17 26 17q11 0 19 -6.5t8 -17.5q0 -12 -7 -23q-47 -82 -105 -82q-32 0 -70 33q-32 29 -50 29q-25 0 -52 -43q-11 -17 -27 -17z" />
<glyph unicode="&#x2000;" horiz-adv-x="456" />
<glyph unicode="&#x2001;" horiz-adv-x="912" />
<glyph unicode="&#x2002;" horiz-adv-x="456" />
<glyph unicode="&#x2003;" horiz-adv-x="912" />
<glyph unicode="&#x2004;" horiz-adv-x="304" />
<glyph unicode="&#x2005;" horiz-adv-x="228" />
<glyph unicode="&#x2006;" horiz-adv-x="152" />
<glyph unicode="&#x2007;" horiz-adv-x="152" />
<glyph unicode="&#x2008;" horiz-adv-x="114" />
<glyph unicode="&#x2009;" horiz-adv-x="182" />
<glyph unicode="&#x200a;" horiz-adv-x="50" />
<glyph unicode="&#x2010;" horiz-adv-x="410" d="M320 260h-208q-16 0 -28 12t-12 29q0 16 12 28t28 12h208q16 0 28 -12t12 -28q0 -17 -12 -29t-28 -12z" />
<glyph unicode="&#x2011;" horiz-adv-x="410" d="M320 260h-208q-16 0 -28 12t-12 29q0 16 12 28t28 12h208q16 0 28 -12t12 -28q0 -17 -12 -29t-28 -12z" />
<glyph unicode="&#x2013;" horiz-adv-x="529" d="M111 262q-16 0 -27.5 11.5t-11.5 27.5t11.5 27t27.5 11h330q16 0 27 -11t11 -27t-11 -27.5t-27 -11.5h-330z" />
<glyph unicode="&#x2014;" horiz-adv-x="899" d="M111 262q-16 0 -27.5 11.5t-11.5 27.5t11.5 27t27.5 11h700q16 0 27 -11t11 -27t-11 -27.5t-27 -11.5h-700z" />
<glyph unicode="&#x2018;" horiz-adv-x="255" d="M184 473q-23 0 -34 17q-8 10 -8 24q0 8 3 18l8 30q15 62 55 100q33 30 80 40q4 1 7 1q17 0 17 -18q0 -13 -17 -19q-70 -24 -80 -83q14 -3 22.5 -14t4.5 -29l-7 -26q-5 -18 -18.5 -29.5t-32.5 -11.5z" />
<glyph unicode="&#x2019;" horiz-adv-x="255" d="M234 705q23 0 34 -17q8 -10 8 -24q0 -8 -3 -18l-8 -30q-15 -62 -55 -100q-33 -30 -80 -40q-4 -1 -7 -1q-17 0 -17 18q0 13 17 19q70 24 80 83q-14 3 -22.5 14t-4.5 29l7 26q5 18 18.5 29.5t32.5 11.5z" />
<glyph unicode="&#x201a;" horiz-adv-x="255" d="M80 110q23 0 34 -16q8 -11 8 -25q0 -8 -3 -18l-8 -30q-15 -62 -55 -100q-33 -30 -80 -40q-3 -1 -6 -1q-7 0 -12 4q-6 5 -6 14q0 13 17 19q70 24 80 83q-14 3 -22.5 14t-4.5 29l7 26q5 18 18.5 29.5t32.5 11.5z" />
<glyph unicode="&#x201c;" horiz-adv-x="455" d="M184 473q-23 0 -34 17q-8 10 -8 24q0 8 3 18l8 30q15 62 55 100q33 30 80 40q4 1 7 1q17 0 17 -18q0 -13 -17 -19q-70 -24 -80 -83q14 -3 22.5 -14t4.5 -29l-7 -26q-5 -18 -18.5 -29.5t-32.5 -11.5zM384 473q-23 0 -34 17q-8 10 -8 24q0 8 3 18l8 30q15 62 55 100 q33 30 80 40q4 1 7 1q17 0 17 -18q0 -13 -17 -19q-70 -24 -80 -83q14 -3 22.5 -14t4.5 -29l-7 -26q-5 -18 -18.5 -29.5t-32.5 -11.5z" />
<glyph unicode="&#x201d;" horiz-adv-x="455" d="M434 705q23 0 34 -17q8 -10 8 -24q0 -8 -3 -18l-8 -30q-15 -62 -55 -100q-33 -30 -80 -40q-4 -1 -7 -1q-17 0 -17 18q0 13 17 19q70 24 80 83q-14 3 -22.5 14t-4.5 29l7 26q5 18 18.5 29.5t32.5 11.5zM234 705q23 0 34 -17q8 -10 8 -24q0 -8 -3 -18l-8 -30 q-15 -62 -55 -100q-33 -30 -80 -40q-4 -1 -7 -1q-17 0 -17 18q0 13 17 19q70 24 80 83q-14 3 -22.5 14t-4.5 29l7 26q5 18 18.5 29.5t32.5 11.5z" />
<glyph unicode="&#x201e;" horiz-adv-x="455" d="M280 110q23 0 34 -16q8 -11 8 -25q0 -8 -3 -18l-8 -30q-15 -62 -55 -100q-33 -30 -80 -40q-3 -1 -6 -1q-7 0 -12 4q-6 5 -6 14q0 13 17 19q70 24 80 83q-14 3 -22.5 14t-4.5 29l7 26q5 18 18.5 29.5t32.5 11.5zM80 110q23 0 34 -16q8 -11 8 -25q0 -8 -3 -18l-8 -30 q-15 -62 -55 -100q-33 -30 -80 -40q-3 -1 -6 -1q-7 0 -12 4q-6 5 -6 14q0 13 17 19q70 24 80 83q-14 3 -22.5 14t-4.5 29l7 26q5 18 18.5 29.5t32.5 11.5z" />
<glyph unicode="&#x2022;" horiz-adv-x="478" d="M236 216q-48 0 -78 30t-30 81q0 64 44 112.5t106 48.5q48 0 78 -30t30 -80q0 -64 -44.5 -113t-105.5 -49z" />
<glyph unicode="&#x2026;" horiz-adv-x="734" d="M115 35q-8 -40 -53 -40q-21 0 -33 13q-9 9 -9 22q0 4 1 9l8 29q10 41 53 41q20 0 32 -13q9 -10 9 -23q0 -4 -1 -9zM355 35q-8 -40 -53 -40q-21 0 -33 13q-9 9 -9 22q0 4 1 9l8 29q10 41 53 41q21 0 33 -13q9 -10 9 -23q0 -4 -1 -9zM595 35q-8 -40 -53 -40q-21 0 -32 13 q-9 9 -9 22q0 4 1 9l7 29q10 41 53 41q21 0 33 -13q9 -10 9 -23q0 -4 -1 -9z" />
<glyph unicode="&#x202f;" horiz-adv-x="182" />
<glyph unicode="&#x2039;" horiz-adv-x="328" d="M59 272l185 179q20 20 36 20q14 0 22 -8.5t8 -22.5q0 -16 -12 -26l-169 -167l71 -152q6 -13 6 -23q0 -13 -10 -22.5t-24 -9.5q-22 0 -33 22l-82 166q-8 16 -8 23q0 11 10 21z" />
<glyph unicode="&#x203a;" horiz-adv-x="328" d="M267 242l-185 -180q-20 -20 -35 -20q-14 0 -22.5 8.5t-8.5 22.5q0 15 12 27l169 166l-71 152q-6 14 -6 23q0 14 10 23.5t24 9.5q22 0 33 -23l83 -165q8 -16 8 -23q0 -12 -11 -21z" />
<glyph unicode="&#x2044;" horiz-adv-x="542" d="M635 705l-638 -784q-19 -24 -37 -24q-12 0 -20 7.5t-8 20.5q0 15 13 30l638 784q19 24 37 24q12 0 20 -7.5t8 -20.5q0 -15 -13 -30z" />
<glyph unicode="&#x205f;" horiz-adv-x="228" />
<glyph unicode="&#x20ac;" horiz-adv-x="694" d="M255 470h236q13 0 22.5 -9t9.5 -22t-9.5 -22t-22.5 -9h-260q-17 -61 -20 -108h235q13 0 22.5 -9.5t9.5 -22.5t-9.5 -22t-22.5 -9h-235q5 -81 50 -129t119 -48q94 0 171 76q12 12 29 12q15 0 25 -9t10 -23q0 -19 -16 -33q-98 -95 -221 -95q-105 0 -174 67.5t-76 181.5h-59 q-13 0 -22 9t-9 22t9 22.5t22 9.5h60q3 57 19 108h-34q-13 0 -22 9t-9 22t9 22t22 9h54q45 109 131 175.5t195 66.5q150 0 213 -127q10 -17 10 -29q0 -16 -11.5 -26.5t-28.5 -10.5q-21 0 -31 19q-24 47 -60.5 74.5t-100.5 27.5q-73 0 -133.5 -46.5t-96.5 -123.5z" />
<glyph unicode="&#x2122;" horiz-adv-x="693" d="M269 658l-71 -250q-5 -21 -24 -21q-10 0 -16 8t-2 20l68 243h-76q-8 0 -14.5 6t-6.5 15q0 8 6.5 14.5t14.5 6.5h209q8 0 14.5 -6t6.5 -14q0 -9 -6.5 -15.5t-14.5 -6.5h-88zM731 701h3q19 0 19 -19q0 -5 -1 -11l-75 -263q-5 -20 -24 -20q-10 0 -15.5 7.5t-1.5 20.5l57 200 l-127 -137q-11 -13 -24 -13t-20 14l-53 136l-60 -208q-7 -20 -24 -20q-10 0 -15 8q-4 4 -4 10q0 5 2 10l74 262q7 23 24 23h2q14 0 23 -19l63 -161l149 165q13 15 28 15z" />
</font>
</defs>
</svg>
