<?xml version="1.0" standalone="no"?>
<!DOCTYPE svg PUBLIC "-//W3C//DTD SVG 1.1//EN" "http://www.w3.org/Graphics/SVG/1.1/DTD/svg11.dtd" >
<svg xmlns="http://www.w3.org/2000/svg">
<metadata>
This is a custom SVG webfont generated by Font Squirrel.
Designer    : Tobias FrereJones
Foundry     : Hoefler  FrereJones
Foundry URL : wwwtypographycom
</metadata>
<defs>
<font id="webfont1hre5hCu" horiz-adv-x="500" >
<font-face units-per-em="1000" ascent="800" descent="-200" />
<missing-glyph horiz-adv-x="300" />
<glyph unicode=" "  horiz-adv-x="300" />
<glyph unicode="&#x09;" horiz-adv-x="300" />
<glyph unicode="&#xa0;" horiz-adv-x="300" />
<glyph unicode="!" horiz-adv-x="251" d="M268 675l-145 -482q-4 -13 -15 -13q-17 0 -12 20l114 481q5 22 29 22h8q12 0 19 -7q4 -5 4 -12q0 -4 -2 -9zM105 58l-10 -38q-6 -24 -36 -24q-14 0 -23 8q-6 7 -6 16q0 3 1 6l10 37q8 26 36 26q14 0 23 -9q6 -7 6 -15q0 -4 -1 -7z" />
<glyph unicode="&#x22;" horiz-adv-x="410" d="M135 455q-7 -13 -17 -13q-13 0 -13 10q0 4 2 10l80 219q7 21 33 21h6q15 0 20 -9t-3 -25zM315 455q-7 -13 -17 -13q-13 0 -13 10q0 4 2 10l80 219q7 21 33 21h6q15 0 20 -9q2 -3 2 -8q0 -7 -5 -17z" />
<glyph unicode="#" horiz-adv-x="678" d="M221 234h206l83 236h-207zM375 677l-56 -160h207l58 166q8 21 27 21q13 0 18 -8t1 -19l-56 -160h95q10 0 17 -6.5t7 -16.5t-7 -17t-17 -7h-111l-83 -236h107q10 0 17 -6.5t7 -16.5t-7 -17t-17 -7h-123l-59 -170q-8 -21 -27 -21q-13 0 -18 8t-1 19l57 164h-207l-59 -170 q-7 -21 -27 -21q-12 0 -17.5 8t-1.5 19l57 164h-95q-10 0 -17 6.5t-7 16.5t7 17t17 7h111l83 236h-107q-10 0 -17 6.5t-7 16.5t7 17t17 7h123l58 166q7 21 27 21q12 0 17.5 -8t1.5 -19z" />
<glyph unicode="$" horiz-adv-x="618" d="M196 -75l22 80q-123 20 -204 101q-11 11 -11 23q0 10 7 17t18 7q10 0 19 -9q74 -77 188 -93l77 288q-98 37 -138.5 75.5t-40.5 98.5q0 80 66.5 133.5t165.5 53.5q16 0 44 -2l11 41q6 23 27 23q11 0 17.5 -8t3.5 -20l-12 -43q90 -18 158 -76q11 -9 11 -22q0 -11 -7 -18 t-17 -7t-20 8q-57 52 -142 70l-73 -272q92 -33 132.5 -74t40.5 -102q0 -86 -71 -142t-184 -56h-19l-21 -80q-6 -23 -27 -23q-11 0 -17.5 8t-3.5 20zM278 47h12q82 0 137 38q59 41 59 108q0 42 -30 72.5t-103 59.5zM325 389l71 262q-20 3 -39 3q-62 0 -109 -31 q-62 -40 -62 -105q0 -44 31.5 -72.5t107.5 -56.5z" />
<glyph unicode="%" horiz-adv-x="821" d="M230 346q-60 0 -98.5 41.5t-38.5 101.5q0 86 56 152.5t135 66.5q60 0 98.5 -41.5t38.5 -101.5q0 -86 -56 -152.5t-135 -66.5zM588 -7q-60 0 -98.5 41.5t-38.5 101.5q0 86 56 152.5t135 66.5q60 0 98.5 -41.5t38.5 -101.5q0 -86 -56 -152.5t-135 -66.5zM234 389 q56 0 97 53.5t41 117.5q0 48 -24 76.5t-68 28.5q-56 0 -97 -53.5t-41 -117.5q0 -48 24 -76.5t68 -28.5zM592 36q56 0 97 53.5t41 117.5q0 48 -24 76.5t-68 28.5q-56 0 -97 -53.5t-41 -117.5q0 -48 24 -76.5t68 -28.5zM772 664l-635 -652q-16 -16 -27 -16q-8 0 -14 5.5 t-6 14.5q0 10 11 21l635 652q16 16 27 16q8 0 14 -5.5t6 -14.5q0 -10 -11 -21z" />
<glyph unicode="&#x26;" horiz-adv-x="690" d="M326 411q200 52 200 154q0 46 -31.5 74.5t-83.5 28.5q-53 0 -92 -38.5t-39 -92.5q0 -56 46 -126zM237 36q116 0 223 105l-159 225q-109 -26 -163 -78t-54 -117q0 -62 41.5 -98.5t111.5 -36.5zM558 6l-71 101q-61 -60 -120 -88.5t-136 -28.5q-86 0 -143 47t-57 128 q0 85 62.5 146.5t182.5 91.5q-47 76 -47 133q0 75 54.5 125.5t129.5 50.5q74 0 119 -40t45 -105q0 -131 -226 -192l142 -201q52 58 104 146q12 19 25 19q9 0 15 -6t6 -15t-6 -18q-60 -97 -116 -160l76 -108q8 -11 8 -20q0 -22 -23 -22q-13 0 -24 16z" />
<glyph unicode="'" horiz-adv-x="230" d="M135 455q-7 -13 -17 -13q-13 0 -13 10q0 4 2 10l80 219q7 21 33 21h6q15 0 20 -9q2 -3 2 -8q0 -7 -5 -17z" />
<glyph unicode="(" horiz-adv-x="430" d="M291 -101q8 -9 8 -17t-6 -13.5t-14 -5.5q-10 0 -18 8q-162 155 -162 347q0 152 97 283.5t280 209.5q10 4 16 4q8 0 14 -5.5t6 -13.5q0 -14 -14 -20q-167 -73 -257 -194t-90 -263q0 -102 37.5 -176t102.5 -144z" />
<glyph unicode=")" horiz-adv-x="430" d="M157 679q-8 9 -8 17t6 13.5t14 5.5q10 0 18 -8q162 -155 162 -347q0 -152 -97 -283.5t-280 -209.5q-10 -4 -16 -4q-8 0 -14 5.5t-6 13.5q0 14 14 20q167 73 257 194t90 263q0 102 -37.5 176t-102.5 144z" />
<glyph unicode="*" horiz-adv-x="430" d="M294 531l-20 -106q-3 -18 -20 -18q-11 0 -17 8t-2 18l36 104l-103 -36q-8 -3 -14 -3q-8 0 -13.5 5.5t-5.5 13.5q0 19 20 22l112 21l-86 72q-10 9 -10 19q0 20 18 20q11 0 19 -9l74 -85l20 104q5 21 22 21q11 0 16 -8t1 -19l-36 -104l102 36q7 3 15 3q7 0 12 -6t5 -14 q0 -18 -19 -21l-111 -21l84 -71q12 -11 12 -20t-6 -14.5t-13 -5.5q-10 0 -19 10z" />
<glyph unicode="+" horiz-adv-x="620" d="M355 328l-53 -195q-7 -24 -28 -24q-12 0 -18 9t-3 20l52 190h-191q-10 0 -17 7t-7 17t7 17t17 7h204l52 196q7 23 28 23q12 0 18 -8.5t3 -19.5l-51 -191h191q10 0 17 -6.5t7 -16.5t-7 -17.5t-17 -7.5h-204z" />
<glyph unicode="," horiz-adv-x="231" d="M-30 -79q32 14 48.5 32t22.5 47q-10 1 -16 9t-3 21l9 33q8 26 36 26q14 0 23 -10q6 -7 6 -15q0 -4 -1 -8l-12 -45q-14 -51 -40 -77q-23 -24 -64 -37q-4 -1 -7 -1q-4 0 -6 2q-6 3 -6 10q0 9 10 13z" />
<glyph unicode="-" horiz-adv-x="409" d="M326 269h-221q-11 0 -19.5 8.5t-8.5 19.5t8.5 19.5t19.5 8.5h221q11 0 19.5 -8.5t8.5 -19.5t-8.5 -19.5t-19.5 -8.5z" />
<glyph unicode="." horiz-adv-x="231" d="M95 58l-10 -36q-8 -26 -36 -26q-14 0 -23 9q-6 7 -6 15q0 4 1 7l10 36q8 26 36 26q14 0 23 -9q6 -7 6 -15q0 -4 -1 -7z" />
<glyph unicode="/" d="M-93 -92l680 880q12 15 24 15q9 0 14.5 -6t5.5 -14t-10 -21l-680 -880q-12 -15 -24 -15q-9 0 -14.5 6t-5.5 14t10 21z" />
<glyph unicode="0" horiz-adv-x="709" d="M317 -12q-112 0 -173.5 72.5t-61.5 189.5q0 114 46 220t130 174t184 68q112 0 173.5 -72.5t61.5 -189.5q0 -114 -46 -220t-130 -174t-184 -68zM320 35q79 0 150 61t112 156.5t41 197.5q0 94 -48 154.5t-136 60.5q-79 0 -150 -61t-112 -156.5t-41 -197.5q0 -94 48 -154.5 t136 -60.5z" />
<glyph unicode="1" horiz-adv-x="334" d="M327 679l-177 -660q-6 -23 -28 -23q-11 0 -18 8q-5 6 -5 14q0 3 1 8l167 622l-119 -38q-9 -3 -16 -3q-9 0 -14.5 6.5t-5.5 15.5q0 17 18 23l144 48q19 7 34 7h1q20 0 20 -17q0 -5 -2 -11z" />
<glyph unicode="2" horiz-adv-x="588" d="M454 0h-446q-25 0 -25 21q0 13 12 22l413 321q64 50 93.5 90.5t29.5 87.5q0 53 -40 87t-110 34q-96 0 -186 -86q-13 -11 -23 -11t-16.5 6t-6.5 16q0 12 11 23q53 48 104.5 73.5t118.5 25.5q89 0 145.5 -46.5t56.5 -120.5q0 -58 -35.5 -107t-109.5 -106l-362 -280h376 q10 0 17.5 -7t7.5 -18t-7.5 -18t-17.5 -7z" />
<glyph unicode="3" horiz-adv-x="606" d="M21 104q-6 10 -6 21q0 10 7 17t17 7q13 0 22 -15q62 -99 192 -99q93 0 154 49.5t61 126.5q0 66 -52.5 99.5t-143.5 33.5h-15q-24 0 -24 18q0 9 9 17l302 272h-346q-11 0 -18 7t-7 17q0 11 7.5 18t17.5 7h411q21 0 21 -18q0 -13 -13 -24l-301 -272q89 -4 148 -48.5 t59 -122.5q0 -98 -80 -162.5t-193 -64.5q-159 0 -229 116z" />
<glyph unicode="4" horiz-adv-x="645" d="M99 216h328l109 406zM466 171l-41 -152q-6 -23 -28 -23q-11 0 -18 8t-3 22l39 145h-365q-28 0 -28 20q0 12 14 26l514 478q16 14 32 14q13 0 18 -9q4 -5 4 -11q0 -5 -2 -10l-124 -463h88q9 0 16 -6.5t7 -15.5q0 -10 -7 -16.5t-16 -6.5h-100z" />
<glyph unicode="5" horiz-adv-x="601" d="M33 89q-11 12 -11 26q0 9 7 16t17 7q14 0 24 -13q68 -92 185 -92q99 0 162.5 58t63.5 138q0 70 -47 110t-121 40q-72 0 -145 -35q-9 -4 -17 -4q-9 0 -17 5q-11 7 -11 21q0 7 3 16l96 294q8 24 29 24h328q11 0 18 -7t7 -18t-7 -18t-18 -7h-317l-86 -257q23 13 64.5 23 t72.5 10q102 0 162 -52.5t60 -142.5q0 -101 -79 -172t-204 -71q-135 0 -219 101z" />
<glyph unicode="6" horiz-adv-x="640" d="M635 637q11 -11 11 -23q0 -10 -7 -17.5t-17 -7.5q-11 0 -20 9q-69 67 -158 67q-99 0 -181 -82q-49 -49 -83 -121.5t-39 -144.5q35 52 90.5 85t127.5 33q102 0 163 -60t61 -144q0 -99 -76 -171t-190 -72q-102 0 -166 64q-68 68 -68 193q0 112 38.5 208t101.5 159 q100 100 224 100q111 0 188 -75zM320 34q90 0 149.5 58t59.5 139q0 62 -45 109t-128 47q-93 0 -153.5 -56.5t-60.5 -129.5q0 -72 46 -118q49 -49 132 -49z" />
<glyph unicode="7" horiz-adv-x="578" d="M611 656l-461 -642q-14 -18 -29 -18q-22 0 -22 20q0 10 10 24l442 610h-374q-11 0 -18 7t-7 18t7 18t18 7h425q21 0 21 -18q0 -9 -12 -26z" />
<glyph unicode="8" horiz-adv-x="641" d="M295 -10q-113 0 -184 53t-71 130q0 81 60 132.5t154 65.5q-46 17 -76.5 56t-30.5 93q0 81 72 135.5t177 54.5q101 0 166.5 -50t65.5 -129q0 -71 -52 -119.5t-129 -62.5q51 -18 87 -60t36 -98q0 -87 -78.5 -144t-196.5 -57zM375 380q93 0 146 44.5t53 103.5t-49.5 97 t-128.5 38q-87 0 -141 -42t-54 -105q0 -58 49 -97t125 -39zM298 37q98 0 158 43.5t60 112.5q0 59 -55.5 101.5t-146.5 42.5q-99 0 -159.5 -46t-60.5 -112q0 -63 56 -102.5t148 -39.5z" />
<glyph unicode="9" horiz-adv-x="640" d="M243 -13q-110 0 -194 81q-11 11 -11 23q0 10 7 17.5t17 7.5q11 0 20 -9q70 -73 164 -73q98 0 180 82q49 48 82.5 119t39.5 144q-83 -123 -220 -123q-102 0 -163 61q-60 60 -60 144q0 103 78 177q77 73 190 73q101 0 165 -64q68 -68 68 -193q0 -112 -38.5 -208 t-101.5 -159q-100 -100 -223 -100zM335 304q90 0 151 59.5t61 136.5q0 69 -46 115q-50 50 -132 50q-90 0 -149 -59q-61 -61 -61 -145q0 -62 44 -109q45 -48 132 -48z" />
<glyph unicode=":" horiz-adv-x="241" d="M100 58l-10 -36q-8 -26 -36 -26q-14 0 -22 9q-7 7 -7 15q0 4 1 7l10 36q8 26 36 26q14 0 22.5 -9t5.5 -22zM214 483l-10 -36q-8 -26 -36 -26q-14 0 -22 9q-7 7 -7 15q0 4 1 7l10 36q8 26 36 26q14 0 22 -9q7 -7 7 -15q0 -4 -1 -7z" />
<glyph unicode=";" horiz-adv-x="241" d="M-25 -79q32 14 48.5 32t22.5 47q-10 1 -16 9t-3 21l9 33q8 26 36 26q14 0 23 -10t5 -23l-12 -45q-14 -51 -40 -77q-24 -24 -64 -37q-4 -1 -7 -1q-4 0 -7 2q-5 3 -5 10q0 9 10 13zM214 483l-10 -36q-8 -26 -36 -26q-14 0 -22 9q-7 7 -7 15q0 4 1 7l10 36q8 26 36 26 q14 0 22 -9q7 -7 7 -15q0 -4 -1 -7z" />
<glyph unicode="&#x3c;" horiz-adv-x="620" d="M111 380l465 212q12 6 23 6q20 0 20 -22q0 -16 -19 -25l-451 -203l332 -199q15 -8 15 -23q0 -10 -6.5 -17t-16.5 -7q-9 0 -19 6l-351 211q-19 12 -19 27v1q0 22 27 33z" />
<glyph unicode="=" horiz-adv-x="620" d="M160 439q-11 0 -18.5 7.5t-7.5 17.5t8 18t18 8h410q10 0 18 -8t8 -18t-7.5 -17.5t-18.5 -7.5h-410zM100 214q-11 0 -18.5 7.5t-7.5 17.5q0 11 8 18.5t18 7.5h410q10 0 18 -7.5t8 -18.5q0 -10 -7.5 -17.5t-18.5 -7.5h-410z" />
<glyph unicode="&#x3e;" horiz-adv-x="620" d="M560 324l-465 -212q-12 -6 -23 -6q-20 0 -20 22q0 16 19 25l451 203l-332 199q-15 8 -15 23q0 10 6.5 17t16.5 7q9 0 19 -6l351 -211q19 -12 19 -27v-1q0 -22 -27 -33z" />
<glyph unicode="?" horiz-adv-x="534" d="M144 585q-12 -10 -21 -10q-10 0 -16.5 6.5t-6.5 15.5q0 10 8 18q98 94 225 94q92 0 146.5 -49t54.5 -126q0 -94 -75 -152t-190 -74l-39 -114q-5 -15 -17 -15h-1q-8 0 -12.5 6t-2.5 16l24 126q3 21 24 24q106 11 171 58.5t65 123.5q0 61 -43 95t-109 34q-99 0 -185 -77z M209 58l-10 -38q-6 -24 -36 -24q-14 0 -23 8q-6 7 -6 16q0 3 1 6l10 37q8 26 36 26q14 0 23 -9q6 -7 6 -15q0 -4 -1 -7z" />
<glyph unicode="@" horiz-adv-x="980" d="M445 118q76 0 141 64.5t65 142.5q0 57 -35 93.5t-93 36.5q-78 0 -133.5 -64t-55.5 -152q0 -56 31 -88.5t80 -32.5zM695 -118q-95 -43 -209 -43q-191 0 -305.5 107.5t-114.5 284.5q0 127 66 238t179.5 177t245.5 66q181 0 286 -100t105 -253q0 -132 -65 -209t-141 -77 q-52 0 -83 26.5t-38 73.5q-79 -102 -186 -102q-67 0 -112 45.5t-45 120.5q0 107 75 186t168 79q60 0 98.5 -30.5t55.5 -77.5l25 82q7 21 25 21q13 0 19.5 -9.5t2.5 -24.5l-70 -226q-8 -25 -8 -47q0 -24 10 -44q18 -36 68 -36q59 0 112.5 66t53.5 183q0 138 -96 229.5 t-260 91.5q-186 0 -321 -134t-135 -315q0 -162 105.5 -261t279.5 -99q107 0 195 40q6 3 12 3q15 0 15 -16q0 -10 -13 -16z" />
<glyph unicode="A" horiz-adv-x="741" d="M200 243h369l-75 405zM536 682l125 -646q2 -8 2 -16q0 -9 -7 -16.5t-18 -7.5q-22 0 -27 25l-32 175h-413l-131 -181q-15 -19 -28 -19q-9 0 -15.5 6t-6.5 17q0 9 6 15l473 648q19 25 39 25h2q26 0 31 -25z" />
<glyph unicode="B" horiz-adv-x="717" d="M189 377h216q106 0 170 44t64 115q0 57 -42.5 86.5t-118.5 29.5h-215zM101 48h253q109 0 172 42t63 116q0 59 -51 91t-134 32h-228zM351 0h-286q-11 0 -18 8q-5 6 -5 12q0 3 1 6l174 648q3 11 11.5 18.5t18.5 7.5h236q96 0 153 -42.5t57 -116.5t-52 -123.5t-133 -65.5 q60 -16 97 -52t37 -94q0 -91 -79 -148.5t-212 -57.5z" />
<glyph unicode="C" horiz-adv-x="738" d="M639 92q-112 -105 -261 -105q-120 0 -203 77.5t-83 206.5q0 112 55.5 214t153 164.5t209.5 62.5q82 0 144.5 -34t97.5 -91q7 -12 7 -22q-1 -10 -8 -17t-18 -6q-14 0 -21 11q-34 53 -81.5 82.5t-123.5 29.5q-148 0 -254.5 -120t-106.5 -272q0 -109 66.5 -173.5 t170.5 -64.5q125 0 223 92q9 9 19 9t17 -7t7 -17t-10 -20z" />
<glyph unicode="D" horiz-adv-x="771" d="M101 48h171q190 0 310 120q94 94 94 234q0 108 -65 171q-79 79 -233 79h-115zM247 700h134q178 0 272 -94q77 -77 77 -200q0 -162 -109 -271q-64 -64 -156.5 -99.5t-199.5 -35.5h-200q-11 0 -18 8q-5 6 -5 12q0 3 1 6l174 648q3 11 11.5 18.5t18.5 7.5z" />
<glyph unicode="E" horiz-adv-x="649" d="M520 0h-455q-11 0 -18 8q-5 6 -5 12q0 3 1 6l174 648q3 11 11.5 18.5t18.5 7.5h443q10 0 17 -7t7 -17t-7 -17t-17 -7h-427l-74 -275h369q10 0 17 -7t7 -17t-7 -17t-17 -7h-382l-75 -281h419q10 0 17 -7t7 -17t-7 -17t-17 -7z" />
<glyph unicode="F" horiz-adv-x="656" d="M247 700h443q10 0 17 -7t7 -17t-7 -17t-17 -7h-427l-77 -287h369q10 0 17 -7t7 -17t-7 -17t-17 -7h-382l-79 -295q-3 -11 -11.5 -18.5t-18.5 -7.5q-11 0 -18 8q-5 6 -5 12q0 3 1 6l175 652q3 11 11.5 18.5t18.5 7.5z" />
<glyph unicode="G" horiz-adv-x="786" d="M721 335l-72 -252q-6 -22 -25 -33q-110 -63 -228 -63q-132 0 -217 81t-85 214q0 108 55 206.5t154.5 161t217.5 62.5q155 0 238 -104q10 -12 10 -22t-6.5 -17.5t-17.5 -7.5q-13 0 -21 11q-65 93 -208 93q-102 0 -188 -56t-133 -143t-47 -182q0 -116 69 -183t182 -67 q116 0 202 57l64 224h-209q-10 0 -17 7t-7 17t7 17t17 7h242q12 0 19 -9t4 -19z" />
<glyph unicode="H" horiz-adv-x="756" d="M764 674l-176 -655q-6 -23 -28 -23q-11 0 -18.5 8.5t-3.5 21.5l81 302h-443l-83 -309q-6 -23 -28 -23q-11 0 -19 8q-4 6 -4 14q0 3 1 8l176 655q6 23 28 23q11 0 18.5 -8.5t3.5 -21.5l-80 -298h443l82 305q6 23 28 23q11 0 18 -8q5 -6 5 -14q0 -3 -1 -8z" />
<glyph unicode="I" horiz-adv-x="274" d="M276 674l-176 -655q-6 -23 -28 -23q-11 0 -18 8q-5 6 -5 14q0 3 1 8l176 655q6 23 28 23q11 0 18 -8q5 -6 5 -14q0 -3 -1 -8z" />
<glyph unicode="J" horiz-adv-x="538" d="M567 674l-118 -439q-31 -117 -93 -179q-66 -66 -160 -66q-140 0 -194 136q-3 8 -3 17q0 10 7 17t17 7q18 0 25 -20q39 -110 146 -110q75 0 127 52q50 50 78 153l118 439q6 23 28 23q11 0 19 -8q4 -6 4 -14q0 -3 -1 -8z" />
<glyph unicode="K" horiz-adv-x="714" d="M135 175l-42 -156q-6 -23 -28 -23q-11 0 -19 8q-4 6 -4 14q0 3 1 8l176 655q6 23 28 23q11 0 18.5 -8.5t3.5 -21.5l-115 -429l554 450q10 9 22 9q10 0 16.5 -6.5t6.5 -16.5q0 -12 -12 -21l-339 -273l190 -347q6 -10 6 -19q0 -11 -7 -18t-18 -7q-17 0 -27 18l-187 343z " />
<glyph unicode="L" horiz-adv-x="600" d="M485 0h-420q-11 0 -18 8q-5 6 -5 12q0 3 1 6l176 655q6 23 28 23q11 0 18.5 -8.5t3.5 -21.5l-168 -626h384q10 0 17 -7t7 -17t-7 -17t-17 -7z" />
<glyph unicode="M" horiz-adv-x="869" d="M852 703h1q14 0 21 -9q4 -6 4 -13q0 -5 -2 -10l-175 -652q-6 -23 -29 -23q-11 0 -18 8t-3 22l156 582l-356 -373q-14 -14 -25 -14q-15 0 -21 15l-156 372l-157 -588q-6 -24 -28 -24q-11 0 -18 8q-4 5 -4 13q0 4 1 9l174 648q8 29 29 29h1q19 0 27 -20l163 -397l375 396 q20 21 40 21z" />
<glyph unicode="N" horiz-adv-x="786" d="M587 87l160 594q6 23 27 23q11 0 18 -8q4 -5 4 -13q0 -4 -1 -9l-176 -655q-6 -22 -24 -22h-1q-16 0 -27 21l-313 608l-163 -607q-6 -23 -27 -23q-11 0 -18 8q-4 5 -4 13q0 4 1 9l175 651q7 26 30 26h2q20 0 34 -26z" />
<glyph unicode="O" horiz-adv-x="846" d="M398 -13q-131 0 -216.5 86.5t-85.5 214.5q0 108 53.5 206t147 158t202.5 60q131 0 216.5 -86.5t85.5 -214.5q0 -108 -53.5 -206t-147 -158t-202.5 -60zM398 34q96 0 177 54t126.5 140.5t45.5 182.5q0 109 -69 181.5t-179 72.5q-96 0 -177 -54t-126.5 -140.5t-45.5 -182.5 q0 -109 69 -181.5t179 -72.5z" />
<glyph unicode="P" horiz-adv-x="663" d="M159 262l-66 -243q-6 -23 -28 -23q-11 0 -19 8q-4 6 -4 14q0 3 1 8l174 648q3 11 11.5 18.5t18.5 7.5h195q130 0 193 -63q48 -48 48 -125q0 -118 -93 -184t-253 -66h-178zM171 309h168q141 0 216.5 52.5t75.5 148.5q0 57 -36 93q-49 49 -154 49h-178z" />
<glyph unicode="Q" horiz-adv-x="846" d="M523 243l100 -117q58 54 91 129.5t33 155.5q0 109 -69 181.5t-179 72.5q-96 0 -177 -54t-126.5 -140.5t-45.5 -182.5q0 -109 69 -181.5t179 -72.5q103 0 190 63l-98 109q-13 15 -13 24q0 25 24 25q12 0 22 -12zM677 -6l-57 67q-103 -74 -222 -74q-131 0 -216.5 86.5 t-85.5 214.5q0 108 53.5 206t147 158t202.5 60q131 0 216.5 -86.5t85.5 -214.5q0 -90 -39 -175t-107 -146l57 -62q12 -14 12 -23q0 -23 -24 -23q-13 0 -23 12z" />
<glyph unicode="R" horiz-adv-x="713" d="M166 290l-73 -271q-6 -23 -28 -23q-11 0 -19 8q-4 6 -4 14q0 3 1 8l174 648q3 11 11.5 18.5t18.5 7.5h228q126 0 188 -62q44 -44 44 -114q0 -84 -62 -146q-68 -68 -206 -83l132 -253q7 -13 7 -22q0 -10 -7.5 -17t-18.5 -7q-17 0 -25 16l-144 278h-217zM178 337h210 q149 0 220 71q47 47 47 113q0 52 -31 83q-48 48 -151 48h-210z" />
<glyph unicode="S" horiz-adv-x="638" d="M304 37q86 0 144 43.5t58 109.5q0 46 -34 77t-119 64q-111 43 -155.5 83t-44.5 103q0 81 70 137t181 56q132 0 224 -86q11 -11 11 -22q0 -10 -7.5 -17.5t-17.5 -7.5q-12 0 -22 10q-76 76 -193 76q-87 0 -140 -42t-53 -100q0 -47 38 -77.5t129 -65.5q100 -38 143 -79.5 t43 -104.5q0 -86 -74 -145t-186 -59q-165 0 -263 113q-10 13 -10 22q0 11 7 18t17 7q13 0 22 -12q87 -101 232 -101z" />
<glyph unicode="T" horiz-adv-x="615" d="M436 652l-170 -633q-6 -23 -28 -23q-11 0 -18.5 8.5t-3.5 21.5l168 626h-217q-10 0 -17 7t-7 17t7 17t17 7h499q10 0 17 -7t7 -17t-7 -17t-17 -7h-230z" />
<glyph unicode="U" horiz-adv-x="756" d="M775 674l-105 -391q-35 -130 -111 -206q-88 -88 -211 -88q-122 0 -187 61t-65 159q0 54 14 108l97 364q6 23 28 23q11 0 18.5 -8.5t3.5 -21.5l-101 -381q-9 -36 -9 -80q0 -79 52 -128t153 -49q99 0 171 72q65 65 98 186l104 387q6 23 28 23q11 0 19 -8q4 -6 4 -14 q0 -3 -1 -8z" />
<glyph unicode="V" horiz-adv-x="714" d="M774 663l-452 -644q-18 -26 -38 -26h-2q-23 0 -27 26l-107 645q-2 10 -2 16q0 10 7.5 17t18.5 7q24 0 27 -25l96 -623l436 629q13 19 29 19q22 0 22 -20q0 -10 -8 -21z" />
<glyph unicode="W" horiz-adv-x="1074" d="M1130 665l-407 -647q-6 -10 -9 -13.5t-9.5 -8t-14.5 -4.5h-2q-21 0 -23 26l-40 585l-354 -585q-15 -26 -33 -26h-2q-21 0 -23 26l-60 646q0 1 -0.5 6.5t-0.5 7.5q0 11 8 18.5t19 7.5q25 0 27 -27l51 -600l363 610q10 17 27 17h1q20 0 22 -21l37 -606l377 607q12 20 31 20 q9 0 15 -6t6 -14q0 -10 -6 -19z" />
<glyph unicode="X" horiz-adv-x="692" d="M405 353l170 -313q7 -14 7 -22q0 -9 -7 -15.5t-17 -6.5q-16 0 -23 15l-167 312l-313 -312q-15 -15 -27 -15q-10 0 -16 6t-6 15q0 11 10 21l327 324l-164 298q-7 14 -7 22q0 9 7 15.5t17 6.5q16 0 23 -15l161 -297l299 297q15 15 27 15q10 0 16 -6t6 -15q0 -11 -10 -21z " />
<glyph unicode="Y" horiz-adv-x="668" d="M358 271l-67 -252q-6 -23 -28 -23q-11 0 -18.5 8.5t-3.5 21.5l69 258l-166 377q-4 9 -4 18q0 11 7 18t18 7q17 0 27 -23l153 -357l354 366q14 14 28 14q9 0 16 -6.5t7 -15.5q0 -12 -12 -24z" />
<glyph unicode="Z" horiz-adv-x="662" d="M5 45l620 608h-425q-10 0 -17 6.5t-7 16.5t7 17t17 7h489q20 0 20 -17v-1q0 -13 -14 -27l-620 -608h445q10 0 17 -6.5t7 -16.5t-7 -17t-17 -7h-509q-20 0 -20 17v1q0 13 14 27z" />
<glyph unicode="[" horiz-adv-x="430" d="M491 662h-217l-202 -754h207q7 0 13 -6t6 -13t-6 -13t-13 -6h-231q-14 0 -21 8q-4 6 -4 13q0 4 1 9l208 774q6 26 34 26h225q7 0 13 -6t6 -13t-6 -13t-13 -6z" />
<glyph unicode="\" d="M195 781l210 -879q2 -8 2 -13q0 -9 -6 -15t-15 -6q-18 0 -22 21l-210 879q-2 8 -2 13q0 9 6 15t15 6q18 0 22 -21z" />
<glyph unicode="]" horiz-adv-x="430" d="M179 -130h-225q-8 0 -13.5 6t-5.5 13t5.5 13t13.5 6h217l202 754h-207q-8 0 -13.5 6t-5.5 13t5.5 13t13.5 6h231q14 0 21 -8q4 -6 4 -13q0 -4 -1 -9l-208 -774q-7 -26 -34 -26z" />
<glyph unicode="^" d="M154 517l175 172q18 18 34 18h4q19 0 27 -18l85 -176q4 -8 4 -12q0 -12 -17 -12q-22 0 -30 16l-77 155l-162 -156q-16 -15 -37 -15q-15 0 -15 12q0 7 9 16z" />
<glyph unicode="_" horiz-adv-x="600" d="M-107 -160q-9 0 -15.5 6.5t-6.5 15.5t6.5 15.5t15.5 6.5h604q9 0 15.5 -6.5t6.5 -15.5t-6.5 -15.5t-15.5 -6.5h-604z" />
<glyph unicode="`" d="M361 604l-61 80q-7 8 -7 16t12.5 15.5t26.5 7.5q21 0 28 -18l36 -92q3 -9 3 -12q0 -9 -13 -9q-16 0 -25 12z" />
<glyph unicode="a" horiz-adv-x="571" d="M199 33q75 0 141.5 47.5t86.5 122.5l12 45q-96 24 -193 24q-76 0 -123.5 -37.5t-47.5 -97.5q0 -47 33.5 -75.5t90.5 -28.5zM398 -4q-11 0 -17 8t-3 20l17 64q-84 -100 -205 -100q-69 0 -118 37.5t-49 105.5q0 84 64 134.5t166 50.5q90 0 196 -29l4 14q7 26 7 51 q0 58 -39.5 89t-114.5 31q-66 0 -129 -21q-8 -2 -13 -2q-20 0 -20 22q0 17 19 23q72 24 147 24q93 0 145.5 -42.5t52.5 -116.5q0 -29 -10 -67l-73 -273q-6 -23 -27 -23z" />
<glyph unicode="b" horiz-adv-x="654" d="M312 -13q-79 0 -130 40.5t-73 102.5l-30 -111q-6 -23 -27 -23q-11 0 -17 8q-4 5 -4 12q0 4 1 8l184 687q6 23 27 23q11 0 17 -8t3 -20l-80 -296q94 112 212 112q89 0 147 -60.5t58 -154.5q0 -134 -86 -227t-202 -93zM310 33q101 0 169 80t68 188q0 78 -44 126.5 t-114 48.5q-96 0 -175.5 -82t-79.5 -183q0 -75 49.5 -126.5t126.5 -51.5z" />
<glyph unicode="c" horiz-adv-x="563" d="M459 62q-86 -74 -187 -74q-89 0 -155.5 60t-66.5 160q0 126 89.5 220t210.5 94q123 0 188 -101q7 -11 7 -20t-6.5 -15.5t-15.5 -6.5q-15 0 -24 13q-57 84 -152 84q-97 0 -170.5 -80t-73.5 -185q0 -82 50.5 -129.5t121.5 -47.5q80 0 153 62q8 7 19 7q9 0 15 -6.5t6 -15.5 q0 -10 -9 -19z" />
<glyph unicode="d" horiz-adv-x="654" d="M265 33q96 0 175.5 82t79.5 183q0 75 -49.5 126.5t-126.5 51.5q-101 0 -169 -80t-68 -188q0 -78 44 -126.5t114 -48.5zM471 -4q-11 0 -17 8t-3 20l19 75q-94 -112 -211 -112q-89 0 -147 60.5t-58 154.5q0 134 86 227t202 93q79 0 130 -40.5t73 -102.5l89 332q6 23 27 23 q11 0 17 -8q4 -5 4 -12q0 -4 -1 -8l-183 -687q-6 -23 -27 -23z" />
<glyph unicode="e" horiz-adv-x="583" d="M114 282h370q4 18 4 42q0 66 -36.5 109.5t-107.5 43.5q-82 0 -144.5 -56t-85.5 -139zM272 34q90 0 161 58q9 7 19 7q9 0 15 -6t6 -15q0 -12 -10 -20q-83 -70 -191 -70q-98 0 -160 60t-62 154q0 123 87 221.5t208 98.5q92 0 142.5 -56t50.5 -139q0 -33 -7 -66 q-5 -23 -30 -23h-396q-2 -22 -2 -34q0 -77 47 -123.5t122 -46.5z" />
<glyph unicode="f" horiz-adv-x="362" d="M229 465l-120 -446q-6 -23 -27 -23q-11 0 -17 8q-4 5 -4 12q0 4 1 8l118 441h-48q-10 0 -16.5 6.5t-6.5 16.5q0 9 7 15.5t16 6.5h60l20 74q39 146 163 146q44 0 82 -15q20 -8 20 -25q0 -11 -9.5 -18t-22.5 -1q-37 15 -72 15q-86 0 -115 -113l-17 -63h158q10 0 16.5 -6.5 t6.5 -16.5q0 -9 -7 -15.5t-16 -6.5h-170z" />
<glyph unicode="g" horiz-adv-x="654" d="M282 84q95 0 169.5 70.5t74.5 157.5q0 65 -49.5 114t-129.5 49q-93 0 -163.5 -67t-70.5 -169q0 -73 50 -114t119 -41zM548 386l28 105q6 23 27 23q11 0 17 -8q4 -5 4 -12q0 -4 -1 -8l-112 -423q-27 -99 -80 -152q-73 -73 -195 -73q-127 0 -226 82q-11 9 -11 23 q0 9 6.5 16t16.5 7q11 0 20 -7q88 -75 196 -75q100 0 157 57q45 45 70 134l18 64q-95 -101 -210 -101q-86 0 -149.5 54.5t-63.5 143.5q0 123 88 204.5t201 81.5q140 0 199 -136z" />
<glyph unicode="h" horiz-adv-x="609" d="M534 288l-71 -269q-6 -23 -27 -23q-11 0 -17 8t-3 20l71 268q8 30 8 63q0 57 -35 90t-96 33q-67 0 -129 -54t-84 -136l-72 -269q-6 -23 -27 -23q-11 0 -17 8q-4 5 -4 12q0 4 1 8l184 687q6 23 27 23q11 0 17 -8t3 -20l-78 -291q89 107 193 107q76 0 121.5 -44.5 t45.5 -117.5q0 -28 -11 -72z" />
<glyph unicode="i" horiz-adv-x="250" d="M265 661q-6 -23 -34 -23q-14 0 -21.5 8t-4.5 20l7 26q6 23 34 23q14 0 22 -8q5 -6 5 -13q0 -4 -1 -7zM211 486l-125 -467q-6 -23 -27 -23q-11 0 -17 8q-4 5 -4 12q0 4 1 8l125 467q6 23 27 23q11 0 17 -8q4 -5 4 -12q0 -4 -1 -8z" />
<glyph unicode="j" horiz-adv-x="249" d="M211 486l-144 -538q-14 -53 -45 -82t-74 -29q-63 0 -63 27q0 12 8 18t21 4q21 -3 31 -3q55 0 74 69l145 539q6 23 27 23q11 0 17 -8t3 -20zM265 661q-6 -23 -34 -23q-14 0 -21 8q-6 6 -6 13q0 4 1 7l7 26q6 23 34 23q14 0 22 -8q5 -6 5 -13q0 -4 -1 -7z" />
<glyph unicode="k" horiz-adv-x="560" d="M263 706l-138 -517l391 317q10 8 21 8q21 0 21 -20q0 -12 -11 -20l-239 -192l131 -243q7 -12 7 -19q0 -10 -7 -17t-18 -7q-16 0 -25 17l-129 239l-160 -128l-28 -105q-6 -23 -27 -23q-11 0 -17 8q-4 5 -4 12q0 4 1 8l184 687q6 23 27 23q11 0 17 -8t3 -20z" />
<glyph unicode="l" horiz-adv-x="250" d="M270 706l-184 -687q-6 -23 -27 -23q-11 0 -17 8q-4 5 -4 12q0 4 1 8l184 687q6 23 27 23q11 0 17 -8q4 -5 4 -12q0 -4 -1 -8z" />
<glyph unicode="m" horiz-adv-x="951" d="M396 24l71 268q8 30 8 63q0 56 -33 89.5t-88 33.5q-62 0 -122 -54.5t-81 -135.5l-72 -269q-6 -23 -27 -23q-11 0 -17 8q-4 5 -4 12q0 4 1 8l124 467q6 23 27 23q11 0 17 -8t3 -20l-18 -71q43 53 84.5 80t98.5 27q64 0 102 -36.5t47 -88.5q76 125 214 125q69 0 114 -45.5 t45 -116.5q0 -20 -13 -72l-71 -269q-6 -23 -27 -23q-11 0 -17 8t-3 20l71 268q8 30 8 63q0 56 -33 89.5t-88 33.5q-62 0 -122 -54.5t-81 -135.5l-71 -269q-6 -23 -27 -23q-11 0 -17 8t-3 20z" />
<glyph unicode="n" horiz-adv-x="611" d="M183 514q11 0 17 -8t3 -20l-18 -71q89 107 193 107q76 0 121.5 -44.5t45.5 -117.5q0 -28 -11 -72l-71 -269q-6 -23 -27 -23q-11 0 -17 8t-3 20l71 268q8 30 8 63q0 57 -35 90t-96 33q-67 0 -129 -54t-84 -136l-72 -269q-6 -23 -27 -23q-11 0 -17 8q-4 5 -4 12q0 4 1 8 l124 467q6 23 27 23z" />
<glyph unicode="o" horiz-adv-x="633" d="M278 -12q-101 0 -164 63.5t-63 162.5q0 122 91 215t212 93q101 0 164 -63.5t63 -162.5q0 -124 -92 -216t-211 -92zM283 34q95 0 170 78t75 182q0 85 -49 133.5t-130 48.5q-97 0 -171 -79t-74 -181q0 -85 49 -133.5t130 -48.5z" />
<glyph unicode="p" horiz-adv-x="654" d="M389 476q-96 0 -175.5 -82t-79.5 -183q0 -75 49.5 -126.5t126.5 -51.5q101 0 169 80t68 188q0 78 -44 126.5t-114 48.5zM183 514q11 0 17 -8t3 -20l-20 -76q94 112 212 112q89 0 147 -60.5t58 -154.5q0 -134 -86 -227t-202 -93q-79 0 -130 40.5t-73 102.5l-73 -271 q-6 -23 -27 -23q-11 0 -17 8q-4 5 -4 12q0 4 1 8l167 627q6 23 27 23z" />
<glyph unicode="q" horiz-adv-x="654" d="M342 522q80 0 130.5 -40.5t72.5 -101.5l30 111q6 23 27 23q11 0 17 -8q4 -5 4 -12q0 -4 -1 -8l-167 -627q-6 -23 -27 -23q-11 0 -17 8t-3 20l63 236q-94 -113 -212 -113q-89 0 -147 60.5t-58 154.5q0 134 86 227t202 93zM344 476q-101 0 -169 -80t-68 -188 q0 -78 44 -126.5t114 -48.5q96 0 175.5 82.5t79.5 183.5q0 75 -49.5 126t-126.5 51z" />
<glyph unicode="r" horiz-adv-x="396" d="M203 486l-31 -121q46 69 110 111t123 42q26 0 26 -25q0 -27 -36 -30q-86 -8 -160.5 -75t-104.5 -179l-51 -190q-6 -23 -27 -23q-11 0 -17 8q-4 5 -4 12q0 4 1 8l124 467q6 23 27 23q11 0 17 -8t3 -20z" />
<glyph unicode="s" horiz-adv-x="495" d="M223 34q51 0 91.5 28.5t40.5 72.5q0 31 -23.5 54t-87.5 47q-76 28 -109.5 58.5t-33.5 78.5q0 62 52.5 105t136.5 43q44 0 91 -16.5t75 -37.5q13 -10 13 -23q0 -10 -6.5 -16.5t-16.5 -6.5q-8 0 -16 5q-72 50 -145 50q-61 0 -96.5 -28t-35.5 -67q0 -31 23 -52t92 -48 q76 -30 107.5 -61t31.5 -77q0 -66 -56 -110t-134 -44q-111 0 -199 72q-12 10 -12 23q0 10 6.5 17t16.5 7q9 0 22 -10q77 -64 172 -64z" />
<glyph unicode="t" horiz-adv-x="396" d="M189 510l39 144q6 23 27 23q11 0 17 -8t3 -20l-37 -139h150q10 0 16.5 -6.5t6.5 -16.5q0 -9 -7 -15.5t-16 -6.5h-162l-87 -325q-5 -22 -5 -43q0 -61 83 -61q21 0 41 6q14 4 22.5 -1t8.5 -17q0 -15 -20 -23q-28 -10 -63 -10q-54 0 -88 25.5t-34 75.5q0 23 6 49l87 324h-48 q-10 0 -16.5 6.5t-6.5 16.5q0 9 7 15.5t16 6.5h60z" />
<glyph unicode="u" horiz-adv-x="609" d="M426 -4q-11 0 -17 8t-3 20l18 71q-89 -107 -193 -107q-76 0 -121.5 44.5t-45.5 117.5q0 28 11 72l71 269q6 23 27 23q11 0 17 -8t3 -20l-71 -268q-8 -30 -8 -63q0 -57 35 -90t96 -33q67 0 129 54t84 136l72 269q6 23 27 23q11 0 17 -8q4 -5 4 -12q0 -4 -1 -8l-124 -467 q-6 -23 -27 -23z" />
<glyph unicode="v" horiz-adv-x="557" d="M558 472l-324 -458q-15 -21 -31 -21h-2q-21 0 -25 21l-80 456q-2 10 -2 19q0 11 7 18t18 7q23 0 26 -26l68 -433l302 439q13 20 28 20q10 0 16 -6.5t6 -14.5q0 -11 -7 -21z" />
<glyph unicode="w" horiz-adv-x="845" d="M146 21l-44 452q0 1 -0.5 6.5t-0.5 7.5q0 27 26 27q22 0 24 -27l35 -421l263 430q12 18 28 18h1q20 0 22 -22l33 -426l266 429q11 19 26 19q21 0 21 -20q0 -9 -6 -19l-292 -462q-12 -20 -29 -20h-1q-23 0 -26 28l-33 412l-259 -419q-12 -21 -29 -21h-1q-22 0 -24 28z" />
<glyph unicode="x" horiz-adv-x="559" d="M183 496l105 -201l211 203q16 16 28 16q9 0 15 -6t6 -15q0 -11 -12 -22l-226 -211l119 -220q7 -14 7 -22q0 -9 -7 -15.5t-17 -6.5q-15 0 -24 18l-111 215l-227 -217q-16 -16 -28 -16q-9 0 -15 6t-6 15q0 11 12 22l242 225l-113 206q-7 14 -7 22q0 9 7 15.5t17 6.5 q15 0 24 -18z" />
<glyph unicode="y" horiz-adv-x="568" d="M-46 -98q40 -19 72 -19q40 0 78.5 27.5t84.5 92.5l-96 468q-2 10 -2 18q0 25 24 25q21 0 26 -26l85 -434l296 440q13 20 29 20q22 0 22 -21q0 -10 -6 -19l-338 -492q-54 -78 -103.5 -111.5t-105.5 -33.5q-46 0 -91 24q-14 7 -14 22q0 10 6.5 16.5t16.5 6.5q8 0 16 -4z " />
<glyph unicode="z" horiz-adv-x="546" d="M147 510h380q21 0 21 -18v-1q0 -10 -10 -20l-463 -427h336q9 0 15.5 -6.5t6.5 -15.5t-6.5 -15.5t-15.5 -6.5h-397q-21 0 -21 18v1q0 10 10 20l463 427h-319q-9 0 -15.5 6.5t-6.5 15.5t6.5 15.5t15.5 6.5z" />
<glyph unicode="{" horiz-adv-x="480" d="M89 306h12q77 0 112.5 40.5t56.5 143.5q21 106 76.5 159.5t178.5 64.5h4q18 0 18 -18q0 -17 -20 -19q-99 -8 -145.5 -54t-63.5 -138q-20 -103 -53.5 -146t-99.5 -54q69 -21 69 -83q0 -27 -9 -57q-22 -75 -22 -115q0 -100 107 -135q16 -6 16 -17q0 -9 -7 -14q-4 -4 -10 -4 q-4 0 -9 2q-146 38 -146 164q0 36 23 120q9 32 9 55q0 67 -95 67h-2q-24 0 -24 19t24 19z" />
<glyph unicode="|" horiz-adv-x="286" d="M141 -110v890q0 9 6.5 15.5t15.5 6.5t15.5 -6.5t6.5 -15.5v-890q0 -9 -6.5 -15.5t-15.5 -6.5t-15.5 6.5t-6.5 15.5z" />
<glyph unicode="}" horiz-adv-x="480" d="M408 268h-12q-77 0 -112.5 -40.5t-56.5 -143.5q-21 -106 -76.5 -159.5t-178.5 -64.5h-4q-18 0 -18 18q0 17 20 19q99 8 145.5 54t63.5 138q20 103 53.5 146t99.5 54q-69 21 -69 83q0 27 9 57q22 75 22 115q0 100 -107 135q-16 6 -16 17q0 9 7 14q4 4 10 4q4 0 9 -2 q146 -38 146 -164q0 -36 -23 -120q-9 -32 -9 -55q0 -67 95 -67h2q24 0 24 -19t-24 -19z" />
<glyph unicode="~" horiz-adv-x="460" d="M112 242q-21 0 -21 18q0 10 7 21q21 36 41.5 55.5t51.5 19.5q20 0 33.5 -8t33.5 -27q31 -30 48 -30q23 0 52 48q9 15 20 15q21 0 21 -18q0 -10 -7 -21q-21 -36 -41.5 -55.5t-51.5 -19.5q-20 0 -33.5 8t-33.5 27q-31 30 -48 30q-23 0 -52 -48q-9 -15 -20 -15z" />
<glyph unicode="&#xa1;" horiz-adv-x="251" d="M34 25l145 482q4 13 15 13q17 0 12 -20l-114 -481q-5 -22 -29 -22h-8q-12 0 -19 7q-4 5 -4 12q0 4 2 9zM271 674l-10 -37q-8 -26 -36 -26q-14 0 -23 9q-6 7 -6 15q0 4 1 7l10 38q6 24 36 24q14 0 23 -8q6 -7 6 -16q0 -3 -1 -6z" />
<glyph unicode="&#xa2;" horiz-adv-x="558" d="M499 163q-85 -76 -203 -76q-22 0 -47 5l-31 -78q-10 -24 -28 -24q-12 0 -18 9.5t-1 21.5l33 84q-59 25 -94 78t-35 120q0 130 90 224t215 94q18 0 27 -1l26 66q10 24 27 24q13 0 19 -9t1 -22l-27 -67q80 -19 124 -92q6 -10 6 -17q0 -11 -7 -17.5t-16 -6.5q-14 0 -22 12 q-21 32 -44 49.5t-61 28.5l-170 -433q17 -3 36 -3q90 0 169 64q8 6 17 6t15.5 -7t6.5 -16t-8 -17zM128 304q0 -54 25 -95.5t70 -60.5l168 427h-14q-103 0 -176 -80t-73 -191z" />
<glyph unicode="&#xa3;" horiz-adv-x="624" d="M454 660q-71 0 -121 -50q-46 -46 -70 -135l-33 -122h271q10 0 17 -7t7 -17t-7 -17t-17 -7h-284l-69 -258h347q10 0 17 -7t7 -17t-7 -16.5t-17 -6.5h-484q-13 0 -13 13q0 11 12 14l86 18l70 260h-59q-10 0 -17 7t-7 17t7 17t17 7h72l35 131q27 102 80 155q68 68 163 68 q107 0 170 -84q10 -15 10 -23q0 -11 -7.5 -18.5t-17.5 -7.5q-14 0 -21 11q-27 38 -58.5 56.5t-78.5 18.5z" />
<glyph unicode="&#xa5;" horiz-adv-x="700" d="M364 324l354 366q14 14 27 14q9 0 15.5 -6t6.5 -16t-11 -23l-340 -346h159q9 0 16 -7t7 -16t-7 -15.5t-16 -6.5h-201l-26 -98h189q9 0 16 -6.5t7 -16.5q0 -9 -7 -15.5t-16 -6.5h-201l-28 -106q-6 -23 -28 -23q-11 0 -18.5 8.5t-3.5 21.5l26 99h-185q-9 0 -16 6.5t-7 15.5 q0 10 7 16.5t16 6.5h197l26 98h-185q-9 0 -16 6.5t-7 15.5t7 16t16 7h177l-153 349q-4 9 -4 18q0 10 7 17t18 7q19 0 29 -23z" />
<glyph unicode="&#xa7;" horiz-adv-x="632" d="M392 245q62 0 104 26t42 63q0 29 -30.5 52t-102.5 48q-61 21 -117 21q-62 0 -104 -26t-42 -63q0 -29 30.5 -52t102.5 -48q60 -21 117 -21zM295 35q52 0 87 21.5t35 56.5q0 31 -32 54t-107 49q-100 35 -144 67t-44 79q0 58 56 93t142 35q-77 34 -77 96q0 57 52 90.5 t129 33.5q57 0 113 -20t93 -49q12 -9 12 -22q0 -11 -7 -18.5t-17 -7.5q-9 0 -19 8q-80 64 -182 64q-52 0 -87 -21.5t-35 -56.5q0 -31 32 -54t107 -49q100 -35 144 -67t44 -79q0 -58 -56 -93t-142 -35q77 -34 77 -96q0 -57 -52 -90.5t-129 -33.5q-116 0 -207 69q-12 9 -12 22 q0 11 7 18.5t17 7.5q9 0 19 -8q79 -64 183 -64z" />
<glyph unicode="&#xa8;" d="M287 616q-8 -27 -37 -27q-15 0 -24 9q-6 8 -6 17q0 3 1 7l9 33q8 27 37 27q15 0 24 -10t5 -23zM450 616q-8 -27 -37 -27q-15 0 -23 9q-7 8 -7 17q0 3 1 7l9 33q8 27 37 27q15 0 24 -10q6 -7 6 -15q0 -4 -1 -8z" />
<glyph unicode="&#xa9;" horiz-adv-x="830" d="M439 -12q-151 0 -256 106t-105 255t106 256t257 107t256 -106t105 -255t-106 -256t-257 -107zM439 16q141 0 237 98t96 237t-95 236t-236 97t-237 -98t-96 -237t95 -236t236 -97zM444 166q-77 0 -129.5 55t-52.5 133v2q0 77 53 133t130 56q72 0 129 -50q9 -7 9 -18 q0 -9 -6.5 -15t-15.5 -6q-7 0 -16 7q-49 42 -101 42q-59 0 -98.5 -43.5t-39.5 -104.5v-2q0 -61 40.5 -105t98.5 -44q56 0 105 43q8 6 15 6q19 0 19 -19q0 -9 -8 -17q-58 -53 -132 -53z" />
<glyph unicode="&#xaa;" horiz-adv-x="390" d="M201 442q38 0 75 27.5t47 64.5l4 14q-50 12 -90 12q-39 0 -64 -20t-25 -51q0 -21 14.5 -34t38.5 -13zM262 667q-34 0 -62 -9q-9 -3 -15 -3q-16 0 -16 18q0 13 15 17q40 14 85 14q53 0 82 -23.5t29 -64.5q0 -13 -6 -39l-39 -146q-5 -19 -22 -19q-18 0 -18 15q0 3 1 7l9 32 q-51 -56 -114 -56q-36 0 -60.5 20.5t-24.5 54.5q0 48 36.5 77t94.5 29q39 0 97 -15l2 6q4 14 4 27q0 58 -78 58zM78 293q-8 0 -14 6t-6 14t6 14t14 6h214q8 0 14 -6t6 -14t-6 -14t-14 -6h-214z" />
<glyph unicode="&#xab;" horiz-adv-x="515" d="M54 266l191 184q16 16 27 16q21 0 21 -22q0 -10 -9 -19l-177 -177l75 -166q4 -9 4 -17q0 -9 -6.5 -15.5t-16.5 -6.5q-15 0 -23 17l-88 177q-5 10 -5 15q0 7 7 14zM258 266l191 184q16 16 27 16q21 0 21 -22q0 -10 -9 -19l-177 -177l75 -166q4 -9 4 -17q0 -9 -6.5 -15.5 t-16.5 -6.5q-15 0 -23 17l-88 177q-5 10 -5 15q0 7 7 14z" />
<glyph unicode="&#xad;" horiz-adv-x="409" d="M326 269h-221q-11 0 -19.5 8.5t-8.5 19.5t8.5 19.5t19.5 8.5h221q11 0 19.5 -8.5t8.5 -19.5t-8.5 -19.5t-19.5 -8.5z" />
<glyph unicode="&#xae;" horiz-adv-x="416" d="M283 360q-73 0 -123.5 51t-50.5 123v1q0 72 51 123.5t123 51.5q73 0 123.5 -51t50.5 -123v-1q0 -72 -51 -123.5t-123 -51.5zM283 379q65 0 109.5 46t44.5 110v1q0 64 -44.5 109.5t-109.5 45.5t-109.5 -46t-44.5 -110v-1q0 -64 44.5 -109.5t109.5 -45.5zM218 462v150 q0 14 14 14h64q28 0 46.5 -14.5t18.5 -39.5q0 -41 -42 -54l38 -45q5 -6 5 -12q0 -13 -13 -13q-8 0 -14 8l-49 59h-40v-53q0 -14 -14 -14t-14 14zM246 538h47q39 0 39 32q0 31 -39 31h-47v-63z" />
<glyph unicode="&#xaf;" d="M487 621h-264q-10 0 -17 7t-7 17t7 17t17 7h264q10 0 17 -7t7 -17t-7 -17t-17 -7z" />
<glyph unicode="&#xb0;" horiz-adv-x="366" d="M214 411q-55 0 -90.5 36t-35.5 90q0 67 49.5 117.5t116.5 50.5q55 0 90.5 -36t35.5 -90q0 -67 -49.5 -117.5t-116.5 -50.5zM219 453q46 0 81 36.5t35 84.5q0 41 -24 65t-62 24q-46 0 -81 -36.5t-35 -84.5q0 -41 24 -65t62 -24z" />
<glyph unicode="&#xb1;" horiz-adv-x="620" d="M363 358l-49 -183q-7 -24 -28 -24q-12 0 -18 9t-3 20l48 178h-181q-10 0 -17 7t-7 17t7 17t17 7h194l49 184q7 23 28 23q12 0 18 -8.5t3 -19.5l-48 -179h181q10 0 17 -6.5t7 -16.5t-7 -17.5t-17 -7.5h-194zM37 0h424q10 0 17 7t7 17t-7 17t-17 7h-424q-10 0 -17 -7 t-7 -17t7 -17t17 -7z" />
<glyph unicode="&#xb2;" horiz-adv-x="588" d="M454 0h-446q-25 0 -25 21q0 13 12 22l413 321q64 50 93.5 90.5t29.5 87.5q0 53 -40 87t-110 34q-96 0 -186 -86q-13 -11 -23 -11t-16.5 6t-6.5 16q0 12 11 23q53 48 104.5 73.5t118.5 25.5q89 0 145.5 -46.5t56.5 -120.5q0 -58 -35.5 -107t-109.5 -106l-362 -280h376 q10 0 17.5 -7t7.5 -18t-7.5 -18t-17.5 -7z" />
<glyph unicode="&#xb3;" horiz-adv-x="606" d="M21 104q-6 10 -6 21q0 10 7 17t17 7q13 0 22 -15q62 -99 192 -99q93 0 154 49.5t61 126.5q0 66 -52.5 99.5t-143.5 33.5h-15q-24 0 -24 18q0 9 9 17l302 272h-346q-11 0 -18 7t-7 17q0 11 7.5 18t17.5 7h411q21 0 21 -18q0 -13 -13 -24l-301 -272q89 -4 148 -48.5 t59 -122.5q0 -98 -80 -162.5t-193 -64.5q-159 0 -229 116z" />
<glyph unicode="&#xb4;" d="M418 683l-103 -78q-17 -13 -38 -13q-14 0 -14 10q0 6 5 11l88 95q17 17 29 17q14 0 29 -8.5t15 -16.5q0 -9 -11 -17z" />
<glyph unicode="&#xb6;" horiz-adv-x="486" d="M493 670l-175 -651q-6 -23 -29 -23q-11 0 -18.5 8.5t-3.5 21.5l63 237q-101 6 -164.5 50t-63.5 133q0 119 87 186.5t239 67.5h43q13 0 19 -8q5 -5 5 -12q0 -5 -2 -10z" />
<glyph unicode="&#xb7;" horiz-adv-x="231" d="M163 313l-10 -38q-6 -24 -36 -24q-14 0 -23 9q-6 6 -6 15q0 3 1 6l10 37q8 26 36 26q14 0 23 -9q6 -7 6 -15q0 -4 -1 -7z" />
<glyph unicode="&#xb8;" d="M238 10l-107 -141q-10 -12 -21 -12t-19 7t-8 16q0 11 10 22l102 108h43z" />
<glyph unicode="&#xb9;" horiz-adv-x="334" d="M327 679l-177 -660q-6 -23 -28 -23q-11 0 -18 8q-5 6 -5 14q0 3 1 8l167 622l-119 -38q-9 -3 -16 -3q-9 0 -14.5 6.5t-5.5 15.5q0 17 18 23l144 48q19 7 34 7h1q20 0 20 -17q0 -5 -2 -11z" />
<glyph unicode="&#xba;" horiz-adv-x="390" d="M245 407q-58 0 -94 36.5t-36 92.5q0 67 49.5 118t117.5 51q57 0 93.5 -36.5t36.5 -92.5q0 -67 -49.5 -118t-117.5 -51zM248 444q49 0 85 39t36 91q0 42 -25 68t-65 26q-50 0 -86 -39t-36 -91q0 -42 25.5 -68t65.5 -26zM80 293q-8 0 -14 6t-6 14t6 14t14 6h238q8 0 14 -6 t6 -14t-6 -14t-14 -6h-238z" />
<glyph unicode="&#xbb;" horiz-adv-x="515" d="M460 243l-191 -184q-16 -16 -27 -16q-21 0 -21 22q0 10 9 19l177 177l-75 166q-4 9 -4 17q0 9 6.5 15.5t16.5 6.5q15 0 23 -17l88 -177q5 -10 5 -15q0 -7 -7 -14zM256 243l-191 -184q-16 -16 -27 -16q-21 0 -21 22q0 10 9 19l177 177l-75 166q-4 9 -4 17q0 9 6.5 15.5 t16.5 6.5q15 0 23 -17l88 -177q5 -10 5 -15q0 -7 -7 -14z" />
<glyph unicode="&#xbc;" horiz-adv-x="1529" d="M983 216h328l109 406zM1350 171l-41 -152q-6 -23 -28 -23q-11 0 -18 8t-3 22l39 145h-365q-28 0 -28 20q0 12 14 26l514 478q16 14 32 14q13 0 18 -9q4 -5 4 -11q0 -5 -2 -10l-124 -463h88q9 0 16 -6.5t7 -15.5q0 -10 -7 -16.5t-16 -6.5h-100zM977 721l-656 -805 q-14 -18 -28 -18q-21 0 -21 19q0 11 9 22l656 805q14 18 28 18q21 0 21 -19q0 -11 -9 -22zM327 679l-177 -660q-6 -23 -28 -23q-11 0 -18 8q-5 6 -5 14q0 3 1 8l167 622l-119 -38q-9 -3 -16 -3q-9 0 -14.5 6.5t-5.5 15.5q0 17 18 23l144 48q19 7 34 7h1q20 0 20 -17 q0 -5 -2 -11z" />
<glyph unicode="&#xbd;" horiz-adv-x="1472" d="M1338 0h-446q-25 0 -25 21q0 13 12 22l413 321q64 50 93.5 90.5t29.5 87.5q0 53 -40 87t-110 34q-96 0 -186 -86q-13 -11 -23 -11t-16.5 6t-6.5 16q0 12 11 23q53 48 104.5 73.5t118.5 25.5q89 0 145.5 -46.5t56.5 -120.5q0 -58 -35.5 -107t-109.5 -106l-362 -280h376 q10 0 17.5 -7t7.5 -18t-7.5 -18t-17.5 -7zM977 721l-656 -805q-14 -18 -28 -18q-21 0 -21 19q0 11 9 22l656 805q14 18 28 18q21 0 21 -19q0 -11 -9 -22zM327 679l-177 -660q-6 -23 -28 -23q-11 0 -18 8q-5 6 -5 14q0 3 1 8l167 622l-119 -38q-9 -3 -16 -3q-9 0 -14.5 6.5 t-5.5 15.5q0 17 18 23l144 48q19 7 34 7h1q20 0 20 -17q0 -5 -2 -11z" />
<glyph unicode="&#xbe;" horiz-adv-x="1801" d="M1255 216h328l109 406zM1622 171l-41 -152q-6 -23 -28 -23q-11 0 -18 8t-3 22l39 145h-365q-28 0 -28 20q0 12 14 26l514 478q16 14 32 14q13 0 18 -9q4 -5 4 -11q0 -5 -2 -10l-124 -463h88q9 0 16 -6.5t7 -15.5q0 -10 -7 -16.5t-16 -6.5h-100zM1249 721l-656 -805 q-14 -18 -28 -18q-21 0 -21 19q0 11 9 22l656 805q14 18 28 18q21 0 21 -19q0 -11 -9 -22zM21 104q-6 10 -6 21q0 10 7 17t17 7q13 0 22 -15q62 -99 192 -99q93 0 154 49.5t61 126.5q0 66 -52.5 99.5t-143.5 33.5h-15q-24 0 -24 18q0 9 9 17l302 272h-346q-11 0 -18 7t-7 17 q0 11 7.5 18t17.5 7h411q21 0 21 -18q0 -13 -13 -24l-301 -272q89 -4 148 -48.5t59 -122.5q0 -98 -80 -162.5t-193 -64.5q-159 0 -229 116z" />
<glyph unicode="&#xbf;" horiz-adv-x="534" d="M441 115q12 10 21 10q10 0 16.5 -6.5t6.5 -15.5q0 -10 -8 -18q-98 -94 -225 -94q-92 0 -146.5 49t-54.5 126q0 94 75 152t190 74l39 114q5 15 17 15h1q8 0 12.5 -6t2.5 -16l-24 -126q-3 -21 -24 -24q-106 -11 -171 -58.5t-65 -123.5q0 -61 43 -95t109 -34q99 0 185 77z M440 637q-8 -26 -36 -26q-14 0 -22 9q-7 7 -7 15q0 4 1 7l10 38q6 24 36 24q14 0 22 -8q7 -7 7 -16q0 -3 -1 -6z" />
<glyph unicode="&#xc0;" horiz-adv-x="741" d="M200 243h369l-75 405zM536 682l125 -646q2 -8 2 -16q0 -9 -7 -16.5t-18 -7.5q-22 0 -27 25l-32 175h-413l-131 -181q-15 -19 -28 -19q-9 0 -15.5 6t-6.5 17q0 9 6 15l473 648q19 25 39 25h2q26 0 31 -25zM491 784l-61 80q-7 8 -7 16t12.5 15.5t26.5 7.5q21 0 28 -18 l36 -92q3 -9 3 -12q0 -9 -13 -9q-16 0 -25 12z" />
<glyph unicode="&#xc1;" horiz-adv-x="741" d="M200 243h369l-75 405zM536 682l125 -646q2 -8 2 -16q0 -9 -7 -16.5t-18 -7.5q-22 0 -27 25l-32 175h-413l-131 -181q-15 -19 -28 -19q-9 0 -15.5 6t-6.5 17q0 9 6 15l473 648q19 25 39 25h2q26 0 31 -25zM664 863l-103 -78q-17 -13 -38 -13q-14 0 -14 10q0 6 5 11l88 95 q17 17 29 17q14 0 29 -8.5t15 -16.5q0 -9 -11 -17z" />
<glyph unicode="&#xc2;" horiz-adv-x="741" d="M200 243h369l-75 405zM536 682l125 -646q2 -8 2 -16q0 -9 -7 -16.5t-18 -7.5q-22 0 -27 25l-32 175h-413l-131 -181q-15 -19 -28 -19q-9 0 -15.5 6t-6.5 17q0 9 6 15l473 648q19 25 39 25h2q26 0 31 -25zM583 882l48 -87q5 -10 5 -13q0 -10 -14 -10q-21 0 -32 14l-44 57 l-82 -58q-19 -13 -33 -13t-14 10q0 6 8 14l94 86q18 18 33 18h6q14 0 25 -18z" />
<glyph unicode="&#xc3;" horiz-adv-x="741" d="M200 243h369l-75 405zM536 682l125 -646q2 -8 2 -16q0 -9 -7 -16.5t-18 -7.5q-22 0 -27 25l-32 175h-413l-131 -181q-15 -19 -28 -19q-9 0 -15.5 6t-6.5 17q0 9 6 15l473 648q19 25 39 25h2q26 0 31 -25zM407 770q-21 0 -21 18q0 10 7 21q21 36 41.5 55.5t51.5 19.5 q20 0 33.5 -8t33.5 -27q31 -30 48 -30q23 0 52 48q9 15 20 15q21 0 21 -18q0 -10 -7 -21q-21 -36 -41.5 -55.5t-51.5 -19.5q-20 0 -33.5 8t-33.5 27q-31 30 -48 30q-23 0 -52 -48q-9 -15 -20 -15z" />
<glyph unicode="&#xc4;" horiz-adv-x="741" d="M200 243h369l-75 405zM536 682l125 -646q2 -8 2 -16q0 -9 -7 -16.5t-18 -7.5q-22 0 -27 25l-32 175h-413l-131 -181q-15 -19 -28 -19q-9 0 -15.5 6t-6.5 17q0 9 6 15l473 648q19 25 39 25h2q26 0 31 -25zM483 796q-8 -27 -37 -27q-15 0 -24 9q-6 8 -6 17q0 3 1 7l9 33 q8 27 37 27q15 0 24 -10t5 -23zM646 796q-8 -27 -37 -27q-15 0 -23 9q-7 8 -7 17q0 3 1 7l9 33q8 27 37 27q15 0 24 -10q6 -7 6 -15q0 -4 -1 -8z" />
<glyph unicode="&#xc5;" horiz-adv-x="741" d="M7 -4q-9 0 -15.5 6t-6.5 17q0 9 6 15l473 647q-46 22 -46 71q0 42 31.5 72t74.5 30q42 0 69 -23t27 -59t-23.5 -64t-59.5 -36l124 -636q2 -8 2 -16q0 -9 -7 -16.5t-18 -7.5q-22 0 -27 25l-32 175h-413l-131 -181q-15 -19 -28 -19zM200 243h369l-75 405zM514 702 q29 0 49.5 20.5t20.5 49.5q0 22 -15.5 36t-44.5 14t-49.5 -20.5t-20.5 -49.5q0 -22 15.5 -36t44.5 -14z" />
<glyph unicode="&#xc6;" horiz-adv-x="1068" d="M242 243h272l110 410h-27zM597 700h496q10 0 17 -7t7 -17t-7 -17t-17 -7h-417l-74 -275h359q10 0 17 -7t7 -17t-7 -17t-17 -7h-372l-75 -281h409q10 0 17 -7t7 -17t-7 -17t-17 -7h-445q-11 0 -18 8t-4 18l46 170h-301l-156 -180q-17 -20 -32 -20q-21 0 -21 21q0 11 9 21 l556 637q23 25 40 25z" />
<glyph unicode="&#xc7;" horiz-adv-x="738" d="M639 92q-112 -105 -261 -105h-5l-89 -118q-10 -12 -21 -12t-19 7t-8 16q0 11 10 22l83 89q-103 15 -170 90t-67 190q0 112 55.5 214t153 164.5t209.5 62.5q82 0 144.5 -34t97.5 -91q7 -12 7 -22q-1 -10 -8 -17t-18 -6q-14 0 -21 11q-34 53 -81.5 82.5t-123.5 29.5 q-148 0 -254.5 -120t-106.5 -272q0 -109 66.5 -173.5t170.5 -64.5q125 0 223 92q9 9 19 9t17 -7t7 -17t-10 -20z" />
<glyph unicode="&#xc8;" horiz-adv-x="649" d="M520 0h-455q-11 0 -18 8q-5 6 -5 12q0 3 1 6l174 648q3 11 11.5 18.5t18.5 7.5h443q10 0 17 -7t7 -17t-7 -17t-17 -7h-427l-74 -275h369q10 0 17 -7t7 -17t-7 -17t-17 -7h-382l-75 -281h419q10 0 17 -7t7 -17t-7 -17t-17 -7zM447 774l-61 80q-7 8 -7 16t12.5 15.5 t26.5 7.5q21 0 28 -18l36 -92q3 -9 3 -12q0 -9 -13 -9q-16 0 -25 12z" />
<glyph unicode="&#xc9;" horiz-adv-x="649" d="M520 0h-455q-11 0 -18 8q-5 6 -5 12q0 3 1 6l174 648q3 11 11.5 18.5t18.5 7.5h443q10 0 17 -7t7 -17t-7 -17t-17 -7h-427l-74 -275h369q10 0 17 -7t7 -17t-7 -17t-17 -7h-382l-75 -281h419q10 0 17 -7t7 -17t-7 -17t-17 -7zM620 853l-103 -78q-17 -13 -38 -13 q-14 0 -14 10q0 6 5 11l88 95q17 17 29 17q14 0 29 -8.5t15 -16.5q0 -9 -11 -17z" />
<glyph unicode="&#xca;" horiz-adv-x="649" d="M520 0h-455q-11 0 -18 8q-5 6 -5 12q0 3 1 6l174 648q3 11 11.5 18.5t18.5 7.5h443q10 0 17 -7t7 -17t-7 -17t-17 -7h-427l-74 -275h369q10 0 17 -7t7 -17t-7 -17t-17 -7h-382l-75 -281h419q10 0 17 -7t7 -17t-7 -17t-17 -7zM539 872l48 -87q5 -10 5 -13q0 -10 -14 -10 q-21 0 -32 14l-44 57l-82 -58q-19 -13 -33 -13t-14 10q0 6 8 14l94 86q18 18 33 18h6q14 0 25 -18z" />
<glyph unicode="&#xcb;" horiz-adv-x="649" d="M520 0h-455q-11 0 -18 8q-5 6 -5 12q0 3 1 6l174 648q3 11 11.5 18.5t18.5 7.5h443q10 0 17 -7t7 -17t-7 -17t-17 -7h-427l-74 -275h369q10 0 17 -7t7 -17t-7 -17t-17 -7h-382l-75 -281h419q10 0 17 -7t7 -17t-7 -17t-17 -7zM439 786q-8 -27 -37 -27q-15 0 -24 9 q-6 8 -6 17q0 3 1 7l9 33q8 27 37 27q15 0 24 -10t5 -23zM602 786q-8 -27 -37 -27q-15 0 -23 9q-7 8 -7 17q0 3 1 7l9 33q8 27 37 27q15 0 24 -10q6 -7 6 -15q0 -4 -1 -8z" />
<glyph unicode="&#xcc;" horiz-adv-x="274" d="M276 674l-176 -655q-6 -23 -28 -23q-11 0 -18 8q-5 6 -5 14q0 3 1 8l176 655q6 23 28 23q11 0 18 -8q5 -6 5 -14q0 -3 -1 -8zM239 774l-61 80q-7 8 -7 16t12.5 15.5t26.5 7.5q21 0 28 -18l36 -92q3 -9 3 -12q0 -9 -13 -9q-16 0 -25 12z" />
<glyph unicode="&#xcd;" horiz-adv-x="274" d="M276 674l-176 -655q-6 -23 -28 -23q-11 0 -18 8q-5 6 -5 14q0 3 1 8l176 655q6 23 28 23q11 0 18.5 -8.5t3.5 -21.5zM412 853l-103 -78q-17 -13 -38 -13q-14 0 -14 10q0 6 5 11l88 95q17 17 29 17q14 0 29 -8.5t15 -16.5q0 -9 -11 -17z" />
<glyph unicode="&#xce;" horiz-adv-x="274" d="M276 674l-176 -655q-6 -23 -28 -23q-11 0 -18 8q-5 6 -5 14q0 3 1 8l176 655q6 23 28 23q11 0 18.5 -8.5t3.5 -21.5zM331 872l48 -87q5 -10 5 -13q0 -10 -14 -10q-21 0 -32 14l-44 57l-82 -58q-19 -13 -33 -13t-14 10q0 6 8 14l94 86q18 18 33 18h6q14 0 25 -18z" />
<glyph unicode="&#xcf;" horiz-adv-x="274" d="M276 674l-176 -655q-6 -23 -28 -23q-11 0 -18 8q-5 6 -5 14q0 3 1 8l176 655q6 23 28 23q11 0 18.5 -8.5t3.5 -21.5zM232 786q-8 -27 -37 -27q-15 0 -23 9q-7 8 -7 17q0 3 1 7l9 33q8 27 37 27q15 0 24 -10t5 -23zM395 786q-8 -27 -37 -27q-15 0 -24 9q-6 8 -6 17 q0 3 1 7l9 33q8 27 37 27q15 0 24 -10q6 -7 6 -15q0 -4 -1 -8z" />
<glyph unicode="&#xd0;" horiz-adv-x="801" d="M277 700h134q178 0 272 -94q77 -77 77 -200q0 -162 -109 -271q-64 -64 -156.5 -99.5t-199.5 -35.5h-200q-11 0 -18 8q-5 6 -5 12q0 3 1 6l81 302h-48q-10 0 -17 7t-7 17t7 17t17 7h61l80 298q3 11 11.5 18.5t18.5 7.5zM131 48h171q190 0 310 120q94 94 94 234 q0 108 -65 171q-79 79 -233 79h-115l-74 -276h205q10 0 17 -7t7 -17t-7 -17t-17 -7h-218z" />
<glyph unicode="&#xd1;" horiz-adv-x="786" d="M587 87l160 594q6 23 27 23q11 0 18 -8q4 -5 4 -13q0 -4 -1 -9l-176 -655q-6 -22 -24 -22h-1q-16 0 -27 21l-313 608l-163 -607q-6 -23 -27 -23q-11 0 -18 8q-4 5 -4 13q0 4 1 9l175 651q7 26 30 26h2q20 0 34 -26zM411 760q-21 0 -21 18q0 10 7 21q21 36 41.5 55.5 t51.5 19.5q20 0 33.5 -8t33.5 -27q31 -30 48 -30q23 0 52 48q9 15 20 15q21 0 21 -18q0 -10 -7 -21q-21 -36 -41.5 -55.5t-51.5 -19.5q-20 0 -33.5 8t-33.5 27q-31 30 -48 30q-23 0 -52 -48q-9 -15 -20 -15z" />
<glyph unicode="&#xd2;" horiz-adv-x="846" d="M398 -13q-131 0 -216.5 86.5t-85.5 214.5q0 108 53.5 206t147 158t202.5 60q131 0 216.5 -86.5t85.5 -214.5q0 -108 -53.5 -206t-147 -158t-202.5 -60zM398 34q96 0 177 54t126.5 140.5t45.5 182.5q0 109 -69 181.5t-179 72.5q-96 0 -177 -54t-126.5 -140.5t-45.5 -182.5 q0 -109 69 -181.5t179 -72.5zM514 784l-61 80q-7 8 -7 16t12.5 15.5t26.5 7.5q21 0 28 -18l36 -92q3 -9 3 -12q0 -9 -13 -9q-16 0 -25 12z" />
<glyph unicode="&#xd3;" horiz-adv-x="846" d="M398 -13q-131 0 -216.5 86.5t-85.5 214.5q0 108 53.5 206t147 158t202.5 60q131 0 216.5 -86.5t85.5 -214.5q0 -108 -53.5 -206t-147 -158t-202.5 -60zM398 34q96 0 177 54t126.5 140.5t45.5 182.5q0 109 -69 181.5t-179 72.5q-96 0 -177 -54t-126.5 -140.5t-45.5 -182.5 q0 -109 69 -181.5t179 -72.5zM687 863l-103 -78q-17 -13 -38 -13q-14 0 -14 10q0 6 5 11l88 95q17 17 29 17q14 0 29 -8.5t15 -16.5q0 -9 -11 -17z" />
<glyph unicode="&#xd4;" horiz-adv-x="846" d="M398 -13q-131 0 -216.5 86.5t-85.5 214.5q0 108 53.5 206t147 158t202.5 60q131 0 216.5 -86.5t85.5 -214.5q0 -108 -53.5 -206t-147 -158t-202.5 -60zM398 34q96 0 177 54t126.5 140.5t45.5 182.5q0 109 -69 181.5t-179 72.5q-96 0 -177 -54t-126.5 -140.5t-45.5 -182.5 q0 -109 69 -181.5t179 -72.5zM605 882l48 -87q5 -10 5 -13q0 -10 -14 -10q-21 0 -32 14l-44 57l-82 -58q-19 -13 -33 -13t-14 10q0 6 8 14l94 86q18 18 33 18h6q14 0 25 -18z" />
<glyph unicode="&#xd5;" horiz-adv-x="846" d="M398 -13q-131 0 -216.5 86.5t-85.5 214.5q0 108 53.5 206t147 158t202.5 60q131 0 216.5 -86.5t85.5 -214.5q0 -108 -53.5 -206t-147 -158t-202.5 -60zM398 34q96 0 177 54t126.5 140.5t45.5 182.5q0 109 -69 181.5t-179 72.5q-96 0 -177 -54t-126.5 -140.5t-45.5 -182.5 q0 -109 69 -181.5t179 -72.5zM430 770q-21 0 -21 18q0 10 7 21q21 36 41.5 55.5t51.5 19.5q20 0 33.5 -8t33.5 -27q31 -30 48 -30q23 0 52 48q9 15 20 15q21 0 21 -18q0 -10 -7 -21q-21 -36 -41.5 -55.5t-51.5 -19.5q-20 0 -33.5 8t-33.5 27q-31 30 -48 30q-23 0 -52 -48 q-9 -15 -20 -15z" />
<glyph unicode="&#xd6;" horiz-adv-x="846" d="M398 -13q-131 0 -216.5 86.5t-85.5 214.5q0 108 53.5 206t147 158t202.5 60q131 0 216.5 -86.5t85.5 -214.5q0 -108 -53.5 -206t-147 -158t-202.5 -60zM398 34q96 0 177 54t126.5 140.5t45.5 182.5q0 109 -69 181.5t-179 72.5q-96 0 -177 -54t-126.5 -140.5t-45.5 -182.5 q0 -109 69 -181.5t179 -72.5zM506 796q-8 -27 -37 -27q-15 0 -23 9q-7 8 -7 17q0 3 1 7l9 33q8 27 37 27q15 0 24 -10t5 -23zM669 796q-8 -27 -37 -27q-15 0 -24 9q-6 8 -6 17q0 3 1 7l9 33q8 27 37 27q15 0 24 -10q6 -7 6 -15q0 -4 -1 -8z" />
<glyph unicode="&#xd7;" horiz-adv-x="620" d="M369 349l121 -163q7 -10 7 -18q0 -10 -8 -17.5t-18 -7.5q-13 0 -21 11l-120 166l-215 -171q-8 -6 -16 -6q-9 0 -15.5 7t-6.5 17q0 12 11 20l216 169l-121 163q-7 10 -7 18q0 10 8 17.5t18 7.5q13 0 21 -11l120 -166l215 171q8 6 16 6q9 0 15.5 -7t6.5 -17q0 -12 -11 -20z " />
<glyph unicode="&#xd8;" horiz-adv-x="846" d="M150 288q0 -72 30 -129l508 424q-71 82 -189 82q-96 0 -177 -54t-126.5 -140.5t-45.5 -182.5zM398 34q96 0 177 54t126.5 140.5t45.5 182.5q0 76 -34 136l-509 -425q69 -88 194 -88zM166 90l-102 -85q-16 -14 -30 -14q-19 0 -19 19q0 12 11 21l114 95q-44 74 -44 162 q0 108 53.5 206t147 158t202.5 60q140 0 227 -97l95 80q16 14 29 14q20 0 20 -18q0 -13 -11 -22l-106 -89q48 -77 48 -169q0 -108 -53.5 -206t-147 -158t-202.5 -60q-144 0 -232 103z" />
<glyph unicode="&#xd9;" horiz-adv-x="756" d="M775 674l-105 -391q-35 -130 -111 -206q-88 -88 -211 -88q-122 0 -187 61t-65 159q0 54 14 108l97 364q6 23 28 23q11 0 18.5 -8.5t3.5 -21.5l-101 -381q-9 -36 -9 -80q0 -79 52 -128t153 -49q99 0 171 72q65 65 98 186l104 387q6 23 28 23q11 0 19 -8q4 -6 4 -14 q0 -3 -1 -8zM469 774l-61 80q-7 8 -7 16t12.5 15.5t26.5 7.5q21 0 28 -18l36 -92q3 -9 3 -12q0 -9 -13 -9q-16 0 -25 12z" />
<glyph unicode="&#xda;" horiz-adv-x="756" d="M775 674l-105 -391q-35 -130 -111 -206q-88 -88 -211 -88q-122 0 -187 61t-65 159q0 54 14 108l97 364q6 23 28 23q11 0 18.5 -8.5t3.5 -21.5l-101 -381q-9 -36 -9 -80q0 -79 52 -128t153 -49q99 0 171 72q65 65 98 186l104 387q6 23 28 23q11 0 19 -8q4 -6 4 -14 q0 -3 -1 -8zM642 853l-103 -78q-17 -13 -38 -13q-14 0 -14 10q0 6 5 11l88 95q17 17 29 17q14 0 29 -8.5t15 -16.5q0 -9 -11 -17z" />
<glyph unicode="&#xdb;" horiz-adv-x="756" d="M775 674l-105 -391q-35 -130 -111 -206q-88 -88 -211 -88q-122 0 -187 61t-65 159q0 54 14 108l97 364q6 23 28 23q11 0 18.5 -8.5t3.5 -21.5l-101 -381q-9 -36 -9 -80q0 -79 52 -128t153 -49q99 0 171 72q65 65 98 186l104 387q6 23 28 23q11 0 19 -8q4 -6 4 -14 q0 -3 -1 -8zM561 872l48 -87q5 -10 5 -13q0 -10 -14 -10q-21 0 -32 14l-44 57l-82 -58q-19 -13 -33 -13t-14 10q0 6 8 14l94 86q18 18 33 18h6q14 0 25 -18z" />
<glyph unicode="&#xdc;" horiz-adv-x="756" d="M775 674l-105 -391q-35 -130 -111 -206q-88 -88 -211 -88q-122 0 -187 61t-65 159q0 54 14 108l97 364q6 23 28 23q11 0 18.5 -8.5t3.5 -21.5l-101 -381q-9 -36 -9 -80q0 -79 52 -128t153 -49q99 0 171 72q65 65 98 186l104 387q6 23 28 23q11 0 19 -8q4 -6 4 -14 q0 -3 -1 -8zM462 786q-8 -27 -37 -27q-15 0 -23 9q-7 8 -7 17q0 3 1 7l9 33q8 27 37 27q15 0 24 -10t5 -23zM625 786q-8 -27 -37 -27q-15 0 -24 9q-6 8 -6 17q0 3 1 7l9 33q8 27 37 27q15 0 24 -10q6 -7 6 -15q0 -4 -1 -8z" />
<glyph unicode="&#xdd;" horiz-adv-x="668" d="M358 271l-67 -252q-6 -23 -28 -23q-11 0 -18.5 8.5t-3.5 21.5l69 258l-166 377q-4 9 -4 18q0 11 7 18t18 7q17 0 27 -23l153 -357l354 366q14 14 28 14q9 0 16 -6.5t7 -15.5q0 -12 -12 -24zM594 853l-103 -78q-17 -13 -38 -13q-14 0 -14 10q0 6 5 11l88 95q17 17 29 17 q14 0 29 -8.5t15 -16.5q0 -9 -11 -17z" />
<glyph unicode="&#xde;" horiz-adv-x="668" d="M137 182h168q141 0 216.5 52.5t75.5 148.5q0 57 -36 93q-49 49 -154 49h-178zM408 573q130 0 193 -63q48 -48 48 -125q0 -118 -93 -184t-253 -66h-178l-32 -116q-6 -23 -28 -23q-11 0 -19 8q-4 6 -4 14q0 3 1 8l176 655q6 23 27 23q11 0 18.5 -8.5t3.5 -21.5l-26 -101 h166z" />
<glyph unicode="&#xdf;" horiz-adv-x="620" d="M334 389q212 54 212 185q0 52 -37 84.5t-101 32.5q-73 0 -125.5 -54.5t-78.5 -151.5l-125 -466q-6 -23 -27 -23q-11 0 -17 8q-4 5 -4 12q0 4 1 8l127 476q29 109 87 167q70 70 166 70q81 0 134 -45.5t53 -115.5q0 -152 -212 -211q159 -42 159 -164q0 -89 -87 -146 t-215 -57q-22 0 -22 22q0 20 22 22q125 6 187 50t62 110q0 99 -155 135q-24 5 -24 26t20 26z" />
<glyph unicode="&#xe0;" horiz-adv-x="571" d="M199 33q75 0 141.5 47.5t86.5 122.5l12 45q-96 24 -193 24q-76 0 -123.5 -37.5t-47.5 -97.5q0 -47 33.5 -75.5t90.5 -28.5zM398 -4q-11 0 -17 8t-3 20l17 64q-84 -100 -205 -100q-69 0 -118 37.5t-49 105.5q0 84 64 134.5t166 50.5q90 0 196 -29l4 14q7 26 7 51 q0 58 -39.5 89t-114.5 31q-66 0 -129 -21q-8 -2 -13 -2q-20 0 -20 22q0 17 19 23q72 24 147 24q93 0 145.5 -42.5t52.5 -116.5q0 -29 -10 -67l-73 -273q-6 -23 -27 -23zM321 604l-61 80q-7 8 -7 16t12.5 15.5t26.5 7.5q21 0 28 -18l36 -92q3 -9 3 -12q0 -9 -13 -9 q-16 0 -25 12z" />
<glyph unicode="&#xe1;" horiz-adv-x="571" d="M199 33q75 0 141.5 47.5t86.5 122.5l12 45q-96 24 -193 24q-76 0 -123.5 -37.5t-47.5 -97.5q0 -47 33.5 -75.5t90.5 -28.5zM398 -4q-11 0 -17 8t-3 20l17 64q-84 -100 -205 -100q-69 0 -118 37.5t-49 105.5q0 84 64 134.5t166 50.5q90 0 196 -29l4 14q7 26 7 51 q0 58 -39.5 89t-114.5 31q-66 0 -129 -21q-8 -2 -13 -2q-20 0 -20 22q0 17 19 23q72 24 147 24q93 0 145.5 -42.5t52.5 -116.5q0 -29 -10 -67l-73 -273q-6 -23 -27 -23zM494 683l-103 -78q-17 -13 -38 -13q-14 0 -14 10q0 6 5 11l88 95q17 17 29 17q14 0 29 -8.5t15 -16.5 q0 -9 -11 -17z" />
<glyph unicode="&#xe2;" horiz-adv-x="571" d="M199 33q75 0 141.5 47.5t86.5 122.5l12 45q-96 24 -193 24q-76 0 -123.5 -37.5t-47.5 -97.5q0 -47 33.5 -75.5t90.5 -28.5zM398 -4q-11 0 -17 8t-3 20l17 64q-84 -100 -205 -100q-69 0 -118 37.5t-49 105.5q0 84 64 134.5t166 50.5q90 0 196 -29l4 14q7 26 7 51 q0 58 -39.5 89t-114.5 31q-66 0 -129 -21q-8 -2 -13 -2q-20 0 -20 22q0 17 19 23q72 24 147 24q93 0 145.5 -42.5t52.5 -116.5q0 -29 -10 -67l-73 -273q-6 -23 -27 -23zM413 702l48 -87q5 -10 5 -13q0 -10 -14 -10q-21 0 -32 14l-44 57l-82 -58q-19 -13 -33 -13t-14 10 q0 6 8 14l94 86q18 18 33 18h6q14 0 25 -18z" />
<glyph unicode="&#xe3;" horiz-adv-x="571" d="M199 33q75 0 141.5 47.5t86.5 122.5l12 45q-96 24 -193 24q-76 0 -123.5 -37.5t-47.5 -97.5q0 -47 33.5 -75.5t90.5 -28.5zM398 -4q-11 0 -17 8t-3 20l17 64q-84 -100 -205 -100q-69 0 -118 37.5t-49 105.5q0 84 64 134.5t166 50.5q90 0 196 -29l4 14q7 26 7 51 q0 58 -39.5 89t-114.5 31q-66 0 -129 -21q-8 -2 -13 -2q-20 0 -20 22q0 17 19 23q72 24 147 24q93 0 145.5 -42.5t52.5 -116.5q0 -29 -10 -67l-73 -273q-6 -23 -27 -23zM237 590q-21 0 -21 18q0 10 7 21q21 36 41.5 55.5t51.5 19.5q20 0 33.5 -8t33.5 -27q31 -30 48 -30 q23 0 52 48q9 15 20 15q21 0 21 -18q0 -10 -7 -21q-21 -36 -41.5 -55.5t-51.5 -19.5q-20 0 -33.5 8t-33.5 27q-31 30 -48 30q-23 0 -52 -48q-9 -15 -20 -15z" />
<glyph unicode="&#xe4;" horiz-adv-x="571" d="M199 33q75 0 141.5 47.5t86.5 122.5l12 45q-96 24 -193 24q-76 0 -123.5 -37.5t-47.5 -97.5q0 -47 33.5 -75.5t90.5 -28.5zM398 -4q-11 0 -17 8t-3 20l17 64q-84 -100 -205 -100q-69 0 -118 37.5t-49 105.5q0 84 64 134.5t166 50.5q90 0 196 -29l4 14q7 26 7 51 q0 58 -39.5 89t-114.5 31q-66 0 -129 -21q-8 -2 -13 -2q-20 0 -20 22q0 17 19 23q72 24 147 24q93 0 145.5 -42.5t52.5 -116.5q0 -29 -10 -67l-73 -273q-6 -23 -27 -23zM313 616q-8 -27 -37 -27q-15 0 -24 9q-6 8 -6 17q0 3 1 7l9 33q8 27 37 27q15 0 24 -10t5 -23zM476 616 q-8 -27 -37 -27q-15 0 -23 9q-7 8 -7 17q0 3 1 7l9 33q8 27 37 27q15 0 24 -10q6 -7 6 -15q0 -4 -1 -8z" />
<glyph unicode="&#xe5;" horiz-adv-x="571" d="M199 33q75 0 141.5 47.5t86.5 122.5l12 45q-96 24 -193 24q-76 0 -123.5 -37.5t-47.5 -97.5q0 -47 33.5 -75.5t90.5 -28.5zM398 -4q-11 0 -17 8t-3 20l17 64q-84 -100 -205 -100q-69 0 -118 37.5t-49 105.5q0 84 64 134.5t166 50.5q90 0 196 -29l4 14q7 26 7 51 q0 58 -39.5 89t-114.5 31q-66 0 -129 -21q-8 -2 -13 -2q-20 0 -20 22q0 17 19 23q72 24 147 24q93 0 145.5 -42.5t52.5 -116.5q0 -29 -10 -67l-73 -273q-6 -23 -27 -23zM373 595q-42 0 -67.5 23t-25.5 59q0 42 33 72t76 30q42 0 67.5 -23t25.5 -59q0 -42 -33 -72t-76 -30z M374 627q30 0 51 20t21 49q0 23 -15 37t-43 14q-30 0 -51 -20t-21 -49q0 -23 15 -37t43 -14z" />
<glyph unicode="&#xe6;" horiz-adv-x="965" d="M250 272q-76 0 -125.5 -37t-49.5 -93q0 -50 34 -79.5t95 -29.5q123 0 238 125q-4 20 -4 48q0 22 3 43q-81 23 -191 23zM922 327q0 -33 -7 -66q-5 -23 -30 -23h-396q-2 -22 -2 -34q0 -77 47 -123.5t122 -46.5q90 0 161 58q9 7 19 7q9 0 15 -6t6 -15q0 -12 -10 -20 q-81 -70 -190 -70q-74 0 -126 33.5t-76 91.5q-120 -125 -255 -125q-77 0 -127 39t-50 109q0 82 66 131t168 49q97 0 192 -29l4 14q7 26 7 51q0 58 -39.5 89t-114.5 31q-66 0 -129 -21q-8 -2 -13 -2q-20 0 -20 22q0 17 19 23q72 24 147 24q80 0 130.5 -32t63.5 -89 q42 57 100.5 91t124.5 34q92 0 142.5 -56t50.5 -139zM498 282h370q4 18 4 42q0 66 -36.5 109.5t-107.5 43.5q-82 0 -144.5 -56t-85.5 -139z" />
<glyph unicode="&#xe7;" horiz-adv-x="563" d="M459 62q-86 -74 -187 -74h-3l-90 -119q-10 -12 -21 -12t-19 7t-8 16q0 11 10 22l85 91q-75 14 -125.5 71t-50.5 144q0 126 89.5 220t210.5 94q123 0 188 -101q7 -11 7 -20t-6.5 -15.5t-15.5 -6.5q-15 0 -24 13q-57 84 -152 84q-97 0 -170.5 -80t-73.5 -185 q0 -82 50.5 -129.5t121.5 -47.5q80 0 153 62q8 7 19 7q9 0 15 -6.5t6 -15.5q0 -10 -9 -19z" />
<glyph unicode="&#xe8;" horiz-adv-x="583" d="M114 282h370q4 18 4 42q0 66 -36.5 109.5t-107.5 43.5q-82 0 -144.5 -56t-85.5 -139zM272 34q90 0 161 58q9 7 19 7q9 0 15 -6t6 -15q0 -12 -10 -20q-83 -70 -191 -70q-98 0 -160 60t-62 154q0 123 87 221.5t208 98.5q92 0 142.5 -56t50.5 -139q0 -33 -7 -66 q-5 -23 -30 -23h-396q-2 -22 -2 -34q0 -77 47 -123.5t122 -46.5zM343 604l-61 80q-7 8 -7 16t12.5 15.5t26.5 7.5q21 0 28 -18l36 -92q3 -9 3 -12q0 -9 -13 -9q-16 0 -25 12z" />
<glyph unicode="&#xe9;" horiz-adv-x="583" d="M114 282h370q4 18 4 42q0 66 -36.5 109.5t-107.5 43.5q-82 0 -144.5 -56t-85.5 -139zM272 34q90 0 161 58q9 7 19 7q9 0 15 -6t6 -15q0 -12 -10 -20q-83 -70 -191 -70q-98 0 -160 60t-62 154q0 123 87 221.5t208 98.5q92 0 142.5 -56t50.5 -139q0 -33 -7 -66 q-5 -23 -30 -23h-396q-2 -22 -2 -34q0 -77 47 -123.5t122 -46.5zM516 683l-103 -78q-17 -13 -38 -13q-14 0 -14 10q0 6 5 11l88 95q17 17 29 17q14 0 29 -8.5t15 -16.5q0 -9 -11 -17z" />
<glyph unicode="&#xea;" horiz-adv-x="583" d="M114 282h370q4 18 4 42q0 66 -36.5 109.5t-107.5 43.5q-82 0 -144.5 -56t-85.5 -139zM272 34q90 0 161 58q9 7 19 7q9 0 15 -6t6 -15q0 -12 -10 -20q-83 -70 -191 -70q-98 0 -160 60t-62 154q0 123 87 221.5t208 98.5q92 0 142.5 -56t50.5 -139q0 -33 -7 -66 q-5 -23 -30 -23h-396q-2 -22 -2 -34q0 -77 47 -123.5t122 -46.5zM434 702l48 -87q5 -10 5 -13q0 -10 -14 -10q-21 0 -32 14l-44 57l-82 -58q-19 -13 -33 -13t-14 10q0 6 8 14l94 86q18 18 33 18h6q15 0 25 -18z" />
<glyph unicode="&#xeb;" horiz-adv-x="583" d="M114 282h370q4 18 4 42q0 66 -36.5 109.5t-107.5 43.5q-82 0 -144.5 -56t-85.5 -139zM272 34q90 0 161 58q9 7 19 7q9 0 15 -6t6 -15q0 -12 -10 -20q-83 -70 -191 -70q-98 0 -160 60t-62 154q0 123 87 221.5t208 98.5q92 0 142.5 -56t50.5 -139q0 -33 -7 -66 q-5 -23 -30 -23h-396q-2 -22 -2 -34q0 -77 47 -123.5t122 -46.5zM335 616q-8 -27 -37 -27q-15 0 -24 9q-6 8 -6 17q0 3 1 7l9 33q8 27 37 27q15 0 24 -10t5 -23zM498 616q-8 -27 -37 -27q-15 0 -23 9q-7 8 -7 17q0 3 1 7l9 33q8 27 37 27q15 0 24 -10q6 -7 6 -15q0 -4 -1 -8 z" />
<glyph unicode="&#xec;" horiz-adv-x="250" d="M211 486l-125 -467q-6 -23 -27 -23q-11 0 -17 8q-4 5 -4 12q0 4 1 8l125 467q6 23 27 23q11 0 17 -8t3 -20zM181 604l-61 80q-7 8 -7 16t12.5 15.5t26.5 7.5q21 0 28 -18l36 -92q3 -9 3 -12q0 -9 -13 -9q-16 0 -25 12z" />
<glyph unicode="&#xed;" horiz-adv-x="250" d="M211 486l-125 -467q-6 -23 -27 -23q-11 0 -17 8q-4 5 -4 12q0 4 1 8l125 467q6 23 27 23q11 0 17 -8t3 -20zM354 683l-103 -78q-17 -13 -38 -13q-14 0 -14 10q0 6 5 11l88 95q17 17 29 17q14 0 29 -8.5t15 -16.5q0 -9 -11 -17z" />
<glyph unicode="&#xee;" horiz-adv-x="250" d="M211 486l-125 -467q-6 -23 -27 -23q-11 0 -17 8q-4 5 -4 12q0 4 1 8l125 467q6 23 27 23q11 0 17 -8t3 -20zM272 702l48 -87q5 -10 5 -13q0 -10 -14 -10q-21 0 -32 14l-44 57l-82 -58q-19 -13 -33 -13t-14 10q0 6 8 14l94 86q18 18 33 18h6q15 0 25 -18z" />
<glyph unicode="&#xef;" horiz-adv-x="250" d="M211 486l-125 -467q-6 -23 -27 -23q-11 0 -17 8q-4 5 -4 12q0 4 1 8l125 467q6 23 27 23q11 0 17 -8t3 -20zM174 616q-8 -27 -37 -27q-15 0 -23 9q-7 8 -7 17q0 3 1 7l9 33q8 27 37 27q15 0 24 -10t5 -23zM337 616q-8 -27 -37 -27q-15 0 -24 9q-6 8 -6 17q0 3 1 7l9 33 q8 27 37 27q15 0 24 -10q6 -7 6 -15q0 -4 -1 -8z" />
<glyph unicode="&#xf0;" horiz-adv-x="616" d="M241 607l140 61l-10 24q-4 10 -4 18q0 9 8 16.5t20 7.5q18 0 26 -21l9 -23l95 42q6 3 14 3q21 0 21 -22q0 -16 -18 -23l-96 -42l74 -184q47 -118 47 -190q0 -112 -85 -198.5t-211 -86.5q-96 0 -160 61.5t-64 151.5q0 116 84.5 199.5t195.5 83.5q92 0 154 -53l-83 195 l-140 -62q-6 -3 -14 -3q-21 0 -21 22q0 16 18 23zM276 35q97 0 167.5 70t70.5 167q0 71 -50.5 120t-135.5 49q-93 0 -160.5 -70.5t-67.5 -165.5q0 -78 49 -124t127 -46z" />
<glyph unicode="&#xf1;" horiz-adv-x="611" d="M183 514q11 0 17 -8t3 -20l-18 -71q89 107 193 107q76 0 121.5 -44.5t45.5 -117.5q0 -28 -11 -72l-71 -269q-6 -23 -27 -23q-11 0 -17 8t-3 20l71 268q8 30 8 63q0 57 -35 90t-96 33q-67 0 -129 -54t-84 -136l-72 -269q-6 -23 -27 -23q-11 0 -17 8q-4 5 -4 12q0 4 1 8 l124 467q6 23 27 23zM276 590q-21 0 -21 18q0 10 7 21q21 36 41.5 55.5t51.5 19.5q20 0 33.5 -8t33.5 -27q31 -30 48 -30q23 0 52 48q9 15 20 15q21 0 21 -18q0 -10 -7 -21q-21 -36 -41.5 -55.5t-51.5 -19.5q-20 0 -33.5 8t-33.5 27q-31 30 -48 30q-23 0 -52 -48 q-9 -15 -20 -15z" />
<glyph unicode="&#xf2;" horiz-adv-x="633" d="M278 -12q-101 0 -164 63.5t-63 162.5q0 122 91 215t212 93q101 0 164 -63.5t63 -162.5q0 -124 -92 -216t-211 -92zM283 34q95 0 170 78t75 182q0 85 -49 133.5t-130 48.5q-97 0 -171 -79t-74 -181q0 -85 49 -133.5t130 -48.5zM366 604l-61 80q-7 8 -7 16t12.5 15.5 t26.5 7.5q21 0 28 -18l36 -92q3 -9 3 -12q0 -9 -13 -9q-16 0 -25 12z" />
<glyph unicode="&#xf3;" horiz-adv-x="633" d="M278 -12q-101 0 -164 63.5t-63 162.5q0 122 91 215t212 93q101 0 164 -63.5t63 -162.5q0 -124 -92 -216t-211 -92zM283 34q95 0 170 78t75 182q0 85 -49 133.5t-130 48.5q-97 0 -171 -79t-74 -181q0 -85 49 -133.5t130 -48.5zM539 683l-103 -78q-17 -13 -38 -13 q-14 0 -14 10q0 6 5 11l88 95q17 17 29 17q14 0 29 -8.5t15 -16.5q0 -9 -11 -17z" />
<glyph unicode="&#xf4;" horiz-adv-x="633" d="M278 -12q-101 0 -164 63.5t-63 162.5q0 122 91 215t212 93q101 0 164 -63.5t63 -162.5q0 -124 -92 -216t-211 -92zM283 34q95 0 170 78t75 182q0 85 -49 133.5t-130 48.5q-97 0 -171 -79t-74 -181q0 -85 49 -133.5t130 -48.5zM457 702l48 -87q5 -10 5 -13q0 -10 -14 -10 q-21 0 -32 14l-44 57l-82 -58q-19 -13 -33 -13t-14 10q0 6 8 14l94 86q18 18 33 18h6q14 0 25 -18z" />
<glyph unicode="&#xf5;" horiz-adv-x="633" d="M278 -12q-101 0 -164 63.5t-63 162.5q0 122 91 215t212 93q101 0 164 -63.5t63 -162.5q0 -124 -92 -216t-211 -92zM283 34q95 0 170 78t75 182q0 85 -49 133.5t-130 48.5q-97 0 -171 -79t-74 -181q0 -85 49 -133.5t130 -48.5zM282 590q-21 0 -21 18q0 10 7 21 q21 36 41.5 55.5t51.5 19.5q20 0 33.5 -8t33.5 -27q31 -30 48 -30q23 0 52 48q9 15 20 15q21 0 21 -18q0 -10 -7 -21q-21 -36 -41.5 -55.5t-51.5 -19.5q-20 0 -33.5 8t-33.5 27q-31 30 -48 30q-23 0 -52 -48q-9 -15 -20 -15z" />
<glyph unicode="&#xf6;" horiz-adv-x="633" d="M278 -12q-101 0 -164 63.5t-63 162.5q0 122 91 215t212 93q101 0 164 -63.5t63 -162.5q0 -124 -92 -216t-211 -92zM283 34q95 0 170 78t75 182q0 85 -49 133.5t-130 48.5q-97 0 -171 -79t-74 -181q0 -85 49 -133.5t130 -48.5zM358 616q-8 -27 -37 -27q-15 0 -23 9 q-7 8 -7 17q0 3 1 7l9 33q8 27 37 27q15 0 24 -10t5 -23zM521 616q-8 -27 -37 -27q-15 0 -24 9q-6 8 -6 17q0 3 1 7l9 33q8 27 37 27q15 0 24 -10q6 -7 6 -15q0 -4 -1 -8z" />
<glyph unicode="&#xf7;" horiz-adv-x="620" d="M115 328h444q10 0 17 7t7 17t-7 17t-17 7h-444q-10 0 -17 -7t-7 -17t7 -17t17 -7zM423 527q-10 -31 -44 -31q-17 0 -27.5 11t-6.5 27l8 28q10 31 44 31q17 0 27 -11q8 -8 8 -19q0 -4 -1 -8zM320 142q-10 -31 -44 -31q-17 0 -28 11q-7 8 -7 19q0 4 1 8l8 28q10 31 44 31 q17 0 28 -11q7 -8 7 -19q0 -4 -1 -8z" />
<glyph unicode="&#xf8;" horiz-adv-x="633" d="M283 34q95 0 170 78t75 182q0 51 -19 92l-363 -298q48 -54 137 -54zM104 216q0 -51 19 -92l363 298q-49 54 -137 54q-97 0 -171 -79t-74 -181zM109 58l-70 -57q-13 -10 -23 -10q-19 0 -19 18q0 12 11 21l75 61q-32 53 -32 123q0 122 91 215t212 93q105 0 169 -69l72 58 q13 10 23 10q19 0 19 -18q0 -12 -11 -21l-77 -63q32 -53 32 -123q0 -124 -92 -216t-211 -92q-104 0 -169 70z" />
<glyph unicode="&#xf9;" horiz-adv-x="609" d="M426 -4q-11 0 -17 8t-3 20l18 71q-89 -107 -193 -107q-76 0 -121.5 44.5t-45.5 117.5q0 28 11 72l71 269q6 23 27 23q11 0 17 -8t3 -20l-71 -268q-8 -30 -8 -63q0 -57 35 -90t96 -33q67 0 129 54t84 136l72 269q6 23 27 23q11 0 17 -8q4 -5 4 -12q0 -4 -1 -8l-124 -467 q-6 -23 -27 -23zM348 604l-61 80q-7 8 -7 16t12.5 15.5t26.5 7.5q21 0 28 -18l36 -92q3 -9 3 -12q0 -9 -13 -9q-16 0 -25 12z" />
<glyph unicode="&#xfa;" horiz-adv-x="609" d="M426 -4q-11 0 -17 8t-3 20l18 71q-89 -107 -193 -107q-76 0 -121.5 44.5t-45.5 117.5q0 28 11 72l71 269q6 23 27 23q11 0 17 -8t3 -20l-71 -268q-8 -30 -8 -63q0 -57 35 -90t96 -33q67 0 129 54t84 136l72 269q6 23 27 23q11 0 17 -8q4 -5 4 -12q0 -4 -1 -8l-124 -467 q-6 -23 -27 -23zM521 683l-103 -78q-17 -13 -38 -13q-14 0 -14 10q0 6 5 11l88 95q17 17 29 17q14 0 29 -8.5t15 -16.5q0 -9 -11 -17z" />
<glyph unicode="&#xfb;" horiz-adv-x="609" d="M426 -4q-11 0 -17 8t-3 20l18 71q-89 -107 -193 -107q-76 0 -121.5 44.5t-45.5 117.5q0 28 11 72l71 269q6 23 27 23q11 0 17 -8t3 -20l-71 -268q-8 -30 -8 -63q0 -57 35 -90t96 -33q67 0 129 54t84 136l72 269q6 23 27 23q11 0 17 -8q4 -5 4 -12q0 -4 -1 -8l-124 -467 q-6 -23 -27 -23zM440 702l48 -87q5 -10 5 -13q0 -10 -14 -10q-21 0 -32 14l-44 57l-82 -58q-19 -13 -33 -13t-14 10q0 6 8 14l94 86q18 18 33 18h6q15 0 25 -18z" />
<glyph unicode="&#xfc;" horiz-adv-x="609" d="M426 -4q-11 0 -17 8t-3 20l18 71q-89 -107 -193 -107q-76 0 -121.5 44.5t-45.5 117.5q0 28 11 72l71 269q6 23 27 23q11 0 17 -8t3 -20l-71 -268q-8 -30 -8 -63q0 -57 35 -90t96 -33q67 0 129 54t84 136l72 269q6 23 27 23q11 0 17 -8q4 -5 4 -12q0 -4 -1 -8l-124 -467 q-6 -23 -27 -23zM340 616q-8 -27 -37 -27q-15 0 -23 9q-7 8 -7 17q0 3 1 7l9 33q8 27 37 27q15 0 24 -10t5 -23zM503 616q-8 -27 -37 -27q-15 0 -24 9q-6 8 -6 17q0 3 1 7l9 33q8 27 37 27q15 0 24 -10q6 -7 6 -15q0 -4 -1 -8z" />
<glyph unicode="&#xfd;" horiz-adv-x="568" d="M-46 -98q40 -19 72 -19q40 0 78.5 27.5t84.5 92.5l-96 468q-2 10 -2 18q0 25 24 25q21 0 26 -26l85 -434l296 440q13 20 29 20q22 0 22 -21q0 -10 -6 -19l-338 -492q-54 -78 -103.5 -111.5t-105.5 -33.5q-46 0 -91 24q-14 7 -14 22q0 10 6.5 16.5t16.5 6.5q8 0 16 -4z M484 683l-103 -78q-17 -13 -38 -13q-14 0 -14 10q0 6 5 11l88 95q17 17 29 17q14 0 29 -8.5t15 -16.5q0 -9 -11 -17z" />
<glyph unicode="&#xfe;" horiz-adv-x="654" d="M310 33q101 0 169 80t68 188q0 78 -44 126.5t-114 48.5q-96 0 -175.5 -82t-79.5 -183q0 -75 49.5 -126.5t126.5 -51.5zM-11 -136l227 847q6 23 27 23q11 0 17 -8t3 -20l-80 -296q94 112 212 112q89 0 147 -60.5t58 -154.5q0 -134 -86 -227t-202 -93q-79 0 -130 40.5 t-73 102.5l-73 -271q-6 -23 -27 -23q-11 0 -17 8q-4 5 -4 12q0 4 1 8z" />
<glyph unicode="&#xff;" horiz-adv-x="568" d="M-46 -98q40 -19 72 -19q40 0 78.5 27.5t84.5 92.5l-96 468q-2 10 -2 18q0 25 24 25q21 0 26 -26l85 -434l296 440q13 20 29 20q22 0 22 -21q0 -10 -6 -19l-338 -492q-54 -78 -103.5 -111.5t-105.5 -33.5q-46 0 -91 24q-14 7 -14 22q0 10 6.5 16.5t16.5 6.5q8 0 16 -4z M303 616q-8 -27 -37 -27q-15 0 -24 9q-6 8 -6 17q0 3 1 7l9 33q8 27 37 27q15 0 24 -10t5 -23zM466 616q-8 -27 -37 -27q-15 0 -23 9q-7 8 -7 17q0 3 1 7l9 33q8 27 37 27q15 0 24 -10q6 -7 6 -15q0 -4 -1 -8z" />
<glyph unicode="&#x152;" horiz-adv-x="1154" d="M444 48h105l162 604h-161q-190 0 -310 -120q-94 -94 -94 -234q0 -106 65 -171q79 -79 233 -79zM1009 0h-568q-178 0 -272 94q-77 77 -77 200q0 162 109 271q64 64 156.5 99.5t199.5 35.5h622q10 0 17 -7t7 -17t-7 -17t-17 -7h-416l-74 -275h358q10 0 17 -7t7 -17t-7 -17 t-17 -7h-371l-75 -281h408q10 0 17 -7t7 -17t-7 -17t-17 -7z" />
<glyph unicode="&#x153;" horiz-adv-x="1046" d="M579 282h370q4 18 4 42q0 66 -36.5 109.5t-107.5 43.5q-82 0 -144.5 -56t-85.5 -139zM283 34q94 0 169.5 77t75.5 178q0 88 -49 137.5t-130 49.5q-97 0 -171 -79t-74 -181q0 -85 49 -133.5t130 -48.5zM737 34q89 0 161 58q9 7 19 7q9 0 15 -6t6 -15q0 -12 -10 -20 q-82 -70 -188 -70q-81 0 -138 42.5t-73 112.5q-41 -68 -106 -111.5t-148 -43.5q-97 0 -160.5 64t-63.5 162q0 122 91 215t212 93q84 0 139 -46t71 -117q88 163 246 163q92 0 142.5 -56t50.5 -139q0 -35 -8 -69q-4 -20 -25 -20h-400q-2 -22 -2 -34q0 -77 47 -123.5t122 -46.5 z" />
<glyph unicode="&#x178;" horiz-adv-x="668" d="M358 271l-67 -252q-6 -23 -28 -23q-11 0 -18.5 8.5t-3.5 21.5l69 258l-166 377q-4 9 -4 18q0 11 7 18t18 7q17 0 27 -23l153 -357l354 366q14 14 28 14q9 0 16 -6.5t7 -15.5q0 -12 -12 -24zM413 786q-8 -27 -37 -27q-15 0 -24 9q-6 8 -6 17q0 3 1 7l9 33q8 27 37 27 q15 0 24 -10t5 -23zM576 786q-8 -27 -37 -27q-15 0 -23 9q-7 8 -7 17q0 3 1 7l9 33q8 27 37 27q15 0 24 -10q6 -7 6 -15q0 -4 -1 -8z" />
<glyph unicode="&#x2c6;" d="M403 702l48 -87q5 -10 5 -13q0 -10 -14 -10q-21 0 -32 14l-44 57l-82 -58q-19 -13 -33 -13t-14 10q0 6 8 14l94 86q18 18 33 18h6q14 0 25 -18z" />
<glyph unicode="&#x2dc;" d="M220 590q-21 0 -21 18q0 10 7 21q21 36 41.5 55.5t51.5 19.5q20 0 33.5 -8t33.5 -27q31 -30 48 -30q23 0 52 48q9 15 20 15q21 0 21 -18q0 -10 -7 -21q-21 -36 -41.5 -55.5t-51.5 -19.5q-20 0 -33.5 8t-33.5 27q-31 30 -48 30q-23 0 -52 -48q-9 -15 -20 -15z" />
<glyph unicode="&#x2000;" horiz-adv-x="452" />
<glyph unicode="&#x2001;" horiz-adv-x="905" />
<glyph unicode="&#x2002;" horiz-adv-x="452" />
<glyph unicode="&#x2003;" horiz-adv-x="905" />
<glyph unicode="&#x2004;" horiz-adv-x="301" />
<glyph unicode="&#x2005;" horiz-adv-x="226" />
<glyph unicode="&#x2006;" horiz-adv-x="150" />
<glyph unicode="&#x2007;" horiz-adv-x="150" />
<glyph unicode="&#x2008;" horiz-adv-x="113" />
<glyph unicode="&#x2009;" horiz-adv-x="181" />
<glyph unicode="&#x200a;" horiz-adv-x="50" />
<glyph unicode="&#x2010;" horiz-adv-x="409" d="M326 269h-221q-11 0 -19.5 8.5t-8.5 19.5t8.5 19.5t19.5 8.5h221q11 0 19.5 -8.5t8.5 -19.5t-8.5 -19.5t-19.5 -8.5z" />
<glyph unicode="&#x2011;" horiz-adv-x="409" d="M326 269h-221q-11 0 -19.5 8.5t-8.5 19.5t8.5 19.5t19.5 8.5h221q11 0 19.5 -8.5t8.5 -19.5t-8.5 -19.5t-19.5 -8.5z" />
<glyph unicode="&#x2013;" horiz-adv-x="528" d="M103 271q-11 0 -18.5 7.5t-7.5 18.5t7.5 18.5t18.5 7.5h344q11 0 18.5 -7.5t7.5 -18.5t-7.5 -18.5t-18.5 -7.5h-344z" />
<glyph unicode="&#x2014;" horiz-adv-x="898" d="M103 271q-11 0 -18.5 7.5t-7.5 18.5t7.5 18.5t18.5 7.5h714q11 0 18.5 -7.5t7.5 -18.5t-7.5 -18.5t-18.5 -7.5h-714z" />
<glyph unicode="&#x2018;" horiz-adv-x="231" d="M280 677q-32 -14 -48.5 -32t-22.5 -47q10 -1 16 -9t3 -21l-9 -33q-8 -26 -36 -26q-14 0 -23 10q-6 7 -6 15q0 4 1 8l12 45q14 51 40 77q23 24 64 37q4 1 7 1q4 0 6 -2q6 -3 6 -10q0 -9 -10 -13z" />
<glyph unicode="&#x2019;" horiz-adv-x="231" d="M130 536q32 14 48.5 32t22.5 47q-10 1 -16 9t-3 21l9 33q8 26 36 26q14 0 23 -10q6 -7 6 -15q0 -4 -1 -8l-12 -45q-14 -51 -40 -77q-23 -23 -64 -37q-4 -1 -7 -1q-4 0 -6 1q-6 4 -6 11q0 9 10 13z" />
<glyph unicode="&#x201a;" horiz-adv-x="231" d="M-30 -79q32 14 48.5 32t22.5 47q-10 1 -16 9t-3 21l9 33q8 26 36 26q14 0 23 -10q6 -7 6 -15q0 -4 -1 -8l-12 -45q-14 -51 -40 -77q-23 -24 -64 -37q-4 -1 -7 -1q-4 0 -6 2q-6 3 -6 10q0 9 10 13z" />
<glyph unicode="&#x201c;" horiz-adv-x="411" d="M362 509q-14 0 -23 10t-5 23l12 45q14 51 40 77q24 24 64 37q4 1 7 1q4 0 7 -2q5 -3 5 -10q0 -9 -10 -13q-32 -14 -48.5 -32t-22.5 -47q10 -1 16 -9t3 -21l-9 -33q-8 -26 -36 -26zM182 509q-14 0 -23 10q-6 7 -6 15q0 4 1 8l12 45q14 51 40 77q24 24 64 37q4 1 7 1 q4 0 7 -2q5 -3 5 -10q0 -9 -10 -13q-32 -14 -48.5 -32t-22.5 -47q10 -1 16 -9t3 -21l-9 -33q-8 -26 -36 -26z" />
<glyph unicode="&#x201d;" horiz-adv-x="411" d="M129 536q32 14 48.5 32t22.5 47q-10 1 -16 9t-3 21l9 33q8 26 36 26q14 0 23 -10t5 -23l-12 -45q-14 -51 -40 -77q-24 -23 -64 -37q-4 -1 -7 -1q-4 0 -7 1q-5 4 -5 11q0 9 10 13zM309 536q32 14 48.5 32t22.5 47q-10 1 -16 9t-3 21l9 33q8 26 36 26q14 0 23 -10 q6 -7 6 -15q0 -4 -1 -8l-12 -45q-14 -51 -40 -77q-24 -23 -64 -37q-4 -1 -7 -1q-4 0 -7 1q-5 4 -5 11q0 9 10 13z" />
<glyph unicode="&#x201e;" horiz-adv-x="412" d="M-30 -79q32 14 48.5 32t22.5 47q-10 1 -16 9t-3 21l9 33q8 26 36 26q14 0 23 -10t5 -23l-12 -45q-14 -51 -40 -77q-23 -24 -64 -37q-4 -1 -7 -1q-4 0 -6 2q-6 3 -6 10q0 9 10 13zM150 -79q32 14 48.5 32t22.5 47q-10 1 -16 9t-3 21l9 33q8 26 36 26q14 0 23 -10 q6 -7 6 -15q0 -4 -1 -8l-12 -45q-14 -51 -40 -77q-23 -24 -64 -37q-4 -1 -7 -1q-4 0 -6 2q-6 3 -6 10q0 9 10 13z" />
<glyph unicode="&#x2022;" horiz-adv-x="470" d="M232 222q-46 0 -75.5 29.5t-29.5 79.5q0 61 42.5 106t100.5 45q46 0 75.5 -29.5t29.5 -79.5q0 -61 -42.5 -106t-100.5 -45z" />
<glyph unicode="&#x2026;" horiz-adv-x="683" d="M85 20q-6 -24 -36 -24q-14 0 -23 8q-6 7 -6 16q0 3 1 6l10 37q8 26 36 26q14 0 22.5 -9t5.5 -22zM311 20q-6 -24 -36 -24q-14 0 -23 8q-6 7 -6 16q0 3 1 6l10 37q8 26 36 26q14 0 22.5 -9t5.5 -22zM537 20q-6 -24 -36 -24q-14 0 -23 8q-6 7 -6 16q0 3 1 6l10 37 q8 26 36 26q14 0 23 -9q6 -7 6 -15q0 -4 -1 -7z" />
<glyph unicode="&#x202f;" horiz-adv-x="181" />
<glyph unicode="&#x2039;" horiz-adv-x="311" d="M54 266l191 184q16 16 27 16q21 0 21 -22q0 -10 -9 -19l-177 -177l75 -166q4 -9 4 -17q0 -9 -6.5 -15.5t-16.5 -6.5q-15 0 -23 17l-88 177q-5 10 -5 15q0 7 7 14z" />
<glyph unicode="&#x203a;" horiz-adv-x="311" d="M256 243l-191 -184q-16 -16 -27 -16q-21 0 -21 22q0 10 9 19l177 177l-75 166q-4 9 -4 17q0 9 6.5 15.5t16.5 6.5q15 0 23 -17l88 -177q5 -10 5 -15q0 -7 -7 -14z" />
<glyph unicode="&#x2044;" horiz-adv-x="550" d="M643 721l-656 -805q-14 -18 -28 -18q-21 0 -21 19q0 11 9 22l656 805q14 18 28 18q21 0 21 -19q0 -11 -9 -22z" />
<glyph unicode="&#x205f;" horiz-adv-x="226" />
<glyph unicode="&#x20ac;" horiz-adv-x="684" d="M223 464h274q10 0 17 -7t7 -17t-7 -17t-17 -7h-292q-19 -62 -22 -123h269q10 0 17 -7t7 -17t-7 -17t-17 -7h-269q5 -95 55 -152.5t135 -57.5q105 0 191 87q10 10 22 10q8 0 14.5 -6t6.5 -14q0 -12 -12 -24q-48 -49 -100 -74.5t-123 -25.5q-103 0 -170.5 69.5t-72.5 187.5 h-65q-10 0 -17 7t-7 17t7 17t17 7h66q3 65 21 123h-42q-10 0 -17 7t-7 17t7 17t17 7h59q44 111 130.5 179.5t194.5 68.5q148 0 210 -136q5 -12 5 -20q0 -11 -7 -17.5t-18 -6.5q-15 0 -22 16q-53 117 -177 117q-82 0 -151.5 -55t-109.5 -146z" />
<glyph unicode="&#x2122;" horiz-adv-x="690" d="M267 666l-75 -263q-5 -15 -19 -15q-8 0 -12.5 6t-1.5 16l73 256h-83q-7 0 -12 5t-5 12t5 12t12 5h211q7 0 12 -4.5t5 -11.5t-5 -12.5t-12 -5.5h-93zM738 700h1q16 0 16 -15q0 -4 -1 -9l-78 -273q-5 -15 -19 -15q-8 0 -12.5 6t-1.5 16l64 221l-145 -157q-9 -11 -20 -11 t-16 12l-62 156l-66 -228q-5 -15 -19 -15q-8 0 -13 6q-2 4 -2 9q0 3 1 7l78 272q5 18 19 18h1q13 0 19 -16l69 -174l163 178q12 12 24 12z" />
</font>
</defs>
</svg>
